<svg xmlns="http://www.w3.org/2000/svg" id="Layer_1" data-name="Layer 1" viewBox="0 0 150 150"><title>master Course bangladesh-06</title><path d="M41.41,90.89c4.72,2.81,9.44,5.61,14.14,8.44a1.2,1.2,0,0,0,1.4,0c2.22-1.36,4.46-2.69,6.7-4,.34-.21.33-.29,0-.49l-9.3-5.53-12-7.1-7.74-4.64a1.08,1.08,0,0,1,0-.47V64.76c0-.15-.09-.35.1-.48.21.12.43.22.64.35l32,19,7.42,4.45a.73.73,0,0,0,.86,0Q91.32,78.75,107,69.43c2.72-1.62,5.43-3.28,8.14-4.91.18-.11.35-.33.61-.13a1,1,0,0,1,0,.52q0,6.09,0,12.18c0,.16.1.35-.09.48l-6.55,3.88c-3.41,2-6.83,4-10.24,6.08-2.54,1.51-5.07,3-7.61,4.56-1.54.93-3.09,1.86-4.65,2.75-.41.23-.29.34,0,.51,2.32,1.38,4.65,2.76,7,4.15a.83.83,0,0,0,.93-.08l4.2-2.48,8.37-5c.63-.38,1.27-.73,1.9-1.1.12,0,.22,0,.25.11a3,3,0,0,1,0,.42q0,6.15,0,12.3c0,.16.09.35-.09.48a14.82,14.82,0,0,0-2.19,1.24c-2.52,1.47-5,3-7.54,4.47-1.64,1-3.29,1.93-4.92,2.92a.84.84,0,0,1-1,0c-2.67-1.64-5.35-3.25-8-4.87l-8.32-5c-.59-.35-1.18-.68-1.76-1.05a.45.45,0,0,0-.57,0l-9.2,5.58-6.53,3.92c-.77.45-1.54.91-2.29,1.39a.92.92,0,0,1-1.07,0c-1.66-1-3.33-2-5-3l-9.22-5.45-.31-.21c-.14-.11-.08-.26-.08-.39q0-6.24,0-12.48C41.16,91.16,40.94,90.76,41.41,90.89Z"></path><path d="M75.39,73.47c-.16.09-.29,0-.44-.07L52.45,60.09c-5.58-3.3-11.14-6.64-16.76-9.88-3.53-2-7-4.13-10.55-6.2-1.31-.77-2.63-1.52-3.94-2.3-.5-.3-.5-.32,0-.6l8.66-4.94,11.27-6.42L51.43,23.9l11.23-6.4c3.43-2,6.88-3.9,10.32-5.85.61-.35,1.21-.71,1.81-1.07a.77.77,0,0,1,.48-.18,1.72,1.72,0,0,1,.15,1q0,7.5,0,15a8.35,8.35,0,0,0,0,1,.56.56,0,0,1-.32.44c-2.89,1.8-5.72,3.71-8.67,5.43-4.2,2.46-8.31,5.07-12.47,7.6l-.17.11c-.43.3-.43.46,0,.72l2.83,1.63c3.82,2.21,7.65,4.39,11.47,6.6q3.35,1.95,6.72,3.86a.82.82,0,0,1,.52.61,5,5,0,0,1,.05.95v17.1C75.43,72.8,75.42,73.13,75.39,73.47Z"></path><path d="M75.39,73.47c-.32-.21-.22-.53-.22-.82V54.27c0-.28.24-.36.43-.47,4.79-2.88,9.66-5.62,14.47-8.45,2.08-1.22,4.17-2.41,6.24-3.63.57-.34.57-.38,0-.75l-8-5-11.7-7.32c-.39-.25-.78-.48-1.16-.73a.33.33,0,0,1-.18-.35,1.84,1.84,0,0,1-.1-.77V11.18a1.72,1.72,0,0,1,.1-.78,4.34,4.34,0,0,1,1.48.76Q83.4,15,90,18.78l17,9.77,17.75,10.2c1.37.78,2.74,1.56,4.13,2.32.36.2.4.3,0,.53-2.29,1.34-4.58,2.7-6.86,4.06-2.07,1.24-4.13,2.5-6.21,3.73l-13.16,7.82L76.07,73.07Z"></path><path d="M36.62,132.4c-1.2,0-1.3.27-1.54-1.3-.32-2.19-.7-4.37-1-6.56,0-.16,0-.35-.21-.38s-.18.18-.24.3c-1.08,2.44-2.17,4.87-3.26,7.31a2.65,2.65,0,0,1-.3.55.67.67,0,0,1-1.17-.09c-.38-.69-.69-1.41-1-2.13q-1.12-2.49-2.23-5c-.09-.2-.18-.42-.28-.62s-.1-.36-.28-.32-.17.24-.19.39q-.54,3.5-1.07,7c-.11.74-.24.87-1,.87-.44,0-.88,0-1.32,0s-.7-.24-.61-.74c.26-1.41.54-2.81.79-4.22.51-2.85,1-5.7,1.5-8.55.09-.52.22-1,.34-1.53.06-.26.17-.45.49-.44s.55,0,.69.35c.53,1.13,1.08,2.25,1.61,3.38l2.93,6.24c.06.12.09.31.25.3s.18-.18.24-.31c.93-2,1.89-4,2.79-5.94.54-1.2,1.16-2.36,1.72-3.56a.73.73,0,0,1,.83-.46c.43,0,.36.4.41.64,1,4.64,1.69,9.31,2.53,14,.13.73,0,.87-.76.88Z"></path><path d="M75.57,123.88a7.15,7.15,0,0,1,4.8-6.36,7.59,7.59,0,0,1,7.62,1c.71.55.73.71.11,1.36-.27.28-.56.54-.8.84s-.6.29-.9,0a4.56,4.56,0,0,0-1.8-.93,4.68,4.68,0,0,0-5.95,3.7,4.93,4.93,0,0,0,4,6,4.59,4.59,0,0,0,3.38-.86c.9-.57.89-.58,1.62.17.24.26.5.5.73.76a.47.47,0,0,1,0,.74,7,7,0,0,1-4.13,2,8,8,0,0,1-1.89,0,7.37,7.37,0,0,1-5.92-4,6.69,6.69,0,0,1-.85-2.86A6.87,6.87,0,0,1,75.57,123.88Z"></path><path d="M62,128.48c1.24,0,2.48,0,3.72,0a6.85,6.85,0,0,0,1.5-.05c.63-.51.37-1.19.23-1.76a4.17,4.17,0,0,0-6.42-2.49A4.46,4.46,0,0,0,59.4,130a4.14,4.14,0,0,0,3.32,2.52,5.26,5.26,0,0,0,1.68,0,4.87,4.87,0,0,0,2.14-1c.41-.34.44-.57.1-.95-.92-1.07-.92-1.07-2.22-.49l-.1,0a1.94,1.94,0,0,1-2.66-1.44c0-.13,0-.21,0-.25S61.93,128.48,62,128.48Zm-.15-2a1.74,1.74,0,0,1,1.5-1,1.56,1.56,0,0,1,1.46.92c.13.34,0,.49-.33.49H62.19C61.89,126.89,61.77,126.79,61.88,126.47Z"></path><path d="M45.74,127.26c0-.47-.07-1-.12-1.41a2.44,2.44,0,0,0-2.14-2.27,12.55,12.55,0,0,0-3.24.08c-1.31.24-1.34.28-1.14,1.56.11.69.37.9,1,.72a18.4,18.4,0,0,1,2.08-.24A1,1,0,0,1,43,126a.67.67,0,0,1,.18.82c-.1.27-.37.18-.56.15a4.39,4.39,0,0,0-1.2-.08c-2,.12-3.57,1.09-3.17,3.5a3,3,0,0,0,2.67,2.29,3.81,3.81,0,0,0,2.49-.8c.22-.16.38-.26.59.07a1.09,1.09,0,0,0,1.74.2C45.82,130.48,45.81,128.87,45.74,127.26Zm-3.92,3.45a1.12,1.12,0,0,1-1.15-1.17,1.27,1.27,0,0,1,1.43-1.15c.86,0,1.27.3,1.27.93A1.64,1.64,0,0,1,41.82,130.71Z"></path><path d="M106.66,131.89c-.78.53-1.18.47-1.66-.32-.22-.35-.44-.19-.61,0a3.63,3.63,0,0,1-2.52.85,3.27,3.27,0,0,1-3.39-3c-.15-.53,0-1.08-.1-1.62,0-1.14,0-2.28,0-3.42,0-.66.14-.77.79-.69a3.39,3.39,0,0,0,.9,0c.71-.09.9.09.91.83,0,1.3,0,2.6,0,3.9a1.67,1.67,0,0,0,1.08,1.64,1.92,1.92,0,0,0,2-1.21c0-.15.08-.3.12-.45.1-1,0-2.1,0-3.15a13.28,13.28,0,0,1,0-1.41.45.45,0,0,1,.37-.17,7.59,7.59,0,0,0,1.65,0c.12,0,.25.1.38.15s.09.21.09.32c0,2.49,0,5,0,7.48C106.75,131.68,106.82,131.82,106.66,131.89Z"></path><path d="M93.23,123.36a4.39,4.39,0,0,0-4.43,4.49,4.4,4.4,0,1,0,8.8,0A4.43,4.43,0,0,0,93.23,123.36Zm0,6.67a2.11,2.11,0,0,1-2.06-2.15,2,2,0,1,1,4.06-.07A2.15,2.15,0,0,1,93.27,130Z"></path><path d="M126.31,123.5a4.25,4.25,0,0,0-4.62,1.58,5,5,0,0,0-.29,5.11,4.48,4.48,0,0,0,6.31,1.5c1-.65,1-.65.29-1.58-.49-.63-.64-.67-1.38-.37a3.42,3.42,0,0,1-1.57.37,1.78,1.78,0,0,1-1.63-1.81.72.72,0,0,1,.29-.06h0l.27,0c1.5,0,3,0,4.47,0a1,1,0,0,0,.34,0s0,0,0,0a.31.31,0,0,0,.13-.08,1.15,1.15,0,0,0,.3-.87A3.93,3.93,0,0,0,126.31,123.5Zm-2.66,2.84a1.61,1.61,0,0,1,1.5-1,1.52,1.52,0,0,1,1.43,1c.1.29,0,.38-.28.37h-2.36C123.65,126.73,123.56,126.62,123.65,126.34Z"></path><path d="M59,125.67c-.13.17-.27.34-.53.31a6,6,0,0,1-1.27.06c-.18,0-.39-.08-.51.15,0,1.07,0,2.14,0,3.21,0,.54.28.76.81.69l.11,0c.38,0,.82-.39,1.15-.08a2.62,2.62,0,0,1,.54,1.45.54.54,0,0,1-.42.69,14.13,14.13,0,0,1-2.41.5,2.24,2.24,0,0,1-2.4-2.38c0-.19,0-.39,0-.58-.09-1,0-2.07,0-3.1,0-.39-.12-.57-.49-.59s-.63-.2-.61-.64,0-.8,0-1.2c0-.22,0-.43.29-.48.72-.11.72-.11.83-.94a6.59,6.59,0,0,1-.09-1.17.83.83,0,0,1,.41-.73,5.44,5.44,0,0,1,2,0c.28.14.31.38.31.66,0,.68,0,1.36,0,2,.66.14,1.33,0,2,.09l.29.23A4.69,4.69,0,0,1,59,125.67Z"></path><path d="M48.38,132.54a4.85,4.85,0,0,1-1.64-.53c-.39-.22-.59-.49-.34-.94.07-.12.11-.25.17-.38.34-.72.49-.79,1.22-.54a5.44,5.44,0,0,0,1.55.28.6.6,0,0,0,.67-.38c.09-.28-.14-.51-.38-.63-.64-.35-1.3-.68-2-1a2.57,2.57,0,0,1-1-4,1.83,1.83,0,0,1,1-.68,5.59,5.59,0,0,1,4.1.2c.6.27.65.4.39,1,0,.13-.1.26-.16.39-.34.72-.54.82-1.26.52a3.36,3.36,0,0,0-1.43-.23c-.21,0-.4,0-.49.25s.08.36.2.51a1.46,1.46,0,0,0,.54.32c.65.31,1.3.61,1.93,1A2.36,2.36,0,0,1,52.87,130a2.61,2.61,0,0,1-1.7,2.28,2.81,2.81,0,0,1-1.11.29A6.75,6.75,0,0,1,48.38,132.54Z"></path><path d="M117,123.35a5.51,5.51,0,0,1,2.48.58.54.54,0,0,1,.28.74c-.37,1.08-.66,1.22-1.76.94a3.17,3.17,0,0,0-1.19-.14c-.21,0-.42.09-.47.34a.48.48,0,0,0,.25.49,4.86,4.86,0,0,0,1,.44,5.4,5.4,0,0,1,2.43,1.68,2.32,2.32,0,0,1-.32,2.94,4,4,0,0,1-2.73,1,5.42,5.42,0,0,1-2.7-.68.53.53,0,0,1-.26-.79.41.41,0,0,0,0-.09c.6-1.12.6-1.11,1.84-.77a7.21,7.21,0,0,0,.92.21.67.67,0,0,0,.82-.41c.14-.4-.18-.57-.47-.7a13.69,13.69,0,0,1-2.19-1.12,2.55,2.55,0,0,1-1.09-2.75,2.32,2.32,0,0,1,2.06-1.83A5.7,5.7,0,0,1,117,123.35Z"></path><path d="M68.09,124c.21-.55.69-.27,1-.31s.55.19.64.5c.14.48.27.5.63.12a3.16,3.16,0,0,1,3.37-.61c.34.15.5.4.31.76s-.45.83-.7,1.23a.68.68,0,0,1-.63.31H72c-1,0-1.44.47-1.38,1.45.08,1.23.06,2.45.06,3.68s0,1.28-1.27,1.28h-.9a.39.39,0,0,1-.43-.3.45.45,0,0,1,0-.3v-7.56A.44.44,0,0,1,68.09,124Z"></path><path d="M110.19,131.78l-.22.27c-.17.22-.41.1-.62.1a7.45,7.45,0,0,1-1.49,0,.47.47,0,0,1-.21-.32.56.56,0,0,1-.05-.36v-7.2a.51.51,0,0,1,.06-.36,1,1,0,0,1,1.67.22c.13.31.24.38.51.12a3.16,3.16,0,0,1,3.17-.72c.62.16.73.43.42,1-.13.25-.28.48-.41.73a.86.86,0,0,1-1.17.54,1.28,1.28,0,0,0-1.57.81c-.1,1.39,0,2.78,0,4.17A3.62,3.62,0,0,1,110.19,131.78Z"></path><path d="M44.47,134.22c.75,1.19,1.73,2.2,2.56,3.32,0,.06.12.14.22.08s.1-.18.1-.28c0-.54,0-1.08,0-1.63,0-.33,0-.66,0-1s.18-.49.49-.19c.11.07.08.18.08.28v3.87c0,.1,0,.21-.08.28-.4.21-.49-.18-.63-.36-.8-1-1.57-2-2.34-3-.06-.07-.09-.16-.25-.14a5.89,5.89,0,0,0,0,1.26c0,.56,0,1.12,0,1.68,0,.31-.08.58-.5.42a8.38,8.38,0,0,1,0-1.66c0-.89,0-1.78,0-2.67C44,134.14,44.15,134.07,44.47,134.22Z"></path><path d="M60.3,138.32a2.28,2.28,0,0,1-3.56-.23,2.34,2.34,0,0,1,1-3.77,2.43,2.43,0,0,1,2.25.37.23.23,0,0,1,.06.36c-.11.15-.23.21-.4.09a1.78,1.78,0,0,0-2.79.68A2.12,2.12,0,0,0,57.4,138a1.86,1.86,0,0,0,2,.33c.23-.11.45-.25.39-.55s-.07-.58-.49-.55c-.16,0-.34-.05-.32-.26s.2-.21.36-.22h1A3.78,3.78,0,0,1,60.3,138.32Z"></path><path d="M23.58,136.82c-.18-.19-.33-.32-.12-.62.53-.8.37-1.35-.51-1.84a7.43,7.43,0,0,0-2-.08h0a.1.1,0,0,0-.11.07.25.25,0,0,0,0,.15c0,1.38,0,2.77,0,4.14a.41.41,0,0,0,0,.11.15.15,0,0,0,.11.14H21a9,9,0,0,0,1.72-.05,1.07,1.07,0,0,0,1.06-.72A1.1,1.1,0,0,0,23.58,136.82Zm-.4-1.31c0,.58-.32.8-1.14.8s-.7,0-.68-.81,0-.78.72-.77S23.18,135,23.18,135.51Zm-.36,2.83a2.07,2.07,0,0,1-.78.1c-.74,0-.74,0-.74-.72,0-.21,0-.43,0-.63s0-.27.17-.29A2.08,2.08,0,0,1,23,137,.78.78,0,0,1,22.82,138.34Z"></path><polygon points="91.2 138.85 91.21 138.85 91.21 138.86 91.2 138.85"></polygon><path d="M94.55,135.15a3.19,3.19,0,0,0-1.24-.83,8.2,8.2,0,0,0-2.1,0,12.85,12.85,0,0,0,0,2.4,11.69,11.69,0,0,0,0,2.13,8.6,8.6,0,0,0,2.09,0C95,138.17,95.57,136.49,94.55,135.15Zm-2.13,3.29c-.76,0-.76,0-.77-.75s0-1.62,0-2.43c0-.38.15-.51.52-.57a1.92,1.92,0,0,1,2.31,2.1C94.4,137.83,93.64,138.43,92.42,138.44Z"></path><path d="M35.82,138.43c-.59-1.29-1.16-2.57-1.73-3.83-.06-.15-.1-.35-.29-.36s-.27.21-.34.36c-.31.66-.61,1.33-.93,2s-.57,1.23-.85,1.85c-.09.15-.19.33,0,.45s.35,0,.46-.22a2.11,2.11,0,0,0,.1-.3.89.89,0,0,1,.49-.58,7.52,7.52,0,0,1,2,0,1.28,1.28,0,0,1,.54.8c0,.19.19.38.4.32S35.9,138.62,35.82,138.43Zm-2.4-2.49a1.56,1.56,0,0,1,.44-.72c.27.62.53,1.19.79,1.77.07.18,0,.28-.18.28h-.11C32.55,137.24,32.73,137.53,33.42,135.94Z"></path><path d="M82.87,138.48l-1.76-3.93c0-.12-.09-.3-.26-.3s-.23.18-.3.32c-.6,1.28-1.2,2.56-1.78,3.84-.07.15-.3.34,0,.49s.41-.12.49-.34.24-.65.63-.77a8.56,8.56,0,0,1,2,0,1.61,1.61,0,0,1,.55.86c.07.16.19.32.39.26S83,138.66,82.87,138.48ZM80.44,136l.4-.86.82,1.83c.12.27,0,.33-.25.35C79.83,137.44,79.8,137.4,80.44,136Z"></path><path d="M126.12,136.85c0,.51,0,1-.06,1.55,0,.24,0,.67-.48.45-.11-1.22,0-2.45,0-3.67a1.34,1.34,0,0,1,.08-.86c.36,0,.44.18.46.48a7.5,7.5,0,0,0,0,1.42,13.16,13.16,0,0,0,2.51,0h0a8.6,8.6,0,0,0,.06-1.43c0-.16-.1-.35.09-.47s.46.11.46.42c0,1.19,0,2.38,0,3.57,0,.25,0,.63-.48.54a8.75,8.75,0,0,1-.06-1.45,1.33,1.33,0,0,0,0-.56h0A13.37,13.37,0,0,0,126.12,136.85Z"></path><path d="M115.72,134.22a1.41,1.41,0,0,1,.89.19c.13.07.25.19.17.34a.29.29,0,0,1-.36.14,2.91,2.91,0,0,0-.82-.16.64.64,0,0,0-.72.4.67.67,0,0,0,.26.83,7.87,7.87,0,0,0,1.34.72,1.1,1.1,0,0,1,.66.94,1.43,1.43,0,0,1-1.86,1.39,6.59,6.59,0,0,1-.75-.38.33.33,0,0,1-.16-.45c.1-.23.27-.09.39,0a3.66,3.66,0,0,0,.85.27.68.68,0,0,0,.53-1.26,9.78,9.78,0,0,0-1.15-.62,1.27,1.27,0,0,1-.23-2.11A1.41,1.41,0,0,1,115.72,134.22Z"></path><path d="M105.75,138.42c.13.1.48,0,.32.38-.11.19-.28.1-.42.1H103.8c-.27,0-.42-.1-.42-.4,0-1.37,0-2.74,0-4.1,0,0,0-.06,0-.09h0a11.65,11.65,0,0,1,2.64,0c.13.25,0,.35-.21.36-.49,0-1,.25-1.45.09-.32-.1-.47,0-.46.34l0,1.1c.55.14,1.11,0,1.66.09.21.14.23.29,0,.44a4.76,4.76,0,0,1-1.25,0c-.28,0-.39.07-.4.38,0,1.21,0,1.21,1.18,1.21A1.38,1.38,0,0,1,105.75,138.42Z"></path><path d="M70.83,138.42c.2.09.44.16.21.45a13.35,13.35,0,0,1-2.19,0l-.13-.13c-.07-1.4-.07-2.8,0-4.21.26-.37.39-.07.54.1.12,1.05,0,2.1,0,3.15,0,.6,0,.59.58.6A3.69,3.69,0,0,1,70.83,138.42Z"></path><path d="M41.41,90.89c-.3,0-.24.26-.24.44v12.46a2.25,2.25,0,0,0,.06.36,1,1,0,0,1-.13-.65c0-4,0-8.07,0-12.1C41.11,91.21,40.92,90.82,41.41,90.89Z"></path><path d="M109.19,104.15a4.6,4.6,0,0,0,.06-.52V91.42c0-.21.09-.47-.22-.58.32-.07.3.17.3.35,0,.51,0,1,0,1.53v10.67A1.07,1.07,0,0,1,109.19,104.15Z"></path><path d="M34.71,64.28c0,.21-.06.42-.06.63V77.57a1.51,1.51,0,0,1-.09-.73V65A1,1,0,0,1,34.71,64.28Z"></path><path d="M115.73,77.57c0-.21,0-.42,0-.63V64.39a1.49,1.49,0,0,1,.1.72v11.7A1,1,0,0,1,115.73,77.57Z"></path><path d="M23,134.36a9.08,9.08,0,0,0-1.73-.07c-.29,0-.4.15-.4.43,0,1.24,0,2.48,0,3.73,0,.32.16.42.46.42.49,0,1,0,1.47,0a4.42,4.42,0,0,1-1.66.09c-.27,0-.35-.21-.35-.44,0-1.28,0-2.56,0-3.84,0-.18,0-.4.24-.41A4.19,4.19,0,0,1,23,134.36Z"></path><path d="M68.09,124c0,2.7,0,5.41,0,8.11a1.17,1.17,0,0,1-.11-.61V124.6A1.27,1.27,0,0,1,68.09,124Z"></path><path d="M106.66,131.89a5.51,5.51,0,0,0,.06-.57v-7a5.51,5.51,0,0,0-.06-.57.88.88,0,0,1,.15.65v6.82A.88.88,0,0,1,106.66,131.89Z"></path><path d="M107.66,123.87q0,4,0,7.92a1.21,1.21,0,0,1-.1-.62v-6.68A1.11,1.11,0,0,1,107.66,123.87Z"></path><path d="M103.44,134.32c0,1.33,0,2.66,0,4,0,.4.14.59.55.56a13.41,13.41,0,0,0,2.1-.07,6.1,6.1,0,0,1-2.48.11c-.17,0-.25-.2-.25-.36,0-1.35,0-2.7,0-4A.46.46,0,0,1,103.44,134.32Z"></path><path d="M61.66,128.74c-.11-.42.22-.31.41-.31h5.18a1.35,1.35,0,0,1-.72.11H62.32C62.07,128.52,61.81,128.48,61.66,128.74Z"></path><path d="M123.42,128.3a7.33,7.33,0,0,1,1.62-.07c1.3,0,2.61.07,3.92-.06a.91.91,0,0,1-.6.14Z"></path><path d="M70.83,138.42H69.68c-.32,0-.43-.13-.43-.44,0-1.12,0-2.24,0-3.36a4.51,4.51,0,0,1,.1,1.55,14.42,14.42,0,0,1,0,1.47c0,.53.19.72.7.68A1.44,1.44,0,0,1,70.83,138.42Z"></path><path d="M110.19,131.78c0-1.53,0-3.06,0-4.6a1.08,1.08,0,0,1,.1-.61c0,1.55,0,3.1,0,4.65A1.08,1.08,0,0,1,110.19,131.78Z"></path><path d="M44.47,134.22c-.41-.08-.42.2-.42.48v4.16a2.72,2.72,0,0,1-.1-.46q0-1.89,0-3.78C44,134.28,44,134,44.47,134.22Z"></path><path d="M105.75,138.42c-.44,0-.88,0-1.32,0s-.48-.1-.47-.45c0-1.51-.14-1.21,1.16-1.24h.53a2.52,2.52,0,0,1-1.09.1c-.55,0-.49.38-.49.73s-.07.74.48.75A3,3,0,0,1,105.75,138.42Z"></path><path d="M45.74,132.1c0-1.62,0-3.23,0-4.84a1.36,1.36,0,0,1,.09.66v3.51A1.28,1.28,0,0,1,45.74,132.1Z"></path><path d="M91.21,134.31c-.06,1.52-.07,3,0,4.55a.92.92,0,0,1-.12-.51v-3.53A.92.92,0,0,1,91.21,134.31Z"></path><path d="M125.62,134.32c0,1.51,0,3,0,4.53a1.38,1.38,0,0,1-.1-.72V135A.94.94,0,0,1,125.62,134.32Z"></path><path d="M104.26,123.78c0,1.29,0,2.59,0,3.88,0,.23,0,.45-.06.68,0-1.33,0-2.66,0-4A1.22,1.22,0,0,1,104.26,123.78Z"></path><path d="M47.82,139c0-1.48,0-3,0-4.43A15,15,0,0,1,47.82,139Z"></path><path d="M68.72,134.53v4.21a7.6,7.6,0,0,1-.08-2.13A6.92,6.92,0,0,1,68.72,134.53Z"></path><path d="M53.54,126c.38-.06.55.08.54.49,0,1.06,0,2.13,0,3.2a16.17,16.17,0,0,1-.09-2.95C54,126.37,53.89,126.11,53.54,126Z"></path><path d="M106.07,134.33a17.9,17.9,0,0,0-2.64,0A6.35,6.35,0,0,1,106.07,134.33Z"></path><path d="M128.64,136.22a9.59,9.59,0,0,1-2.51,0Z"></path><path d="M126.12,136.85a8,8,0,0,1,2.53,0Z"></path><path d="M68.85,138.87H71A5.76,5.76,0,0,1,68.85,138.87Z"></path><path d="M107.86,132.11c.71-.05,1.41.06,2.11-.06A3.7,3.7,0,0,1,107.86,132.11Z"></path><path d="M93.31,134.32a13.51,13.51,0,0,0-2.11,0A4.19,4.19,0,0,1,93.31,134.32Z"></path><path d="M91.2,138.84l2.1,0A4.27,4.27,0,0,1,91.2,138.84Z"></path><path d="M56.39,120.86l-2,0A3.36,3.36,0,0,1,56.39,120.86Z"></path><path d="M58.7,123.65a8.22,8.22,0,0,1-2-.09A8.74,8.74,0,0,1,58.7,123.65Z"></path><path d="M128.65,136.84a11.24,11.24,0,0,1,.1,2A7.52,7.52,0,0,1,128.65,136.84Z"></path><path d="M32.76,137.8a4,4,0,0,1,2,0Z"></path><path d="M128.79,134.32a6.75,6.75,0,0,0,0,1.35.89.89,0,0,1-.1.55C128.71,135.59,128.48,134.93,128.79,134.32Z"></path><path d="M82.34,132.32h1.89A3.78,3.78,0,0,1,82.34,132.32Z"></path><path d="M56.72,126.19c.06-.27.28-.22.47-.22.44,0,.88,0,1.31,0a2.72,2.72,0,0,1-1.17.11A1.81,1.81,0,0,0,56.72,126.19Z"></path><path d="M79.87,137.79a3.83,3.83,0,0,1,2,0Z"></path><path d="M59,125.67a13.34,13.34,0,0,0,0-1.79A2.81,2.81,0,0,1,59,125.67Z"></path><path d="M54.06,122.72v0c0,.88,0,.88-.83.89C53.85,123.65,54,123.22,54.06,122.72Z"></path><path d="M48.38,132.54h1.68A3.19,3.19,0,0,1,48.38,132.54Z"></path><path d="M62.72,132.53H64.4A3,3,0,0,1,62.72,132.53Z"></path><path d="M105.64,136.31a7.12,7.12,0,0,1-1.66-.09A6.13,6.13,0,0,1,105.64,136.31Z"></path><path d="M75.57,123.88v1.57A3,3,0,0,1,75.57,123.88Z"></path><path d="M98.38,127.74a9.79,9.79,0,0,1,.1,1.62A4.9,4.9,0,0,1,98.38,127.74Z"></path><path d="M60.3,138.32c0-.52,0-1,0-1.57A2.23,2.23,0,0,1,60.3,138.32Z"></path></svg>