<svg xmlns="http://www.w3.org/2000/svg" id="Layer_1" data-name="Layer 1" viewBox="0 0 150 150"><defs><style>.cls-1{fill:none;stroke:#000;stroke-miterlimit:10;stroke-width:2px;}.cls-2{font-size:9.04px;font-family:ShorifAdorUnicode, Shorif Ador Unicode;}</style></defs><title>Kadamtala School and College Logo-02-02-03-03</title><path class="cls-1" d="M133.37,76.39c-1.63,4.79,1.09,7.19,4.94,8.92,2.25,1,2.94,2.62,2.89,5.11-.17,8.35-.14,16.7,0,25,0,2.19-.6,2.9-2.82,2.83-4.51-.16-9.17-.72-13.51.15s-6.72,5.38-10.2,8a64.16,64.16,0,0,1-82.34-4A8,8,0,0,0,26.08,120c-3.92.2-7.86,0-11.78.09-1.83,0-2.36-.63-2.35-2.39q.11-13.12,0-26.23a4,4,0,0,1,1.89-3.4,6,6,0,0,1,.67-.57c4.07-2.32,4.39-5.66,3.85-10.11-3.61-29.68,15.24-58.23,44-65.31,29.39-7.25,59.46,9.82,68.82,40.78a44.32,44.32,0,0,1,2.24,12.4A58.4,58.4,0,0,0,133.37,76.39Z"></path><path class="cls-1" d="M133.37,76.39a26,26,0,0,1,0-11.14A53.87,53.87,0,0,1,133.37,76.39Z"></path><path class="cls-1" d="M35.73,65.44c1.45-20,19.51-36.53,39.62-36.84,19.43-.29,36.75,14.53,40.14,33.9a22,22,0,0,1,.15,2.93c-1.67,1.71-3.85,1.17-5.85,1.23-4.65.14-5.46.9-5.54,5.55-.07,4.12-.79,8.2-.69,12.33a3.56,3.56,0,0,1-2.47,3.57A80.7,80.7,0,0,0,82.57,99.45c-.76.64-1.59,1.3-2.65.78s-1-1.66-1-2.78c-.08-5.88.1-11.76,0-17.64a6,6,0,0,0-.78-3.37,2.16,2.16,0,0,1,1.32-2.32c.22-.2.43-.41.63-.62l.53-.66c1.29-.8,3.1-.94,3.57-2.78,1-.51,1.16-1.6,1.67-2.44a2.31,2.31,0,0,1,1.72-.88A3.88,3.88,0,0,1,89,67l.7.11a4.92,4.92,0,0,0,2.12-.25,12,12,0,0,0,1.7-.8c1.68-.93,3-2.31,4.6-3.39a1.35,1.35,0,0,0,.68-1.29c.3-3-1.37-5.58-2.17-8.34a13.05,13.05,0,0,0-1.85-3.83,3.3,3.3,0,0,0-2.92-2.69,23.61,23.61,0,0,1-3.72-4,27.44,27.44,0,0,0-5.64-2.73c-.84-.43-1.83-.12-2.67-.51a8.69,8.69,0,0,0-5.38-.3c-3.24.39-6,2.64-9.34,2.56C63.54,43,61.22,43.43,60,45.32c-.87,1.53-2.51,2.37-3.47,3.82-.73.61-.77,1.62-1.3,2.34a6.5,6.5,0,0,0-1.4,2.69c-.63,2.31,0,4.83-1.69,7-.85,1.07.63,1.71,1.7,2a38.15,38.15,0,0,0,4.24.8,1.92,1.92,0,0,1,.6.57,5.54,5.54,0,0,0,4,3.56,14.14,14.14,0,0,1,2.18,1.69A5.87,5.87,0,0,0,66.82,71c1.08,1,2.75-.3,3.77.94.49.72,1.43,1,1.71,2,.14,1.08.65,2.07.7,3.16.06,6.78,0,13.56,0,20.34,0,1.14.26,2.47-1.06,3.13s-2.39-.31-3.36-1.14a75.37,75.37,0,0,0-18-11c-2-.91-2.9-2.17-2.82-4.27.16-4.24-.72-8.41-.7-12.64,0-3.65-1.08-4.51-4.86-4.71C40,66.55,37.61,67.28,35.73,65.44Z"></path><path class="cls-1" d="M81,120.57c17.54-2.08,29.75-11.64,37.85-27a41.22,41.22,0,0,0,3.53-9.33c.34-1.4.91-1.72,2.26-1q5.07,2.7,10.24,5.16c1.39.66,1.5,1.44,1,2.79C127.6,114.82,111.74,130,87,135.35c-2.19.48-4.43.74-6.65,1.11a21.1,21.1,0,0,1-8.74,0c-5.79-.94-11.61-1.72-17.14-3.89-18.12-7.1-30.38-20-37.59-37.9-.69-1.72-.4-2.62,1.2-3.51a92.88,92.88,0,0,0,8.26-5.09c2.1-1.46,3-1.49,3.92,1.29,4.82,14,14,24.11,27.63,30a38.12,38.12,0,0,0,12.48,3.17A50.37,50.37,0,0,1,81,120.57Z"></path><path class="cls-1" d="M35.73,65.44c3.33,0,6.66.09,10,0,2-.06,2.77.68,2.8,2.72.09,5.19.4,10.37.57,15.56,0,1.33.16,2.43,1.63,3.09,7.45,3.32,14.54,7.23,20.47,13l.92-.17V76.41a1.17,1.17,0,0,1,.65-.44c1.77,1.06,3.5,1.48,5.09-.34a.89.89,0,0,1,.73.23c1,1,1,2.26,1,3.56,0,5.6,0,11.2,0,16.8v3.88c1.78-1.49,3-2.56,4.26-3.55a72.88,72.88,0,0,1,16-9.35,3.59,3.59,0,0,0,2.49-3.76c.06-5.11.46-10.21.52-15.31,0-2.11.85-2.74,2.81-2.69,3.34.08,6.68,0,10,0a.76.76,0,0,0,.22.4c-.34,5.94-.58,11.9-2.24,17.66a5.47,5.47,0,0,0-.32,3.09l-1.15,2.63a5.44,5.44,0,0,1-3.9,1.68c-10.09,1.14-18.4,5.76-25.36,13q-.92,1-1.89,1.86c-1.51,1.41-3,2-4.29-.24-.74-1.25-1.43-1.09-2.13.09-1.21,2-2.67,1.68-4.07.27-2.07-2.09-4.16-4.13-6.37-6.08-6-5.22-13-7.87-20.72-8.88a5.79,5.79,0,0,1-3.71-1.54L38.48,87a107.17,107.17,0,0,1-2.81-19.61Z"></path><path class="cls-1" d="M39.71,89.38c13.76,0,24.22,6.67,33.21,17,.66-2.18-.44-5.18,3.35-4.66,3.16.43,1,2.88,2.11,4.14.76.27,1-.55,1.44-1C88.41,95.12,99,89.46,112.15,89.21c-7.27,14.64-19.12,23-35.36,23.59A39,39,0,0,1,39.71,89.38Z"></path><path class="cls-1" d="M35.17,31.31a2.4,2.4,0,0,1,.42,0c1.52.62,2.21,2.92,4,2.57s1.24-2.62,1.88-4a2.38,2.38,0,0,1,2.35-1.38c3.51-.17,4.16-1.36,2.79-4.64-.28-.68-1.75-1.48-.55-2.13s1.47.89,1.9,1.68c1.56,2.94,2.2,3.09,4.1,1.21.86-.85.5-1.51.2-2.35A2.52,2.52,0,0,1,53.75,19c.8-.39,1.78-.65,2.31.38.44.86.06,1.48-.92,1.72-.63.15-1.1.56-.93,1.24a1.1,1.1,0,0,0,1.38.78c.65-.1,1.23,0,1.25.81s-.77.68-1.24,1C52.46,26.71,49,28,46.3,30.7c-1.61,1.59-3.87,2.42-5,4.75-.78,1.58-2.46.93-3.52-.07S34.62,33.57,35.17,31.31Z"></path><path class="cls-1" d="M75.12,16.22c2.25.38,2.69,1.58,2.46,2.9-.32,1.77-2.21,2.26-3.39,2.2-1.52-.08-1.94.55-2.65,1.53-2,2.79-8,3.88-9.72,1.89-1.5-1.74-1-3.53,1.27-4.26.46,1.07-1.62,2.78.29,3.19s4.88.3,5.79-1.72,2.07-2.13,3.74-2.24C74.84,19.58,76.81,19.33,75.12,16.22Z"></path><path class="cls-1" d="M113.3,86.58a2.23,2.23,0,0,1-.72-2.82,37.18,37.18,0,0,0,1.9-13.59c-.1-1.77,1.36-2.77,1.38-4.34C117.17,73,115.75,79.86,113.3,86.58Z"></path><path class="cls-1" d="M35.67,67.42c1.34.51,1.13,1.69,1.11,2.73a41,41,0,0,0,1.95,13.53A5.81,5.81,0,0,1,38.48,87C36,80.72,34.57,74.25,35.67,67.42Z"></path><path class="cls-1" d="M105.61,28.79c-.19,1.45-.92,2.06-2.24,1.6-2.86-1-5.22-2.89-7.64-4.64a1.2,1.2,0,0,1-.49-1.54,1.36,1.36,0,0,1,.84-.71c.91-.15.6.73.87,1.15,1.26,2,3.44,2.76,5.36,3.87.49.29.94.05,1-.59s.09-1.52,1.16-1A2.53,2.53,0,0,1,105.61,28.79Z"></path><path class="cls-1" d="M84.71,17.21c2,.72,1.65,2.4,1.54,3.9-.09,1.16-.93,1.65-2,1.72a4.77,4.77,0,0,1-4.48-1.63A1.06,1.06,0,0,1,80,19.64c.47-.41.89-.08,1.27.26a7.21,7.21,0,0,0,.86.8c.55.39,1.15.92,1.85.64s.41-1.18.45-1.81S84.1,18,84.71,17.21Z"></path><path class="cls-1" d="M105.53,33.82c2.63,1,4.56,1.55,5.16-1.35a1.08,1.08,0,0,1,1.35-.84c.87.17.93.89.87,1.6a3.15,3.15,0,0,1-2.48,2.94C108.66,36.61,107,36.46,105.53,33.82Z"></path><path class="cls-1" d="M89.27,25c2.1-1.43,4.21-2.61,3.25-5.39a1.32,1.32,0,0,1,.68-.34c.83,0,1.11.65,1.27,1.35C95,23,93,24.94,89.27,25Z"></path><path class="cls-1" d="M81,120.57a43.38,43.38,0,0,1-10.56,0A22.84,22.84,0,0,1,81,120.57Z"></path><path class="cls-1" d="M71.63,136.5l8.74,0A12.25,12.25,0,0,1,71.63,136.5Z"></path><path class="cls-1" d="M64.48,40.5c3.24-1.19,6.3-3.07,10-2.49,1.79-.28,3.52,1.08,5.32.16a4.44,4.44,0,0,1,3,.47c-.17,1.79,1.17,3.74-.57,5.35-1.52,1-3.24.78-4.92.81l-.73.19c-1.18.78-3.3-.83-3.85,1.53a2.13,2.13,0,0,1-2.2,1.06c-1.64-2-4.33-2.43-6.17-4.14A2.25,2.25,0,0,1,64.48,40.5Z"></path><path class="cls-1" d="M97.68,52.77c2.29,2.76,2.64,6.06,2.63,9.46-1.36,0-2.33,1.19-3.69,1.12-1.08-1.31-4,0-4.05-2.72.64-1.61-1.72-2.33-1.18-3.91a3.87,3.87,0,0,1,.72-1.14,16.61,16.61,0,0,0,2.21-2.23C95.3,51.78,96.39,51.94,97.68,52.77Z"></path><path class="cls-1" d="M84.53,70.53c.19,2.62-1.87,2.91-3.64,3.5-1.5.27-3,.65-4.51,0-2.09-2.47-1.71-5.08-.45-7.74a2.87,2.87,0,0,1,.37-.84c1.56-1.67,2.78-.47,4,.49A3.58,3.58,0,0,1,82,67.27c.32.42.75.74,1.1,1.13A4.85,4.85,0,0,0,84,69.58a2.07,2.07,0,0,1,.48.58C84.48,70.28,84.5,70.4,84.53,70.53Z"></path><path class="cls-1" d="M53.26,64a2.7,2.7,0,0,1-2.12-3.81c.82-2.22.75-4.61,1.69-6.77,1.29-.05,1.69-1.59,2.92-1.74a1.68,1.68,0,0,1,.87.24c.87,1,1.9,1.95,1.62,3.5A8.14,8.14,0,0,1,57.83,57c-.14.87.29,1.77-.15,2.62-.21.63-.48,1.25-.63,1.9a2.08,2.08,0,0,1-.4.69,16.79,16.79,0,0,0-3,1.74Z"></path><path class="cls-1" d="M55.42,48.6A12.11,12.11,0,0,1,59,44.41a16.06,16.06,0,0,1,4-.08c2.28.5,2.93,2.41,1.54,4.42-1.1,1.15-2.16,2.26-.63,3.9.77.83.47,1.8-.17,2.65a2,2,0,0,1-.75.4c-.76.1-1.33-.43-2-.59-2.46-.19-3-2.66-4.55-3.87C55.54,50.57,55.67,49.52,55.42,48.6Z"></path><path class="cls-1" d="M63.88,48.14c.61-.64.85-1.36.14-2-1.18-1.11-.63.77-1.21.74-1.74-.07-2.43-1.78-3.79-2.43a16.44,16.44,0,0,1,5.46-3.91l1.16,2.34A1.91,1.91,0,0,0,66.78,45c1.8.67,2.12,2.17,2.57,3.66a2.24,2.24,0,0,1-.06.89c-1.15,1.89-3,.66-4.46,1A1.8,1.8,0,0,1,63.88,48.14Z"></path><path class="cls-1" d="M76.74,66.32c.88,2.38-1.57,4.81.09,7.18a1.67,1.67,0,0,1,.23,2.1c-1.11,2.26-2.86.69-4.35.74l-.6.07c-.9-.6-.67-1.5-.64-2.35.39-1,1.28-1.94.1-3a3,3,0,0,1-.21-1.72c.22-.75.42-1.5.62-2.25A3.91,3.91,0,0,1,72.75,66a3.13,3.13,0,0,1,1.2-.55,4.32,4.32,0,0,1,1.7-.32C76.3,65.25,76.53,65.78,76.74,66.32Z"></path><path class="cls-1" d="M72.7,69.31l0,1.78c-.1,2-1.13,2.45-2.87,1.73-1.06-.83-3.13,1.57-3.61-1.13,0-1.24-.92-2.15-1.18-3.3a4.19,4.19,0,0,1,.54-1.79c.86-1.14,2.3-1,3.43-1.58a2.77,2.77,0,0,1,1.84.09c1,.48.87,1.47,1.14,2.29A4.23,4.23,0,0,0,72.7,69.31Z"></path><path class="cls-1" d="M81.57,43.4c.76-1.49-1-3.65,1.26-4.76a15.9,15.9,0,0,1,6.36,3,4.54,4.54,0,0,0-1,2.12c-2.31,3.5-2.45,3.35-6.75.43A.88.88,0,0,1,81.57,43.4Z"></path><path class="cls-1" d="M97.68,52.77c-2.17.46-3.41,2.21-4.91,3.6A1.37,1.37,0,0,1,91,55.43c0-1.59,1.89-2.88.71-4.65.73-3,1.46-3.35,4.1-2.08C97.55,49.51,97.55,51.17,97.68,52.77Z"></path><path class="cls-1" d="M87.47,42.77a1.82,1.82,0,0,1,1.72-1.12c.19.33.36.93.55.94,2.22.1,2.55,1.53,2.44,3.31a1.18,1.18,0,0,1,.34,1.19,3.15,3.15,0,0,1-3.42,1.57C86.39,48,86.38,47.48,87.47,42.77Z"></path><path class="cls-1" d="M66.27,67l0,1.94c.11,1.7-.94,2.13-2.35,2.2l-1.78-1.75c-.48-1-1.79-1.54-1.77-2.88a2.1,2.1,0,0,1,.69-1.1c.41-.42.76-.9,1.16-1.33a2.25,2.25,0,0,1,1.17-.61C65.31,63.81,66,65.23,66.27,67Z"></path><path class="cls-1" d="M92.18,46.92v-1c2.59-.86,3,1.08,3.59,2.8-1.31.34-3.12,0-3,2.23,0,.81-.15,1.51-1.05,1.78-2.88-1-3.27-2.38-1.2-4.23A10.72,10.72,0,0,1,92.18,46.92Z"></path><path class="cls-1" d="M83.74,70.55a1.84,1.84,0,0,1-1.61-1.28,2,2,0,0,1-.76-1.6c.86-2.38,2.52-1.22,4-.9.62.26,1.15.58.91,1.41,1.86,2.61-.5,2.06-1.75,2.35l0,0C84.21,69.93,84,70.41,83.74,70.55Z"></path><path class="cls-1" d="M86.28,68.18l-1.19-.59c-.75-1.23-2.63-1.66-2.47-3.54.56-1.79,1.82-2,3.41-1.51a5.76,5.76,0,0,1,2,1.62,7.06,7.06,0,0,1,.73,2.32A1.32,1.32,0,0,1,88,67.62Z"></path><path class="cls-1" d="M79.78,38.17c-.26.67-.69,1.35-1.44,1.15-1.78-.48-3.33-.89-2,2.27-1.93-1-1.67-2.4-1.86-3.58C76.27,37,78,37.76,79.78,38.17Z"></path><path class="cls-1" d="M55.34,38.22c1.33.6,3.11.67,3.37,2.35.09.63-1,1.57-1.64,1.38C55.37,41.45,55.84,39.59,55.34,38.22Z"></path><path class="cls-1" d="M86.43,32.39c.26,1.5,1.06,3.06-.2,4.15a1.71,1.71,0,0,1-2-.73C83.58,34,85.83,33.72,86.43,32.39Z"></path><path class="cls-1" d="M69.86,72.82c1.2-.17,1.91-1.15,2.87-1.73.79.18,2,.07,1.75,1.32-.33,1.45-1.72,1.6-3,1.65Z"></path><path class="cls-1" d="M103.94,48c-1.12,1.46-1.74,3-3.28,3-.68,0-1.38-1.62-1-2.12C100.55,47.55,102.12,48.12,103.94,48Z"></path><path class="cls-1" d="M65.39,32.34c1.14.93,2.56,1.69,2.2,3.34a2,2,0,0,1-1.76.65C64.33,35.31,65.34,33.76,65.39,32.34Z"></path><path class="cls-1" d="M98.74,63.5,94,67a1.1,1.1,0,0,1-1.31.08c0-2.47,1-4.15,3.6-4.53C96.87,63.44,98.16,62.57,98.74,63.5Z"></path><path class="cls-1" d="M75.19,30c.69,1.77,1.83,2.95,1.06,4.38a1.63,1.63,0,0,1-2.13,0C73.3,32.88,74.5,31.72,75.19,30Z"></path><path class="cls-1" d="M48.08,47.69c1.66-.16,3.14-.56,3.93.8.39.67-.41,2.1-1.11,2.09C49.37,50.56,49.05,49,48.08,47.69Z"></path><path class="cls-1" d="M107.3,59.59c-1.58.94-2.68,2.14-4.19,1.6-.59-.2-.62-1.74-.16-2.14C104.33,57.87,105.56,59.22,107.3,59.59Z"></path><path class="cls-1" d="M76.26,75.24l.57-1.74c1.5-.93,2.81-.46,4.06.53l0,.08c-.17.17-.34.33-.52.48l-1.84,1.27-.27,0-.26,0C77.33,76,76.65,76,76.26,75.24Z"></path><path class="cls-1" d="M94.79,42.51c-.83-.63-1.9-1.12-1.67-2,.28-1.05,1.51-1.39,2.53-1.59.65-.13.71.57.57,1C95.93,40.88,95.78,42,94.79,42.51Z"></path><path class="cls-1" d="M55.42,48.6l2,1.84a2.43,2.43,0,0,0,.27,1.08c.34.6,1.26,1.29.25,1.87s-1.19-.59-1.68-1.08l-.62-.09a.88.88,0,0,1-.78-1A2.23,2.23,0,0,1,55.42,48.6Z"></path><path class="cls-1" d="M44.9,59.15c1.26-.5,2.49-1.76,3.72-.43a2,2,0,0,1-.27,1.88C46.83,61.44,46,59.92,44.9,59.15Z"></path><path class="cls-1" d="M54.83,51.25c.26.33.52.65.79,1-.47,1.46-.81,3.21-2.79,1.23C53.21,52.45,53.34,51.24,54.83,51.25Z"></path><path class="cls-1" d="M60.9,66.48c.43,1,1.21,1.75,1.21,2.88-1.4-1.35-4.3-1.2-4.12-4.13a1.5,1.5,0,0,1,1.16-.5A2.48,2.48,0,0,1,60.9,66.48Z"></path><path class="cls-1" d="M98.74,63.5a4.08,4.08,0,0,1-2.36-.59c.14-.23.31-.26.51,0,1-1.06,1.92-2.39,3.42-.63C100.22,63.19,99.48,63.34,98.74,63.5Z"></path><path class="cls-1" d="M63.89,71.11l2.35-2.2c.73.93,1.4,1.85,0,2.78Z"></path><path class="cls-1" d="M92.18,68.17c-1,.58-1.89-.14-2.84,0a.88.88,0,0,1-.37-.85,1.38,1.38,0,0,1,1-1C91.39,66.13,92.34,66.51,92.18,68.17Z"></path><path class="cls-1" d="M58,64.62c-1.58-.1-3.24.35-4.72-.59v0a11.19,11.19,0,0,1,1.57-1.27,5.84,5.84,0,0,1,2-.16,2.47,2.47,0,0,1,.79.23,1.55,1.55,0,0,1,.65,1A1.12,1.12,0,0,1,58,64.62Z"></path><path class="cls-1" d="M92.18,68.17a2.78,2.78,0,0,0-2.39-1.27,1,1,0,0,1-.24-.79,1.16,1.16,0,0,1,1-.77c1.1.08,2,.44,2.27,1.65H94Z"></path><path class="cls-1" d="M89.74,66.3c0,.2,0,.4.05.6l-.61.74a5.94,5.94,0,0,1-.49.52c-.43.07-.6-.21-.74-.54,0-.38.1-.75.16-1.13a1,1,0,0,1,.56-.53A1.05,1.05,0,0,1,89.74,66.3Z"></path><path class="cls-1" d="M58,64.62a2.72,2.72,0,0,0-.09-.56,1.2,1.2,0,0,1,1.59,0,1.12,1.12,0,0,1,.4,1.15.49.49,0,0,1-.72,0H58Z"></path><path class="cls-1" d="M80.42,74.59l.52-.48Z"></path><path class="cls-1" d="M88.69,68.16l.49-.52a1.23,1.23,0,0,1,.16.49Z"></path><path class="cls-1" d="M73.16,84c0-2.19-.44-4.08,2.61-4s2.39,2.14,2.47,3.86.37,3.75-2.64,3.71S73.28,85.36,73.16,84Z"></path><path class="cls-1" d="M78.22,94.54c.22,1.86-.2,3-2.43,3-2.06,0-2.75-.77-2.69-2.77.05-1.76.19-3,2.49-3C77.6,91.86,78.54,92.51,78.22,94.54Z"></path><path class="cls-1" d="M76.26,75.24l1.79.64c-.21,1.18.61,2.83-1.69,3-2,.14-3.42-.25-3.65-2.53C73.56,74.88,75.26,76.2,76.26,75.24Z"></path><path class="cls-1" d="M75.71,88.4c1,.22,2.48-.42,2.52,1.22s-1.53,1.13-2.44,1.12-2.47.65-2.51-1.06S74.79,88.65,75.71,88.4Z"></path><path class="cls-1" d="M75.74,100.63c-.82-.23-2.28.44-2.28-1s1.43-.94,2.28-.93,2.25-.44,2.14,1.06C77.8,101,76.52,100.43,75.74,100.63Z"></path><path class="cls-1" d="M68.61,48.7c-.89-2-3.77-3-3-5.86.52.76,1.32,1.44,2.16,1.18,3-.94,2.47,1.25,2.63,2.85l-.06.4C70,48.06,69.63,48.77,68.61,48.7Z"></path><path class="cls-1" d="M72.22,45.81c-.15-3.92,2.64-1.24,4-1.79,1.7,2,.78,4.08.19,6.14a1.77,1.77,0,0,1-.61.69c-1.16.39-1.94,0-2.1-1.22a3.35,3.35,0,0,0-.92-2.35C72.37,46.87,72.39,46.31,72.22,45.81Z"></path><path class="cls-1" d="M75.72,50.44c.06-2.15.8-4.24.5-6.42l.62,0a1,1,0,0,1,1.2.31c1.55,1.74.5,3.36-.22,5C77.4,50.19,76.89,50.93,75.72,50.44Z"></path><path class="cls-1" d="M72.22,45.81l1.08.54c.84.72.35,1.59.28,2.41-.88.9-.91,2.79-2.85,2.5C69.39,50,68.6,48.58,70.33,47l.1-.12A2.76,2.76,0,0,0,72.22,45.81Z"></path><path class="cls-1" d="M77.45,44.6,76.84,44l.9-1.39c.9,2,2.64.11,3.83.8,0,.2,0,.4,0,.59a1.61,1.61,0,0,1-.74,1.35C79.47,46.18,78.51,45.17,77.45,44.6Z"></path><path class="cls-1" d="M92.77,67l-2.38-1.22a1,1,0,0,1-.17-.72c.17-.57.69-1,.76-1.61s-.35-1.48-.15-2.25c.63-1,1.07-2.25,2.66-1.86a1.2,1.2,0,0,1-.11,1.33c.44.85,1.16.8,2,.67,1.16-.18,1.45.59,1.55,1.53l-.52,0C94.58,63.75,93.86,65.53,92.77,67Z"></path><path class="cls-1" d="M93.38,60.66l-.12-1.39c-1.45.39-2.77,1.71-4.42.56A1.75,1.75,0,0,1,88.32,58c1-1.37,2.39-1.49,3.91-1.09.24.29.42.75.71.82.88.22,2.28-.67,2.61.53C95.94,59.73,94.2,59.92,93.38,60.66Z"></path><path class="cls-1" d="M92.23,56.93a6.1,6.1,0,0,1-3.58,1.23c-.89.16-1.17-.43-1.38-1.11A2.25,2.25,0,0,1,88,54.8a2.55,2.55,0,0,1,.87-.44,3.09,3.09,0,0,1,2.67.8l1.2,1.21Z"></path><path class="cls-1" d="M79.78,67c-1-.38-1.54-1.62-2.83-1.2a2.53,2.53,0,0,1-.86-.62l-.62-.43a10.5,10.5,0,0,1-1-.66,1.8,1.8,0,0,1-.44-.72,1.69,1.69,0,0,1,.11-.89c1.1-1,1.37-3,3.44-2.79,1.13.17,2.36,0,3.27.92a2.88,2.88,0,0,1,.75,1.84C82,64.31,82.19,66.17,79.78,67Z"></path><path class="cls-1" d="M79.78,67c.27-1.36,1.38-2.59.61-4.1,2-1.34,2.32-1.17,3,1.78a2.75,2.75,0,0,1,1.73,3c-1.22-.07-2.49-.45-3.52.59a.35.35,0,0,1-.6-.05Z"></path><path class="cls-1" d="M76.86,64.62,77,65.76l-.21.56-1.15-.52a1,1,0,0,1-.18-.84C75.77,64.33,76.24,64.15,76.86,64.62Z"></path><path class="cls-1" d="M81,68.13l.6.05c.19.36.37.73.56,1.1A1.53,1.53,0,0,1,81,68.13Z"></path><path class="cls-1" d="M83.74,70.55c.23-.29.46-.77.75,0Z"></path><path class="cls-1" d="M56.9,59.36c-.45-.79-.09-1.59-.06-2.39-.16-1.44,1.06-.91,1.71-1.2a17.24,17.24,0,0,1,1.82.79c.24.09.47.19.7.3a3.46,3.46,0,0,1,.6.47,9.11,9.11,0,0,1,.72.92A4.59,4.59,0,0,1,63,59.32,1.47,1.47,0,0,1,62.8,61C60.16,62.16,58.82,61.79,56.9,59.36Z"></path><path class="cls-1" d="M56.23,52.31c3.32,1.19-.5-2,1.16-1.87,1.21,1.39,2,3.29,4.17,3.5a1.93,1.93,0,0,1-.28,1.12,5.32,5.32,0,0,1-1.73.83,2,2,0,0,1-.74,0c-.47-.13-1,.2-1.42-.17Z"></path><path class="cls-1" d="M56.9,59.36c1.86.74,3.67,1.75,5.79,1.15l.3.31A1.25,1.25,0,0,1,62.88,62a1.68,1.68,0,0,1-1.11.5l-.81,0a7.18,7.18,0,0,1-2.34-.35L57.87,62c-.25-.06-.5-.12-.74-.2a2.38,2.38,0,0,1-.81-.8Z"></path><path class="cls-1" d="M55.06,63.44l-1.81.61c-.32-2.42.94-2.87,3-2.38a.87.87,0,0,1,.24.66,1.21,1.21,0,0,1-.76.74A3.35,3.35,0,0,0,55.06,63.44Z"></path><path class="cls-1" d="M57.39,55.76l1.3-.5c.51.26.92.6.8,1.27-.18.4-.41.71-.91.4a1.2,1.2,0,0,0-1.74,0L55.1,55.89C56,55,56.68,55.83,57.39,55.76Z"></path><path class="cls-1" d="M56.23,62.18c0-.17,0-.34,0-.51s.07-.42.11-.63l1.08.09a.36.36,0,0,0,.59,0h.61a1.13,1.13,0,0,1,.23,1.2,1.66,1.66,0,0,1-.68.52C57.42,62.86,56.67,63,56.23,62.18Z"></path><path class="cls-1" d="M63.88,48.14l1.17,1.76c.28.82,1.3,1,1.6,1.8a5.8,5.8,0,0,1,.67,2.06,3.27,3.27,0,0,1,.13,1.83,1.82,1.82,0,0,1-2,1.08,2.64,2.64,0,0,1-2-1c-.06-.14-.12-.29-.17-.43.23-2.51-3.09-3.16-3-5.63a4.64,4.64,0,0,0-.21-1C61.54,49,62.87,49.42,63.88,48.14Z"></path><path class="cls-1" d="M60.91,54.63l.65-.69,1.21,1.16a1.19,1.19,0,0,1-.28.74,1.27,1.27,0,0,1-.74.27C61,55.87,60.53,55.5,60.91,54.63Z"></path><path class="cls-1" d="M62.16,55.74c.21-.21.41-.42.61-.64a3.23,3.23,0,0,0,.51.14l0,0a.79.79,0,0,1,.31.7C63,56.89,62.54,56.56,62.16,55.74Z"></path><path class="cls-1" d="M65.78,52.17c-1.31-.41-1.37-1.23-.73-2.27.84-2.43,2.47-.09,3.63-.6,1.41.23,1.35,1.2,1.15,2.25a1.6,1.6,0,0,1-1,.87C67.75,52.72,66.79,52.12,65.78,52.17Z"></path><path class="cls-1" d="M69.19,51.67a4.07,4.07,0,0,0-.51-2.37c0-.2-.05-.4-.07-.6A2.73,2.73,0,0,1,70.33,47c-.73,1.51.92,2.69.57,4.15a1.2,1.2,0,0,1-.52,1.37,1.08,1.08,0,0,1-1.12-.13.59.59,0,0,1-.16-.46C69.12,51.75,69.15,51.67,69.19,51.67Z"></path><path class="cls-1" d="M74.55,66.37l-1.16,0a1.78,1.78,0,0,1-1.22-.34,1.51,1.51,0,0,1-.43-1.21,1.38,1.38,0,0,1,.46-.74,2.28,2.28,0,0,1,1.28-.29c.72.11,1.47.18,1.78,1C75.28,65.46,74.79,65.86,74.55,66.37Z"></path><path class="cls-1" d="M72.7,69.31l-1.14-1.1c.27-.3.14-.7.25-1a.73.73,0,0,1,.6-.35l.29.22Z"></path><path class="cls-1" d="M74.55,66.37l.37-1.24a.4.4,0,0,1,.65.12,5.15,5.15,0,0,1,0,.55Z"></path><path class="cls-1" d="M72.77,65.75l.62.64L72.7,67l0-.07c-.27-.23-.69-.27-.83-.66a.92.92,0,0,1,.19-.68A.63.63,0,0,1,72.77,65.75Z"></path><path class="cls-1" d="M66.27,67c-1.7-.24-2-1.94-3-2.91-.08-.12-.15-.24-.23-.35a1.35,1.35,0,0,1,.19-.81A5.58,5.58,0,0,1,65,61.59a1.87,1.87,0,0,1,.88,0,3.1,3.1,0,0,1,1.06.8c.65,1.19,3.73.72,2.29,3.35C68.6,67.1,67.4,66.94,66.27,67Z"></path><path class="cls-1" d="M69.2,65.78c-.14-1.84-2.54-1.46-3-3a1.32,1.32,0,0,1,1.09-1.68c1.81-.26,2.78,1.72,4.5,1.7a1.51,1.51,0,0,1,.61.64,1.31,1.31,0,0,1-.3,1.26l0,0a7.22,7.22,0,0,0-.64.82,1.18,1.18,0,0,1-.59.35Z"></path><path class="cls-1" d="M71,65.81a3.85,3.85,0,0,0,0-.48c.7-.6.86.09,1.14.48a3.43,3.43,0,0,0,.08.56q.25.22.15.42c-.06.13-.12.2-.18.2l-.57,1.22C70.68,67.58,69.67,67,71,65.81Z"></path><path class="cls-1" d="M70.6,68.41c0,.06,0,.17,0,.19a.29.29,0,0,1-.25.05c-.28-.12-.27-.25,0-.32C70.42,68.31,70.51,68.38,70.6,68.41Z"></path><path class="cls-1" d="M89.28,55.18l-.6,0a6.8,6.8,0,0,0-2.75.48c-2.35,1-3.23.45-4-2.18.21-.93,1.23-1.7.55-2.8-.65-.72-1.94-.76-2.13-2,.19-1.39,0-2.84.61-4.16l.6-.57c1.12.11,1.92-.76,2.92-1,.54.69-.26,1.87,1.06,2.3.79-.66.5-2.29,1.91-2.52a5.47,5.47,0,0,0,.19,1.42,16.78,16.78,0,0,1,.24,2.32c1.6-1,2.75,2.06,4.28.41-1,1.68-2.59,3.3-.61,5.32C92.26,54.35,90.29,54.39,89.28,55.18Z"></path><path class="cls-1" d="M89.28,55.18c.41-1.26,1.59-1.91,2.29-2.94l1.19-1.3c1.29,1.88-.34,2.94-1.19,4.22A3.81,3.81,0,0,1,89.28,55.18Z"></path><path class="cls-1" d="M59.16,65.22l.51,0c.89-.26,1.79-1.2,2.64.06.09.42.17.84-.29,1.12l-1.12.12C60.08,66.39,59.38,66.14,59.16,65.22Z"></path><path class="cls-1" d="M62,66.36l0-1.2c-.44-.37-1.62-.2-1-1.35a1.56,1.56,0,0,1,.8-.29c.6.12,1.15.28.92,1.1Z"></path><path class="cls-1" d="M62.71,64.62,61.56,64c.22-1.4.95-1,1.74-.51v.54Z"></path><path class="cls-1" d="M83.36,64.64c-.77-1-1.24-2.42-3-1.78l0-1.72a1.46,1.46,0,0,1,1.1-1.34c1.7.32,3.29-.95,5-.35A2.94,2.94,0,0,1,88,61.16a2.84,2.84,0,0,1,.18,1.77,1.93,1.93,0,0,1-.46.73,1.53,1.53,0,0,1-.81.21,1.86,1.86,0,0,1-.73-.43C85.12,63.51,83.93,63.35,83.36,64.64Z"></path><path class="cls-1" d="M88.62,66.37a4.7,4.7,0,0,0-.51.12l-.62-1.76a.87.87,0,0,1,1.26-.07A1.23,1.23,0,0,1,88.62,66.37Z"></path><path class="cls-1" d="M88.66,64.79l-1.17-.06a2,2,0,0,1-1.28-1.29l.78.08c.56.27,1.33-.21,1.74.53A.84.84,0,0,1,88.66,64.79Z"></path><path class="cls-1" d="M63.3,63.52a2.34,2.34,0,0,0-1.74.51l-.69,0c-.36.64-1,.4-1.56.55l-1.42-.56-.45-.59a1.47,1.47,0,0,1,1.09-.64,5.41,5.41,0,0,1,3-.55,2.62,2.62,0,0,1,1.71.34.58.58,0,0,1,0,.8Z"></path><path class="cls-1" d="M58.33,63.34l-.89.13h-.6a2.61,2.61,0,0,1-1.78-.59l1.17-.69,2.36.08C58.82,62.7,59,63.13,58.33,63.34Z"></path><path class="cls-1" d="M55.06,62.87l1.78.59a1.6,1.6,0,0,1-1.78,0A1.82,1.82,0,0,1,55.06,62.87Z"></path><path class="cls-1" d="M88.62,66.37c0-.53,0-1.06,0-1.59a1.81,1.81,0,0,0-.09-.31,1.42,1.42,0,0,1,.58-.42l.37,0a1.59,1.59,0,0,1,.66.27,1.47,1.47,0,0,1,.34.64v.37c0,.16-.08.32-.13.48l-.65.53Z"></path><path class="cls-1" d="M59.31,64.62a1.71,1.71,0,0,1,1.56-.55L62,65.16c-.78.19-1.55.62-2.33,0Z"></path><path class="cls-1" d="M75.72,50.44a2.61,2.61,0,0,0,1.17-1.67c1-.32,1.48.34,1.9,1.07.39,1.07-.49,1.9-.54,2.89-1.16,3.15-2,3.45-5.67,2a2.68,2.68,0,0,1-1.17-1.55c-.06-1.3.94-2.15,1.4-3.22,1.06-1.16,1.36,1.07,2.29.51Z"></path><path class="cls-1" d="M75.1,50.48c-.14.36-.25,1-.42,1-1.1.12-.79-1.15-1.4-1.56-.91,0-1-.52-.59-1.2.2-.79.4-1.58.61-2.38C75.9,46.85,73.83,49.4,75.1,50.48Z"></path><path class="cls-1" d="M78,49.89l-1.13-1.12a5,5,0,0,0,.56-4.17l3.53,0a4.32,4.32,0,0,1,.08,4.21,1.43,1.43,0,0,0-.9.46C79.58,49.89,79,50.57,78,49.89Z"></path><path class="cls-1" d="M72.69,48.73c.19.4.39.8.59,1.2a3.88,3.88,0,0,1-1.17,2.76c-.59.73-1.11.38-1.63-.09l-.14-.37.56-1.09a3.7,3.7,0,0,0,.66-2.09C71.66,48.1,72.17,48.33,72.69,48.73Z"></path><path class="cls-1" d="M89.27,59.39c1.34.34,2.63-1.07,4-.12-.59.8-1.17,1.61-1.75,2.41-1.33.94-2.59,1.41-3.47-.54A1.42,1.42,0,0,1,89.27,59.39Z"></path><path class="cls-1" d="M88.66,61.15l2.85.53c.37.27.76.52,1.12.81s1.3.25,1,1c-.19.57-.94.43-1.48.52l-.37.09a1.85,1.85,0,0,1-1.14,0c-.87-.54-2-.44-2.77-1.3a2.19,2.19,0,0,1-.18-1.16A.89.89,0,0,1,88,61,.5.5,0,0,1,88.66,61.15Z"></path><path class="cls-1" d="M92.19,64a1.92,1.92,0,0,1-1.67,1.26l-.17-.12c-.15-.16-.31-.33-.48-.48l-.14-.2-.06-.39a1.08,1.08,0,0,1,.61-.48,4.2,4.2,0,0,1,1.91.39Z"></path><path class="cls-1" d="M88.66,61.15h-.58c-.9.55-1.37-.13-1.89-.67-1.53.21-3.07.91-4.6,0a2.18,2.18,0,0,1,0-2.56,7.75,7.75,0,0,1,4.22-2A1.78,1.78,0,0,1,88,57l.62,1.19c.2.41.41.82.62,1.23C89.06,60,88.86,60.56,88.66,61.15Z"></path><path class="cls-1" d="M88,57c-2.14-.52-3.86,1.05-5.87,1.18a.84.84,0,0,1-1,0c-1.74-1.95-1.29-3.58.74-5a1,1,0,0,1,.91.31c.55,1.44,1.42,1.69,2.64.74,1.48-1.13,2.46-.51,3.18.94C88.46,55.79,88.24,56.38,88,57Z"></path><path class="cls-1" d="M72.77,54.05c1.8,0,3.83.64,4.67-1.82a1.81,1.81,0,0,1,2.26.34,2.5,2.5,0,0,1,.37.91,7.53,7.53,0,0,1,0,3.17c-1.18,1.11,0,3.81-2.67,3.86-1,.68-1.44,2-2.77,2.32a2,2,0,0,0-1.93.57,1.93,1.93,0,0,1-.68.15l-.53-.08c-2-1.47-1.35-2.85.11-4.21,0-.1.08-.2.11-.31s.07-.43.09-.66c.13-.86-.53-1.58-.42-2.44A2.62,2.62,0,0,1,72.77,54.05Z"></path><path class="cls-1" d="M77.4,60.51a1.4,1.4,0,0,0,.27-1.58c-1.11-1.88.55-1.65,1.47-2,1-.15,1.67.57,2.37,1.15l.65,0-.57,2.3-1.22.69A5.32,5.32,0,0,1,77.4,60.51Z"></path><path class="cls-1" d="M72.13,62.87c.82-1,1.65-1.49,2.5,0-.06.22-.13.43-.19.64l-.23.3a1.41,1.41,0,0,1-.72.22,1.68,1.68,0,0,1-.73-.19C72.47,63.55,72.41,63.14,72.13,62.87Z"></path><path class="cls-1" d="M75.57,65.25l-.65-.11-1.62-.52a.59.59,0,0,1,.07-.69c.33-.2.75-.16,1-.42l0,0,.63,0c.48.55,1.29,0,1.77.57l0,.6Z"></path><path class="cls-1" d="M76.84,64l-1.77-.57Z"></path><path class="cls-1" d="M62.16,55.74a1,1,0,0,0,1.15,0c.74-.24,1,.3,1.18.8a1.67,1.67,0,0,1-.07.8,12.1,12.1,0,0,1-1,1.3,1.57,1.57,0,0,1-.66.38c-.56,0-.93-.35-1.38-.57a.61.61,0,0,1-.52-.43c0-.16,0-.32,0-.48a2.15,2.15,0,0,0-.14-.26.85.85,0,0,1-.25-.54c0-.1,0-.2.05-.3A1.16,1.16,0,0,1,61,56a3.48,3.48,0,0,1,.91-.1Z"></path><path class="cls-1" d="M58.58,56.93l.6-.56a.76.76,0,0,1,.66-.19,1.42,1.42,0,0,1,.58.42l.15.33a.51.51,0,0,1-.23.61Z"></path><path class="cls-1" d="M62.69,60.51l-.62-1c-.06-.42.21-.6.54-.74l.22-.09a.6.6,0,0,1,.77.28c.2.8.33,1.55-.89,1.53Z"></path><path class="cls-1" d="M62.61,58.76l-.54.74-.56-.72c-.47-.14-.48-.31,0-.52Z"></path><path class="cls-1" d="M61.47,58.26c0,.17,0,.34,0,.52-.35-.12-1,0-.61-.73Z"></path><path class="cls-1" d="M60.34,57.54V57A.4.4,0,0,1,61,57l0,0a.43.43,0,0,1,.14.43c0,.14-.1.21-.14.21h0Z"></path><path class="cls-1" d="M61.9,55.91l-.91.42-.3,0a2.25,2.25,0,0,1-.58-.08A3.3,3.3,0,0,1,59.6,56a1.43,1.43,0,0,1-.44-.76,2.42,2.42,0,0,1,1.75-.57Z"></path><path class="cls-1" d="M59.16,55.2l.61.48a.48.48,0,0,1,.22.53l-.25.19-.56,0c-.17-.37-.33-.74-.49-1.12Z"></path><path class="cls-1" d="M62.71,60.48l.56-1.68a.69.69,0,0,1,.87,0,2.93,2.93,0,0,1,.33,3.11,1.51,1.51,0,0,1-.63.67c-.57,0-1.36.21-1.14-.87Z"></path><path class="cls-1" d="M58.33,63.34c.08-.36.17-.72.26-1.08l0,0c.59-.9,1.63,0,2.3-.57l.67,0a.82.82,0,0,1,.11,1.13Z"></path><path class="cls-1" d="M61.63,62.81l-.11-1.13,1.18,0,1.11.66c.23.54,0,.74-.53.67Z"></path><path class="cls-1" d="M60.85,61.72c-.66.62-1.51.49-2.3.57,0-.39,0-.79.05-1.18Z"></path><path class="cls-1" d="M58,61.1l-.59,0Z"></path><path class="cls-1" d="M65.07,55.79l1.76-.59a1.55,1.55,0,0,1,1.29-.69,2.75,2.75,0,0,1,2.35,1.72,2.84,2.84,0,0,1,0,2,2.57,2.57,0,0,1-1.89,1.4c-1.37.24-2.68,1.78-4.13.18-.3-.62-.42-1.33-.78-1.93a1.14,1.14,0,0,1,.18-.76,2.84,2.84,0,0,0,.06-.31C64.32,56.48,64.67,56.1,65.07,55.79Z"></path><path class="cls-1" d="M65.78,52.17a2,2,0,0,1,2.3-.51,1.86,1.86,0,0,1,.48,1.16c-.32,1.28-1.1,1.61-2.28,1.11Z"></path><path class="cls-1" d="M66.28,53.93,68,52.84a.65.65,0,0,1,.76-.11,1.36,1.36,0,0,1,.42,1.14A1.62,1.62,0,0,1,68.07,55l-1.24.17Z"></path><path class="cls-1" d="M65.07,55.79c-.1.65-.4,1.08-1.14,1l-.62-1a2.76,2.76,0,0,1-.06-.57Z"></path><path class="cls-1" d="M68.49,52.9,68,52.84c0-.39,0-.79.07-1.18h1.11c0,.19,0,.38,0,.57l-.1.34A.86.86,0,0,1,68.49,52.9Z"></path><path class="cls-1" d="M69.2,52.24h1.15c.5.63.31,1.06-.38,1.36a1,1,0,0,1-.8-1.3Z"></path><path class="cls-1" d="M72.08,65.81l-1.14-.48,1.24-.69c.2.37.4.74.59,1.11Z"></path><path class="cls-1" d="M73.38,64.26c0,.12,0,.24-.08.36l-1.15,0c0-.37-.08-.75-.13-1.12s.08-.46.11-.68l.59.53a1.3,1.3,0,0,0,.58.36c.18.09.25.19.21.31S73.43,64.26,73.38,64.26Z"></path><path class="cls-1" d="M72.13,67l0-.62.58.6Z"></path><path class="cls-1" d="M64.54,59.44A5.64,5.64,0,0,0,67.83,59c1.53,1.14,1.47,1.48-.46,2.63-.38.38-.75.77-1.12,1.15l-.7-.48c-.34-.38-.84-.6-1-1.11C64.47,60.58,63.78,60,64.54,59.44Z"></path><path class="cls-1" d="M63.28,63l.53-.67.18-.13a.85.85,0,0,1,.56-.25.81.81,0,0,1,.53.33,2.23,2.23,0,0,1-1.79,1.15C63.28,63.28,63.28,63.13,63.28,63Z"></path><path class="cls-1" d="M65.08,62.27l-.56-.07c-.52-.75-.42-1.2.6-1.16a1.19,1.19,0,0,1,.43,1.23Z"></path><path class="cls-1" d="M67.37,61.6c.13-.89,1-1.64.46-2.63l2-.82c1.46-1.52,2.48-.43,3.51.59l.6.53c.35.3.3.51-.14.63-2,.41-2.86,1.52-2.25,3.57A5.36,5.36,0,0,1,67.37,61.6Z"></path><path class="cls-1" d="M80.43,47.54l.63,1.23c.27,0,.59.1.8,0,.75-.38,1-2.06,2.16-1.17,1,.75.24,1.94-.11,2.91-1,1.65-2.08,3.27-4.45,2.12C78.35,50.66,79.53,49.13,80.43,47.54Z"></path><path class="cls-1" d="M79.28,52.28c1.82.12,3.12-1.09,4.63-1.78a3.72,3.72,0,0,1-1,3l-.77-.05c-1,.59-1.89.91-2.85,0l0-.69c-.13-.14-.17-.26-.1-.37S79.23,52.28,79.28,52.28Z"></path><path class="cls-1" d="M88.13,62.9a2.9,2.9,0,0,1,2.88.51c-.26.5-.87.24-1.2.56l-.07,0a.78.78,0,0,1-.53.5l-.64,0L87,63.52l.47-.07c.13-.18.24-.36.35-.54Z"></path><path class="cls-1" d="M86.19,60.49l1.89.67,0,.53c-.16.29-.35.33-.58.09A1.85,1.85,0,0,1,86.19,60.49Z"></path><path class="cls-1" d="M87.47,61.78a2.8,2.8,0,0,1,.58-.09c0,.4,0,.81.08,1.21L88,62.84c-.14.21-.3.25-.5.08Z"></path><path class="cls-1" d="M87.54,62.92l.5-.08c-.19.2-.38.41-.58.61C87.49,63.27,87.51,63.09,87.54,62.92Z"></path><path class="cls-1" d="M89.21,64.52l.53-.5a2.48,2.48,0,0,1,0,.47A2.24,2.24,0,0,1,89.21,64.52Z"></path><path class="cls-1" d="M89.87,64.69l.48.48Z"></path><path class="cls-1" d="M69.74,53.38c.2-.38.4-.77.61-1.15l1.76.46.66,1.36a1.41,1.41,0,0,1-.62,1.77c-.65.81-1.32,1.5-2.37.54L68.07,55l.51-1C68.9,53.69,69.08,53.11,69.74,53.38Z"></path><path class="cls-1" d="M79.28,52.28c0,.17-.06.35-.08.52l-1.76-.57c.19-.78.39-1.56.58-2.34,1.35-.21.26-3,2.41-2.35C80,49.1,80.7,51,79.28,52.28Z"></path><path class="cls-1" d="M89.81,64l1.2-.56,1.18.6Z"></path><path class="cls-1" d="M79.24,53.49l2.85,0a6.76,6.76,0,0,0-.58,4.63A2.5,2.5,0,0,1,79.14,57C79.18,55.8,79.21,54.65,79.24,53.49Z"></path><path class="cls-1" d="M69.78,56.36c.83,0,1.24-1.83,2.37-.54a3.47,3.47,0,0,1,1.14,2.92c-1.3.54-2.4-.05-3.51-.59Z"></path><path class="cls-1" d="M73.75,59.9c0-.21.09-.42.14-.63l.32.59Z"></path><path class="cls-1" d="M74.42,63.51l-1,.75L73.3,64c-.15-.1-.21-.21-.17-.32s.09-.17.14-.17Z"></path><path class="cls-1" d="M73.27,63.51a4.15,4.15,0,0,1,0,.49l-.58-.6A3.57,3.57,0,0,1,73.27,63.51Z"></path><path class="cls-1" d="M63.87,57.11v.47a.79.79,0,0,1,0,1.2l-.59,0-.44-.13A1.57,1.57,0,0,1,63.87,57.11Z"></path><path class="cls-1" d="M61,57h-.63l-.23-.33.17-.35a.56.56,0,0,1,.71,0h0C61,56.54,61,56.75,61,57Z"></path><path class="cls-1" d="M60.93,57.58v-.64a3.15,3.15,0,0,1,.11.44C61,57.44,61,57.51,60.93,57.58Z"></path><path class="cls-1" d="M60.35,56.37l0,.6-.58-.57v0C59.94,56.1,60.14,56.11,60.35,56.37Z"></path><path class="cls-1" d="M60.35,56.37h-.6c0-.23,0-.47,0-.7a2.72,2.72,0,0,1,.54.15c.18.11.25.23.2.35s-.11.2-.17.2Z"></path><path class="cls-1" d="M60.34,56.38a4.93,4.93,0,0,0,0-.55l.66.49Z"></path><path class="cls-1" d="M63.86,58.78c0-.4,0-.8,0-1.2.23.62.45,1.24.67,1.86s.39,1.06.58,1.6l-.6,1.16h-.26l-.27,0C64,61.06,63.91,59.92,63.86,58.78Z"></path><path class="cls-1" d="M69.74,53.38,68.58,54l-.09-1.13.68-.61Z"></path><circle cx="92.19" cy="17.47" r="1.2"></circle><circle cx="97" cy="29.98" r="1.2"></circle><circle cx="74.87" cy="13.62" r="1.2"></circle><text class="cls-2" transform="translate(24.73 99.84) rotate(49.83) scale(1.03 1)">K</text><text class="cls-2" transform="translate(28.28 104.04) rotate(47.44) scale(1.03 1)">a</text><text class="cls-2" transform="matrix(0.73, 0.73, -0.71, 0.71, 31.69, 107.75)">d</text><text class="cls-2" transform="matrix(0.76, 0.69, -0.67, 0.74, 35.43, 111.48)">a</text><text class="cls-2" transform="translate(39.18 114.96) rotate(38.49) scale(1.03 1)">m</text><text class="cls-2" transform="translate(45.62 119.98) rotate(34.57) scale(1.03 1)">t</text><text class="cls-2" transform="matrix(0.88, 0.53, -0.52, 0.85, 48.68, 122.11)">a</text><text class="cls-2" transform="translate(53.04 124.72) rotate(28.11) scale(1.03 1)">l</text><text class="cls-2" transform="translate(55.39 126.01) rotate(24.61) scale(1.03 1)">a</text><text class="cls-2" transform="matrix(0.96, 0.37, -0.36, 0.93, 60.04, 128.09)"> </text><text class="cls-2" transform="translate(62.45 129.03) rotate(16.89) scale(1.03 1)">S</text><text class="cls-2" transform="translate(67.04 130.4) rotate(11.44) scale(1.03 1)">c</text><text class="cls-2" transform="matrix(1.02, 0.09, -0.08, 1, 71.52, 131.32)">h</text><text class="cls-2" transform="matrix(1.03, -0.05, 0.05, 1, 77.28, 131.78)">o</text><text class="cls-2" transform="matrix(1.01, -0.18, 0.18, 0.98, 82.76, 131.48)">o</text><text class="cls-2" transform="translate(87.98 130.46) rotate(-15.67) scale(1.03 1)">l</text><text class="cls-2" transform="translate(90.57 129.72) rotate(-19.04) scale(1.03 1)"> </text><text class="cls-2" transform="matrix(0.94, -0.41, 0.4, 0.92, 93.05, 128.91)">a</text><text class="cls-2" transform="matrix(0.89, -0.51, 0.5, 0.87, 97.87, 126.77)">n</text><text class="cls-2" transform="translate(102.73 123.95) rotate(-35.27) scale(1.03 1)">d</text><text class="cls-2" transform="translate(107.05 120.83) rotate(-38.67) scale(1.03 1)"> </text><text class="cls-2" transform="matrix(0.77, -0.68, 0.67, 0.75, 109.05, 119.27)">C</text><text class="cls-2" transform="translate(113.04 115.69) rotate(-45.38) scale(1.03 1)">o</text><text class="cls-2" transform="matrix(0.69, -0.76, 0.74, 0.67, 116.63, 112.01)">l</text><text class="cls-2" transform="translate(118.35 110.12) rotate(-49.16) scale(1.03 1)">l</text><text class="cls-2" transform="matrix(0.65, -0.8, 0.78, 0.63, 120.07, 108.16)">e</text><text class="cls-2" transform="matrix(0.61, -0.82, 0.8, 0.6, 123.14, 104.33)">g</text><text class="cls-2" transform="translate(125.93 100.59) rotate(-55.32) scale(1.03 1)">e</text></svg>