<svg xmlns="http://www.w3.org/2000/svg" id="Layer_1" data-name="Layer 1" viewBox="0 0 150 113"><defs><style>.cls-1{font-size:27.4px;font-family:ShorifAdorUnicode, Shorif Ador Unicode;}.cls-2{fill:none;stroke:#000;stroke-miterlimit:10;stroke-width:2px;}</style></defs><title>Logo</title><text class="cls-1" transform="translate(18.79 95.43)">DIVISION</text><path d="M42.45,72.61H18.94V66.39l6.32-2.91V30.18l-6.32-2.91V21H42.45v6.23l-6.32,2.91v33.3l6.32,2.91Z"></path><path d="M73.09,29.51a11.17,11.17,0,0,0-9.59,4.61Q60.13,38.74,60.13,47q0,17.26,13,17.27a40.44,40.44,0,0,0,13.12-2.74v9.22a36.87,36.87,0,0,1-14.12,2.66q-11.37,0-17.27-6.81T48.92,47a34.67,34.67,0,0,1,1.66-11A23.76,23.76,0,0,1,55.4,27.6,21.15,21.15,0,0,1,63,22.25a25.71,25.71,0,0,1,10.09-1.87A35.25,35.25,0,0,1,88.2,24l-3.57,8.89c-1.94-.89-3.87-1.68-5.81-2.37A17,17,0,0,0,73.09,29.51Z"></path><path d="M117.1,72.61h-11V30.18h-14V21h39v9.14h-14Z"></path><rect class="cls-2" x="3" y="12.5" width="144" height="90"></rect></svg>