<svg xmlns="http://www.w3.org/2000/svg" id="Layer_1" data-name="Layer 1" viewBox="0 0 150 150"><defs><style>.cls-1{fill:#fff;}</style></defs><title>Interect Club-07-07-07</title><path class="cls-1" d="M139,72.44v5.12c-.05.23-.12.45-.15.68-.34,2.84-.52,5.71-1,8.51a62.27,62.27,0,0,1-14,29.45,64,64,0,0,1-18.55,15.13,62.32,62.32,0,0,1-24.54,7.37l-3.45.3H72.44a6,6,0,0,0-.83-.14A59.61,59.61,0,0,1,59,137a63,63,0,0,1-25.23-13.13,64.1,64.1,0,0,1-15-18.41A62.85,62.85,0,0,1,11.3,80.52L11,77V72.72a3.33,3.33,0,0,0,.1-.55c.23-2.33.33-4.67.69-7a61.57,61.57,0,0,1,6.56-19.84,63.92,63.92,0,0,1,30.06-28.5,61.26,61.26,0,0,1,21-5.56L72.72,11h4.56c.37.05.74.12,1.11.14a59.54,59.54,0,0,1,12.8,2,64.44,64.44,0,0,1,41.92,35.16,62.52,62.52,0,0,1,5.59,21C138.79,70.33,138.9,71.38,139,72.44Zm-8.52-18.83A59.5,59.5,0,0,0,68.86,15.82,58,58,0,0,0,34.63,31.36,58.75,58.75,0,0,0,19.54,53.44L32.71,58c.13-.1.16-.11.16-.13s.14-.3.2-.45A45.45,45.45,0,0,1,53.71,34.86a44.32,44.32,0,0,1,26.08-5.08A43.36,43.36,0,0,1,95,34.2,45.51,45.51,0,0,1,117,57.58c.23.53.46.58,1,.4,2.21-.79,4.43-1.54,6.64-2.31ZM80.66,75c0,.85,0,1.71,0,2.56,0,.5.17.7.63.85a17.52,17.52,0,0,1,2.19.82,20.75,20.75,0,0,1,11.44,13,1,1,0,0,0,.64.6,16.59,16.59,0,0,0,5.58,0c8.82-1.46,14.71-9.25,15-16.29.14-4.09-.47-7.9-2.82-11.28-4.28-6.18-10.19-8.87-17.68-8a1,1,0,0,0-.66.58c-.42,1-.71,2-1.17,3a20.6,20.6,0,0,1-12.5,10.87c-.44.14-.61.33-.6.79C80.69,73.27,80.66,74.13,80.66,75ZM69.34,75c0-.83,0-1.67,0-2.49,0-.55-.17-.78-.69-.94A20,20,0,0,1,61,67.19a20.91,20.91,0,0,1-6-9.36,1,1,0,0,0-.62-.6,16.18,16.18,0,0,0-5.51,0,18,18,0,0,0-14.9,20.45A17.22,17.22,0,0,0,41.91,90a17.53,17.53,0,0,0,12.52,2.82c.46-.06.55-.32.69-.67A38.38,38.38,0,0,1,56.92,88,20.27,20.27,0,0,1,68.69,78.4c.49-.16.69-.37.66-.9C69.31,76.68,69.34,75.85,69.34,75ZM42.48,106.81a45.3,45.3,0,0,1-10.8-45.7L18.42,56.5a59.28,59.28,0,0,0,14.33,60.28C36,113.43,39.23,110.13,42.48,106.81Zm75.1,9.57a5.42,5.42,0,0,0,.47-.42c1.16-1.32,2.37-2.59,3.45-4a59.38,59.38,0,0,0,10.36-54.65c-.17-.53-.36-.65-.9-.45-3.05,1.08-6.11,2.13-9.17,3.19l-3.34,1.16c4.7,17,1.24,32-10.47,45.2ZM35.15,119c22.09,20.85,58.31,20.57,80.06-.36l-9.6-10a45.64,45.64,0,0,1-60.77.39ZM80.7,63.67c.54-.71,1-1.28,1.4-1.82A20.78,20.78,0,0,1,92,55.16a1,1,0,0,0,.83-.94,17.52,17.52,0,0,0,0-5A18,18,0,1,0,57.2,54.39a.78.78,0,0,0,.62.73,20.74,20.74,0,0,1,11.06,8c.1.14.23.25.41.45V49.36H63.71V41.65H86.3v7.74H80.7ZM69.3,86.46a1.19,1.19,0,0,0-.23.16l-.17.22A20.63,20.63,0,0,1,57.78,94.9c-.46.14-.54.45-.59.84a16.83,16.83,0,0,0,1.33,9.58c3,6.31,7.85,10.08,14.91,10.68a17.67,17.67,0,0,0,8.1-1A18.06,18.06,0,0,0,92.84,95.66a.8.8,0,0,0-.65-.76A20.52,20.52,0,0,1,81.1,86.82a2.11,2.11,0,0,1-.19-.46l-.2.19V99.26h5.6v9.09H63.69V99.23H69.3Zm-8.24-50.2A40.69,40.69,0,0,0,36.51,60.81a21.22,21.22,0,0,1,17.83-6.46,21.7,21.7,0,0,1,1.2-9.85A22.54,22.54,0,0,1,61.06,36.26Zm34.6,18.09a21.22,21.22,0,0,1,17.84,6.47,40.56,40.56,0,0,0-11.33-16.73,39,39,0,0,0-13.26-7.84A21.16,21.16,0,0,1,95.66,54.35Zm-6.33,59A39.83,39.83,0,0,0,104,104c4-4,9.34-12.46,9.28-14.69a20.92,20.92,0,0,1-17.66,6.38A21.17,21.17,0,0,1,89.33,113.38Zm-35-17.73a21,21,0,0,1-17.81-6.51,40.31,40.31,0,0,0,11.79,17,39,39,0,0,0,12.35,7.19,22.47,22.47,0,0,1-5.22-8A21.61,21.61,0,0,1,54.35,95.65ZM68.49,81.52c-3.73.83-9.63,6.77-10.08,10.1C61.74,91.13,67.9,85,68.49,81.52ZM91.74,91.78c-1.13-4.1-7.33-10.22-10.27-10.19A18.21,18.21,0,0,0,91.74,91.78Zm-.08-33.41A17.17,17.17,0,0,0,81.58,68.43,17.17,17.17,0,0,0,91.66,58.37Zm-33.32-.13c.87,3.86,7.49,10.37,10.22,10.13A18.26,18.26,0,0,0,58.34,58.24Z"></path><path class="cls-1" d="M83.07,24.18l2.39,4.28c-1.18-.2-2.24-.37-3.28-.6-.17,0-.32-.32-.41-.51-.45-.89-.86-1.8-1.32-2.68a.83.83,0,0,0-.53-.45c-1.43-.1-2.87-.15-4.43-.22,0,.93,0,1.8,0,2.66,0,.52-.09.76-.65.7a8.42,8.42,0,0,0-1.42,0c-.5,0-.66-.16-.67-.65,0-2.08-.12-4.16-.17-6.24,0-1.08,0-2.17,0-3.27,2,0,4.07-.09,6.11,0a23.07,23.07,0,0,1,4.53.69,3,3,0,0,1,2.43,2.87,2.65,2.65,0,0,1-.86,2.1A19.45,19.45,0,0,1,83.07,24.18Zm-7.51-2.43c1.06.07,2.09.16,3.13.2s2.07.06,3.11,0a1,1,0,0,0,.93-.9,1,1,0,0,0-.66-1.14,3.09,3.09,0,0,0-.88-.27c-1.13-.12-2.26-.22-3.39-.29-.74,0-1.49,0-2.24,0Z"></path><path class="cls-1" d="M59.55,21.67l.57,1.88c1.24-.31,2.43-.65,3.64-.91,1.36-.3,2.74-.53,4.11-.79.43-.08.69,0,.69.52s.07.75.11,1.1l-8,1.8.58,1.95c1.31-.33,2.56-.69,3.82-1s2.55-.45,3.77-.66c.1.14.15.17.15.21.28,1.94.26,1.86-1.64,2.26-2.7.57-5.36,1.28-8.16,2L55.67,20.6a52.63,52.63,0,0,1,12.22-3c0,.07.08.11.08.15.31,2,.3,1.94-1.74,2.33S62,21,60,21.5A4.17,4.17,0,0,0,59.55,21.67Z"></path><path class="cls-1" d="M37.25,46.67,29,40.54c.7-.88,1.35-1.75,2.07-2.57a1,1,0,0,1,.76-.16c2.83.28,5.65.59,8.47.9a3.24,3.24,0,0,0,.37-.08L35.4,33.17l2.27-2.09,6.55,7.69c-.85.94-1.64,1.86-2.51,2.72-.18.18-.62.17-.92.14-2.12-.25-4.23-.53-6.34-.79-.14,0-.27,0-.58,0l4.89,3.83Z"></path><path class="cls-1" d="M110.51,39.36c-.58.61-1,1.11-1.51,1.55a.62.62,0,0,1-.62,0c-1.63-1.4-3.29-2.78-4.84-4.27a4.69,4.69,0,0,1-.61-6.38,4.86,4.86,0,0,1,5.9-2.13,9.6,9.6,0,0,1,2.29,1.52c1.5,1.26,2.95,2.59,4.41,3.9.14.12.26.27.44.46l-1.64,1.41c-1.27-1.12-2.63-2.35-4-3.56a4.79,4.79,0,0,0-2.53-1.47A2.68,2.68,0,0,0,105,32a2.51,2.51,0,0,0,.58,3c1.53,1.41,3.08,2.8,4.63,4.2A1.46,1.46,0,0,0,110.51,39.36Z"></path><path class="cls-1" d="M86.87,28.79c1-.84,1.91-1.62,2.84-2.38,2-1.65,4-3.28,6-4.95a1,1,0,0,1,1.15-.19c2,.75,2,.73,2.06,2.83.11,3,.19,6.11.28,9.16,0,.16,0,.32,0,.58-.9-.48-1.74-.9-2.55-1.37-.13-.07-.18-.36-.19-.55,0-.78,0-1.57,0-2.34a.92.92,0,0,0-.42-.69A31.5,31.5,0,0,0,93,27.61a1.06,1.06,0,0,0-.86.16,19.59,19.59,0,0,0-1.77,1.53.91.91,0,0,1-1.07.23C88.58,29.26,87.8,29.06,86.87,28.79Zm9.49-4.69-2.08,1.82,2.08.9Z"></path><path class="cls-1" d="M48.74,26.18l3.91,7-2.26,1.34L45.93,27.8,42.4,30.22,41,28.46a54.14,54.14,0,0,1,10.61-6.22l1,1.93Z"></path><path class="cls-1" d="M114,47.62l6.48-4.81-2.57-3.39L119.57,38a52.36,52.36,0,0,1,6.8,10.28l-1.9,1-2.19-3.75-6.81,4.27Z"></path><path class="cls-1" d="M24.23,48.13,26,45l8.87,5.31L33.41,52.8Z"></path><path class="cls-1" d="M90.55,119.8l5.33-2.3a12.2,12.2,0,0,0,1.14-.58,3.79,3.79,0,0,1,3.86.13,2.19,2.19,0,0,1,1.1,1.88c0,.4,0,.8,0,1.26a5.47,5.47,0,0,0,.59,0c1.61-.12,2.63,1.74,2.17,3.16a3.21,3.21,0,0,1-1.65,2c-2.94,1.36-5.91,2.64-8.87,4-.4.18-.62.15-.77-.34-.95-3-1.94-6-2.91-9A.74.74,0,0,1,90.55,119.8Zm5.11,6.58c.44-.18.82-.31,1.18-.48,1.48-.69,3-1.38,4.41-2.11a.79.79,0,0,0,.46-1.05,1,1,0,0,0-1.14-.64,3,3,0,0,0-.86.31l-3.12,1.51c-.52.25-1.06.48-1.62.73Zm-1.27-3.24c1.67-.82,3.24-1.56,4.78-2.39a1.09,1.09,0,0,0,.46-1,1.29,1.29,0,0,0-.89-.72,3.28,3.28,0,0,0-1.47.36c-.87.36-1.71.8-2.56,1.2-.36.17-.72.32-1.11.48Z"></path><path class="cls-1" d="M76.16,122.24h2.5c0,.27.09.59.1.91.08,1.8.16,3.6.21,5.39A1.15,1.15,0,0,0,80,129.81a10.17,10.17,0,0,0,5.29-.62,1.16,1.16,0,0,0,.77-1.47c-.38-1.91-.73-3.81-1.08-5.72a6.3,6.3,0,0,1-.06-.72l2.33-.55c.65,2.5,1.35,4.91,1.88,7.35.35,1.65-.15,2.48-1.77,3a21.05,21.05,0,0,1-8.66,1.08,2.6,2.6,0,0,1-2.56-2.91l-.09-6.68A1.69,1.69,0,0,1,76.16,122.24Z"></path><path class="cls-1" d="M59.86,128.2l-.65,2.18c-2.49-.93-5-1.72-7.33-2.76a4.43,4.43,0,0,1-2.58-5,5.44,5.44,0,0,1,4-4.62,4.71,4.71,0,0,1,3,.24c2,.78,3.91,1.52,5.93,2.3l-.7,2.12c-.88-.3-1.73-.57-2.57-.87l-3.33-1.21A2.8,2.8,0,0,0,52.14,122a2.83,2.83,0,0,0,1.48,3.85C55.66,126.66,57.73,127.41,59.86,128.2Z"></path><path class="cls-1" d="M73.15,132.63,63,131.39l2.36-10.16,2.8.5c-.38,2.62-.76,5.2-1.16,7.92,1,.15,2,.31,3,.42s1.7.12,2.55.14c.43,0,.59.18.57.6S73.15,131.84,73.15,132.63Z"></path></svg>