<svg xmlns="http://www.w3.org/2000/svg" id="Layer_1" data-name="Layer 1" viewBox="0 0 150 150"><defs><style>.cls-1{fill:#fff;}</style></defs><title>Scouts</title><path class="cls-1" d="M116.94,55.15a11.66,11.66,0,0,0-12.18-6.69,21.11,21.11,0,0,0-12.87,6.19,29.93,29.93,0,0,0-7.38,12.66c-.36,1.13-.66,2.27-.91,3.42-.08.41,0,.6.48.58,1,0,1.92,0,2.89,0a.77.77,0,0,0,.77-.46,19.53,19.53,0,0,1,2.71-3.57,16,16,0,0,1,8.43-5c3.36-.67,6.59.51,7.51,4.74a19.37,19.37,0,0,1,.13,6.62c0,.42,0,.59.47.55.12,0,.25,0,.38,0a10.49,10.49,0,0,0,7.57-4.24c2.14-2.85,2.84-6.19,3-9.68A11.18,11.18,0,0,0,116.94,55.15ZM66.32,70.73a39.79,39.79,0,0,0-1-3.85c-1.75-5.34-4.44-10.09-8.86-13.67a19.33,19.33,0,0,0-14.64-4.67,11.57,11.57,0,0,0-9.58,9.09,17,17,0,0,0,1.4,9.9,10.63,10.63,0,0,0,9,6.6c.89.11.9.07.8-.81a18.21,18.21,0,0,1,.28-6.78,5.51,5.51,0,0,1,4.94-4.42,8.67,8.67,0,0,1,4.09.56,17.8,17.8,0,0,1,8.81,7.14C62.24,71,63,71.68,64.37,71.3c.5,0,1,0,1.49,0S66.42,71.15,66.32,70.73Zm19.83,25.1a19,19,0,0,1-1.83-2.37A20.55,20.55,0,0,1,80.79,81c0-.44-.24-.33-.46-.33H69.62c-.26,0-.48,0-.47.38a20.94,20.94,0,0,1-5.38,14.78c-.27.31-.19.46,0,.72a38.37,38.37,0,0,0,10.4,8.18,1.39,1.39,0,0,0,1.56,0A38.28,38.28,0,0,0,86.14,96.5C86.36,96.25,86.4,96.09,86.15,95.83ZM66.61,80.62c-.92,0-1.85,0-2.77,0-.37,0-.49.11-.56.48a10.36,10.36,0,0,1-2.19,5,5.79,5.79,0,0,1-2.94,2.08A10.55,10.55,0,0,1,52,87.93a9.68,9.68,0,0,0,4.32,5.92,5.12,5.12,0,0,0,5,0A8.17,8.17,0,0,0,64.41,91,17.52,17.52,0,0,0,67,81C67,80.69,66.92,80.62,66.61,80.62Zm28.72,7.83c-3.64.26-5.82-.73-7.63-4.1a10.23,10.23,0,0,1-1.08-3.24c-.06-.35-.16-.5-.54-.49-.91,0-1.82,0-2.72,0-.39,0-.5.11-.51.5a20.74,20.74,0,0,0,.44,4.45,13.92,13.92,0,0,0,3.3,6.79c2.36,2.51,5.41,2.85,7.94.87A10.89,10.89,0,0,0,98,87.84,7,7,0,0,1,95.33,88.45ZM68.21,73.31a4.53,4.53,0,0,0-2.3,1.25,7.58,7.58,0,0,0-1.81,3A.87.87,0,0,0,65,78.78a3.91,3.91,0,0,0,1.77-.65,6.65,6.65,0,0,0,2.57-3.56C69.61,73.74,69.09,73.14,68.21,73.31Zm11.19,0a4.13,4.13,0,0,0-2,.86,7.06,7.06,0,0,0-2.29,3.39.86.86,0,0,0,1,1.22A4,4,0,0,0,77.92,78a7,7,0,0,0,2.45-3.65C80.56,73.79,80.09,73.28,79.4,73.28Zm5.3,0a4.35,4.35,0,0,0-2.26,1.21,7.46,7.46,0,0,0-1.85,3,.87.87,0,0,0,.85,1.22,4.21,4.21,0,0,0,2-.77,6.92,6.92,0,0,0,2.4-3.44A.9.9,0,0,0,84.7,73.31Zm-10.78,0A4.13,4.13,0,0,0,72,74a7,7,0,0,0-2.42,3.49.87.87,0,0,0,1,1.22A3.87,3.87,0,0,0,72.43,78a7,7,0,0,0,2.41-3.5A.88.88,0,0,0,73.92,73.28Zm15.8.4a3.52,3.52,0,0,0-2.89,3.71c0,1.06.19,1.21,1.2.9a3.62,3.62,0,0,0,2.55-4C90.54,73.68,90.34,73.53,89.72,73.68Zm-27.88.11a3.58,3.58,0,0,0-2.48,3.91c0,.69.24.83.92.67a3.54,3.54,0,0,0,2.82-3.66C63.12,73.6,62.9,73.44,61.84,73.79Z"></path><path class="cls-1" d="M55.79,12.6c-12.58,5.24-22,13.88-27.91,26.22A50.71,50.71,0,0,0,24.25,73,52.09,52.09,0,1,0,94.41,12.74c3.71.18,16.6,7.31,22.5,12.39A65.26,65.26,0,0,1,132.78,45.4a63.73,63.73,0,0,1,6.68,24.89A64.63,64.63,0,1,1,55.79,12.6Z"></path><path class="cls-1" d="M84.8,25.52C81,23.29,77.37,21,74.93,17.08a9.6,9.6,0,0,1-1,1.53,29.61,29.61,0,0,1-9.32,7.12A11,11,0,0,0,62,27.35a16.61,16.61,0,0,0-5.25,15.18,27.62,27.62,0,0,0,4.88,11.71,58.3,58.3,0,0,1,5.46,9.56,17.58,17.58,0,0,1,2,7.21c0,.28.12.3.33.29h11.1c.28,0,.34-.09.33-.35a11.06,11.06,0,0,1,.62-3.65A47.44,47.44,0,0,1,88,54.66a30,30,0,0,0,5.24-12.73C94.14,35.64,90.64,27.78,84.8,25.52ZM74.94,49.21a9.44,9.44,0,1,1,9.44-9.41A9.46,9.46,0,0,1,74.94,49.21Z"></path><path class="cls-1" d="M118,60.22c-.18,3.49-.88,6.83-3,9.68a10.49,10.49,0,0,1-7.57,4.24c-.13,0-.26,0-.38,0-.43,0-.52-.13-.47-.55a19.37,19.37,0,0,0-.13-6.62c-.92-4.23-4.15-5.41-7.51-4.74a16,16,0,0,0-8.43,5,19.53,19.53,0,0,0-2.71,3.57.77.77,0,0,1-.77.46c-1,0-1.93,0-2.89,0-.49,0-.56-.17-.48-.58.25-1.15.55-2.29.91-3.42a29.93,29.93,0,0,1,7.38-12.66,21.11,21.11,0,0,1,12.87-6.19,11.66,11.66,0,0,1,12.18,6.69A11.18,11.18,0,0,1,118,60.22Z"></path><path class="cls-1" d="M64.37,71.3c-1.42.38-2.13-.34-2.89-1.48a17.8,17.8,0,0,0-8.81-7.14,8.67,8.67,0,0,0-4.09-.56,5.51,5.51,0,0,0-4.94,4.42,18.21,18.21,0,0,0-.28,6.78c.1.88.09.92-.8.81a10.63,10.63,0,0,1-9-6.6,17,17,0,0,1-1.4-9.9,11.57,11.57,0,0,1,9.58-9.09,19.33,19.33,0,0,1,14.64,4.67c4.42,3.58,7.11,8.33,8.86,13.67a39.79,39.79,0,0,1,1,3.85c.1.42,0,.62-.46.58S64.87,71.3,64.37,71.3Z"></path><path class="cls-1" d="M75,80.66h5.38c.22,0,.48-.11.46.33a20.55,20.55,0,0,0,3.53,12.47,19,19,0,0,0,1.83,2.37c.25.26.21.42,0,.67a38.28,38.28,0,0,1-10.38,8.22,1.39,1.39,0,0,1-1.56,0,38.37,38.37,0,0,1-10.4-8.18c-.22-.26-.3-.41,0-.72A20.94,20.94,0,0,0,69.15,81c0-.43.21-.38.47-.38Z"></path><path class="cls-1" d="M52,87.93a10.55,10.55,0,0,0,6.14.21,5.79,5.79,0,0,0,2.94-2.08,10.36,10.36,0,0,0,2.19-5c.07-.37.19-.49.56-.48.92,0,1.85,0,2.77,0,.31,0,.43.07.43.4a17.52,17.52,0,0,1-2.63,10,8.17,8.17,0,0,1-3.09,2.89,5.12,5.12,0,0,1-5,0A9.68,9.68,0,0,1,52,87.93Z"></path><path class="cls-1" d="M98,87.84a10.89,10.89,0,0,1-3.45,5.39c-2.53,2-5.58,1.64-7.94-.87a13.92,13.92,0,0,1-3.3-6.79,20.74,20.74,0,0,1-.44-4.45c0-.39.12-.51.51-.5.9,0,1.81,0,2.72,0,.38,0,.48.14.54.49a10.23,10.23,0,0,0,1.08,3.24c1.81,3.37,4,4.36,7.63,4.1A7,7,0,0,0,98,87.84Z"></path><path class="cls-1" d="M65,78.78a.87.87,0,0,1-.87-1.22,7.58,7.58,0,0,1,1.81-3,4.53,4.53,0,0,1,2.3-1.25c.88-.17,1.4.43,1.1,1.26a6.65,6.65,0,0,1-2.57,3.56A3.91,3.91,0,0,1,65,78.78Z"></path><path class="cls-1" d="M79.4,73.28c.69,0,1.16.51,1,1.07A7,7,0,0,1,77.92,78a4,4,0,0,1-1.82.75.86.86,0,0,1-1-1.22,7.06,7.06,0,0,1,2.29-3.39A4.13,4.13,0,0,1,79.4,73.28Z"></path><path class="cls-1" d="M81.44,78.78a.87.87,0,0,1-.85-1.22,7.46,7.46,0,0,1,1.85-3,4.35,4.35,0,0,1,2.26-1.21.9.9,0,0,1,1.1,1.26A6.92,6.92,0,0,1,83.4,78,4.21,4.21,0,0,1,81.44,78.78Z"></path><path class="cls-1" d="M73.92,73.28a.88.88,0,0,1,.92,1.22A7,7,0,0,1,72.43,78a3.87,3.87,0,0,1-1.81.75.87.87,0,0,1-1-1.22A7,7,0,0,1,72,74,4.13,4.13,0,0,1,73.92,73.28Z"></path><path class="cls-1" d="M86.83,77.39a3.52,3.52,0,0,1,2.89-3.71c.62-.15.82,0,.86.63a3.62,3.62,0,0,1-2.55,4C87,78.6,86.82,78.45,86.83,77.39Z"></path><path class="cls-1" d="M63.1,74.71a3.54,3.54,0,0,1-2.82,3.66c-.68.16-.87,0-.92-.67a3.58,3.58,0,0,1,2.48-3.91C62.9,73.44,63.12,73.6,63.1,74.71Z"></path></svg>