<svg xmlns="http://www.w3.org/2000/svg" id="Layer_1" data-name="Layer 1" viewBox="0 0 150 150"><defs><style>.cls-1{fill:#fff;}</style></defs><title>SUCS</title><path class="cls-1" d="M75.15,74.94a12.32,12.32,0,0,1,2.77-1.27c7-2.94,14-5.84,21-8.76,3.54-1.47,7.08-2.93,10.61-4.41.81-.33.84-.52.11-1-1.48-1.08-3-2.15-4.5-3.18-1.2-.81-2.44-1.56-3.66-2.36-.64-.41-.67-.56-.17-1.11a46.74,46.74,0,0,0,3.07-3.53c.32-.41.6-.42,1-.1a63,63,0,0,1,5.73,5,45.16,45.16,0,0,1,7.24,8.94,2.4,2.4,0,0,1,.18.26c.45,1,.76.83-.19,1.84a13.82,13.82,0,0,0,.22,19.08c.61.66.63.73.18,1.52a46.78,46.78,0,0,1-9.74,11.69c-1.08,1-2.23,1.86-3.33,2.82-.4.35-.67.35-1-.06-1-1.21-2.11-2.39-3.17-3.59-.47-.54-.47-.59.16-1,1.91-1.26,3.84-2.48,5.68-3.83.81-.6,1.63-1.17,2.42-1.79s.73-.76-.17-1.15-2.1-.87-3.16-1.29L97,83.76l-14.5-5.85Z"></path><path class="cls-1" d="M74.79,75.27c.65.48.68,1.13.9,1.65,1.57,3.79,3.16,7.59,4.77,11.37s3.24,7.84,4.88,11.76q1.95,4.68,3.93,9.35c.36.86.59.88,1.15.13a84.1,84.1,0,0,0,5.19-7.64c.64-1.1.65-1.08,1.68-.28s2.13,2,3.34,2.81c.4.28.38.56.08,1a56.43,56.43,0,0,1-8.7,9.18,38,38,0,0,1-5.67,4c-.9.5-.88.47-1.68-.21a14.83,14.83,0,0,0-5.94-3.25,15.23,15.23,0,0,0-6.26-.22,12.31,12.31,0,0,0-5.71,2.58,16.58,16.58,0,0,0-1.48,1.3.75.75,0,0,1-1.08.12,36.66,36.66,0,0,1-5.9-4,63.09,63.09,0,0,1-8.7-8.9c-.63-.78-.62-.92.13-1.5a33.82,33.82,0,0,0,3-2.69c.74-.73.92-.69,1.49.15,1.41,2.06,2.8,4.13,4.23,6.17a18.72,18.72,0,0,0,2,2.46C65.32,98.75,70,87,74.79,75.27Z"></path><path class="cls-1" d="M74.54,74.61c.22-.56-.15-1-.34-1.47C72.66,69.4,71.09,65.68,69.52,62s-3.15-7.51-4.73-11.28c-1.25-3-2.48-6-3.75-9a6.34,6.34,0,0,0-1-2.07,3.75,3.75,0,0,0-1.08,1.2c-1.68,2.29-3.25,4.66-4.79,7-.13.2-.26.41-.4.61-.4.56-.43.59-.93.11-1.11-1-2.29-2-3.45-3-.65-.55-.62-.6-.11-1.35a29.3,29.3,0,0,1,2.23-2.74A47.89,47.89,0,0,1,63.7,31.08c.51-.29.81-.32,1.23.13a12.87,12.87,0,0,0,6,3.65,13.6,13.6,0,0,0,5.75.44A14.72,14.72,0,0,0,83,32.79a13.2,13.2,0,0,0,1.63-1.45c.6-.57.47-.66,1.42-.13a33,33,0,0,1,4,2.65A53.24,53.24,0,0,1,96.82,40c1.22,1.32,2.38,2.71,3.5,4.11a.69.69,0,0,1-.13,1.14q-1.81,1.48-3.52,3.09c-.47.44-.68.36-1.13-.3-1.12-1.67-2.21-3.36-3.35-5-.7-1-1.47-2-2.22-3-.49-.64-.74-.6-1,.15q-2.24,5.52-4.46,11Q80.91,60,77.35,68.79q-1,2.53-2.07,5.07c-.14.34-.26.75-.76.74Z"></path><path class="cls-1" d="M74.52,74.6c0,.54-.41.6-.73.73-1.36.6-2.74,1.16-4.11,1.73l-9.2,3.79-11.2,4.63c-3,1.26-6.06,2.51-9.08,3.78a1,1,0,0,0-.65.55A7.2,7.2,0,0,0,41,91c2.43,1.72,4.88,3.42,7.42,5,.61.37.64.45.13,1-1.06,1.11-2.06,2.25-3,3.44-.52.64-.71.62-1.37.11a56.54,56.54,0,0,1-5.73-5,45.28,45.28,0,0,1-7.11-8.91c-.46-.78-.46-1,.18-1.64a12.37,12.37,0,0,0,3.4-5.86,12.81,12.81,0,0,0,.27-6.16,14.27,14.27,0,0,0-4.07-7.55.86.86,0,0,1-.18-1.24,42.67,42.67,0,0,1,4.8-6.76,55.56,55.56,0,0,1,8-7.57c.16-.13.35-.23.5-.37.37-.36.68-.26,1,.11.9,1.23,2,2.31,3,3.45.58.65.56.76-.19,1.26-2.36,1.57-4.74,3.12-7,4.82-.38.29-.8.55-1.16.87s-.33.65.16.86q2.25.95,4.52,1.86c2.95,1.18,5.9,2.34,8.84,3.53l16.92,6.85c1.31.53,2.64,1,4,1.51a1.3,1.3,0,0,0,.4,0Z"></path><path class="cls-1" d="M128.52,83.13c-4.57.25-8.64-4-8.59-8.51a8.58,8.58,0,0,1,17.15-.05C137.15,79.13,133.09,83.35,128.52,83.13Z"></path><path class="cls-1" d="M74.76,30.21a8.56,8.56,0,1,1,8.68-8.47A8.63,8.63,0,0,1,74.76,30.21Z"></path><path class="cls-1" d="M21.48,83.94a8.61,8.61,0,0,1-8.56-8.59,8.71,8.71,0,0,1,8.67-8.52,8.75,8.75,0,0,1,8.55,8.63C30.13,79.87,26.18,84.14,21.48,83.94Z"></path><path class="cls-1" d="M75.14,136.89c-4.59.31-8.68-4.13-8.54-8.52.17-5.18,4-8.3,8.6-8.7,4.73.49,8.5,3.68,8.55,8.85C83.8,132.71,80,137.18,75.14,136.89Z"></path></svg>