<svg xmlns="http://www.w3.org/2000/svg" id="Capa_1" height="512" viewBox="0 0 512 512" width="512"><g><path d="m151 91h-30v-31h-30v61h60z"></path><path d="m296.606 426.393-25.606-25.606v-39.787h-30v52.213l34.394 34.394z"></path><path d="m391 99.787-25.606 25.606 21.212 21.214 34.394-34.394v-52.213h-30z"></path><path d="m74.558 205.879 31.442 47.163 31.439-47.158c43.6-13.667 73.561-53.923 73.561-99.884 0-58.449-47.103-106-105-106-57.971 0-106 47.884-106 106 0 47.358 32.203 86.561 74.558 99.879zm31.442-175.879c41.355 0 75 34.093 75 76 0 60.922-62.152 73.774-62.254 73.839l-12.746 19.119-12.746-19.12c-.235-.147-63.254-11.183-63.254-73.838 0-41.196 34.804-76 76-76z"></path><path d="m406 0c-57.897 0-105 47.551-105 106 0 45.961 29.961 86.217 73.561 99.883l31.439 47.159 31.442-47.163c42.294-13.299 74.558-52.456 74.558-99.879 0-57.971-47.865-106-106-106zm12.746 179.839-12.746 19.119-12.746-19.12c-.185-.116-62.254-10.981-62.254-73.838 0-41.907 33.645-76 75-76 41.196 0 76 34.804 76 76 0 60.726-63.154 73.776-63.254 73.839z"></path><path d="m151 407c0 57.897 47.103 105 105 105s105-47.103 105-105c0-46.09-30.142-87.106-73.552-100.869l-31.448-47.173-31.448 47.172c-43.414 13.765-73.552 54.785-73.552 100.87zm92.254-74.839 12.746-19.119 12.746 19.12c.1.064 62.254 12.104 62.254 74.838 0 41.355-33.645 75-75 75s-75-33.645-75-75c0-63.311 62.153-74.773 62.254-74.839z"></path><path d="m0 241h76v30h-76z"></path><path d="m136 241h90v30h-90z"></path><path d="m286 241h90v30h-90z"></path><path d="m436 241h76v30h-76z"></path></g></svg>