<svg xmlns="http://www.w3.org/2000/svg" id="Layer_1" data-name="Layer 1" viewBox="0 0 150 150"><defs><style>.cls-1{fill:none;stroke:#000;stroke-linecap:round;stroke-linejoin:round;stroke-width:2px;}</style></defs><title>Logo</title><path class="cls-1" d="M45.54,103.41l-15.4,9.8c8.42,13.24,20.1,21.81,35.47,24.08,22,3.25,38.39-6.23,50.93-24.34L100,103l-4.37,6.12"></path><path class="cls-1" d="M79.91,117.38V96.79h14.5V87.51l-4.83-.57"></path><path class="cls-1" d="M100,30.38,98.9,25,93.16,29.5V34c-4.79,1.42-5.73,2.64-5.73,6.9L92.09,49"></path><path class="cls-1" d="M102.47,68.69c.24,3.46,1.26,7.09.53,10.34-1,4.51,1,7.41,3.44,10.4a16.64,16.64,0,0,0,2.63,2.2l-.59,3.59-5.34,3-3.64-4C94.89,98.49,93,103.55,95,109.86"></path><path class="cls-1" d="M79.91,80.86V66.29c-5.69-1.79-9.68.56-13.6,4.63v16H52"></path><path class="cls-1" d="M46.26,96.61l.41,6.06c6.76,17,33,21.47,47.56,7.9"></path><path class="cls-1" d="M93.52,48.28l-1.49,1a12.87,12.87,0,0,0,11.15,4.29,14.62,14.62,0,0,0,2.87-.69c1.67-.46,3.33-1.3,5-1.35,2.51-.06,4.55-.53,5.94-3.25l-7-2.91-15.51,2.7c.51-3.84.08-6.82-3.39-8.51-.86-.42-1.23-1.83-1.83-2.79"></path><path class="cls-1" d="M108.2,67.25c3.3,4.7,4.55,9.77,2.86,15.4-.85,2.86-1.67,5.73-2.51,8.59"></path><path class="cls-1" d="M38.74,66.54c-4.08,2-8.1,9.67-6.3,13.17,1,1.86,3.44,2.94,5.23,4.37"></path><path class="cls-1" d="M56.28,56.16l-.85-1.22c-6.1,1.21-5.64,5.83-5.17,10.16.5,4.65,1.7,9.19,1.44,14-.3,5.71-.07,11.45-.07,17.33l8.23.57"></path><path class="cls-1" d="M93.88,78l-4.74,9.46L81,86.94"></path><path class="cls-1" d="M87.07,64.75l2.09-2.45,3.65-.51c.54-4.85-.91-6.25-10.18-9.63a4.39,4.39,0,0,0-.91.78c-3,4.21-6.6,6.7-12.21,5.88-1.89-.28-4.12,1.11-6.05,2-3,1.42-1.15,4.59-2.16,6.76"></path><path class="cls-1" d="M34.45,50.07c5.13,0,10.26-.07,15.39,0,2,0,3.65,0,4-2.54A8.15,8.15,0,0,1,55.23,45c1.11.92,1.75,1.23,1.72,1.46-.47,4.05,3,5.48,5,7.91A40.5,40.5,0,0,1,64.88,59"></path><path class="cls-1" d="M58.43,80.86H55.1c-1.93-2.66-1.83-5.42-.35-8.42h3.86v8.24h4c1.8-2.48,1.7-5.24.13-8.41H59.15"></path><path class="cls-1" d="M66.31,102.34v15"></path><path class="cls-1" d="M55.93,103.77c1.43-2.27,2.49-5,4.44-6.63,1.11-.94,3.68-.17,5.76-.17v5.17c-3.44.67-6.84,1.27-10.19,2-.67.15-1.21.9-1.8,1.38"></path><path class="cls-1" d="M114.28,51.5c.59,4.7-1.88,7.7-6.44,7.89-1.44,0-2.87.23-4.3.35"></path><path class="cls-1" d="M94.59,67.61H80.27"></path><path class="cls-1" d="M57,46.13l4.17-3.32c.57,3.8,1.8,7,5.51,7.91a5.65,5.65,0,0,0,6.07-2.44"></path><path class="cls-1" d="M105,33.6c.91,5.17-1.84,9.16-4.29,13.25"></path><path class="cls-1" d="M36.24,57.23c-3.39,3.5-3.71,4.39-3.21,9.09L37,66.9"></path><path class="cls-1" d="M40.17,68c0,2.86,0,5.73,0,8.59a12.17,12.17,0,0,1-2.32,8c-1.72,2.36-1.73,6-2.42,8.76L39.63,97l1.89-3.35,1.38,3c3.18.68,3.36-1.52,3.72-3.55"></path><path class="cls-1" d="M93.52,62.6,95.1,65l-.63,11.52L81,86.23"></path><path class="cls-1" d="M39.82,56.16l-6.09.72c0-3-.1-5.62,0-8.24.11-2.42,2.22-4.2,5-4.28,3.1-.08,6.21,0,10,0,1.05,3.58,2.16,7.34,3.27,11.1"></path><path class="cls-1" d="M93.52,76.56c-3.47-1.87-6.31.46-9.29,1.51-1.11.39-1.93,1.59-2.88,2.43"></path><path class="cls-1" d="M71,44V18.2L70.44,18l2.84-4,1.61.53c.72,1.44,2,2.87,2.06,4.31.06,11.34-.13,22.68-.27,34a10.11,10.11,0,0,1-.35,1.79"></path><path class="cls-1" d="M77.41,18.92c6.75.91,8.24,3,7.92,10-.23,5,0,10,0,15.39H62.37"></path><path class="cls-1" d="M41.25,32.88,40.89,44"></path><path class="cls-1" d="M54.49,32.17l1.4-3.84c3.7,3.54,1.22,7.66,2.54,11"></path><path class="cls-1" d="M102.11,59c5,4,6.76,4.25,11.1,1.43L116.78,64a15.84,15.84,0,0,0-.66,3.57c.14,3.67-.61,4.5-4.7,4.66"></path><path class="cls-1" d="M57.72,58.66c-.36.48-.62,1.14-1.09,1.4-3.74,2.11-4,2.61-3.21,6.84"></path><path class="cls-1" d="M49.84,69c-.36,1.08-.79,2.13-1.06,3.23A45.17,45.17,0,0,1,47,78.82c.57,1.92,1.08,4.33,3.95,4.54"></path><path class="cls-1" d="M91.73,50.07c-1.32.48-2.6,1-4,1.4s-2.85.51-4.29.75"></path><path class="cls-1" d="M54.85,29.66l-1.76-2.93c-2.73-1.23-3.62.83-4.68,2.58l-.49-.68-5,3.58.17,1-2.2-1.8"></path><path class="cls-1" d="M64.88,97.33l-7.52,5.73"></path><path class="cls-1" d="M60.94,39.69c-3.69-.16-7.65,3.4-7.16,6.44"></path><path class="cls-1" d="M83.85,53.29c-2.42,1.79-2.45,4.21-1.79,6.8"></path><path class="cls-1" d="M81,20V40"></path><path class="cls-1" d="M66.67,24.65V40"></path><path class="cls-1" d="M102.83,28.59,101.75,35"></path><path class="cls-1" d="M66.31,20.71c-4.63.05-4.6.05-4.66,4.66-.09,6-.23,11.93-.35,17.9"></path><path class="cls-1" d="M76.69,36.46l-9.31-.35"></path><path class="cls-1" d="M84.57,40.4H62"></path><path class="cls-1" d="M100,48.28l2.51,5"></path><path class="cls-1" d="M81,81.22c-2,1.17-1.6,2.9-1.08,4.65"></path><path class="cls-1" d="M56.28,65.82c.68,2.23,2.55,1.18,3.56,1.39l6.11,4"></path><path class="cls-1" d="M66.67,36.46H62"></path><path class="cls-1" d="M70.6,24.29H62"></path><path class="cls-1" d="M45.54,74.41c-1.6-.09-2.79,2.49-4.65.72"></path><path class="cls-1" d="M98.89,80.86c-.47,1.93-1.83,2.36-3.58,2.15"></path><path class="cls-1" d="M96.74,42.91l1.07,4.29"></path><path class="cls-1" d="M77.41,58.3c3,1.94,7,2.19,9,5.73"></path><path class="cls-1" d="M66.31,29.3H62"></path><path class="cls-1" d="M60.58,53.65l-4,3.06,4.68,5.53"></path><path class="cls-1" d="M70.25,18.21c-3.84,1.48-4,1.73-3.23,5.72"></path><path class="cls-1" d="M95.67,76.92l2.88,3.42,3.83-.47-2.06-3.31"></path><path class="cls-1" d="M105,32.17c-1,2.72-3.51,3.48-5.72,4.65"></path><path class="cls-1" d="M91.37,51.5l-1.43,3.22"></path><path class="cls-1" d="M84.57,36.11H77.41"></path><path class="cls-1" d="M84.21,23.93h-6.8"></path><path class="cls-1" d="M81.35,29.3l3.22.36"></path><path class="cls-1" d="M45.9,73,47,77.64"></path><path class="cls-1" d="M103.18,27.16l-5,6.44"></path><path class="cls-1" d="M73.47,53.29l3.58,3.22"></path><path class="cls-1" d="M73.83,45.77l.35,6.09"></path><path class="cls-1" d="M57.36,63.67,51.27,69"></path><path d="M46.53,122.3a4.44,4.44,0,0,1-.62-.91,5.18,5.18,0,0,1-.37-1l1.16-.29a3.55,3.55,0,0,0,.49,1.17,3.8,3.8,0,0,0,.9.94,2.56,2.56,0,0,0,1.37.6,1.13,1.13,0,0,0,1-.48h0a1,1,0,0,0,.24-.71,1.35,1.35,0,0,0-.25-.68,6.31,6.31,0,0,0-.62-.77l0,0,0,0-.06-.07a9,9,0,0,1-.92-1.12,2,2,0,0,1-.34-1.1,2.32,2.32,0,0,1,.54-1.36h0a2.49,2.49,0,0,1,1.11-.88,2.31,2.31,0,0,1,1.36-.06,4.25,4.25,0,0,1,1.5.76,4.46,4.46,0,0,1,.67.63,5.25,5.25,0,0,1,.53.77,5.38,5.38,0,0,1,.38.92l-1.13.36a4.06,4.06,0,0,0-.46-1,2.83,2.83,0,0,0-.68-.74,2.33,2.33,0,0,0-1.31-.54,1.15,1.15,0,0,0-1,.51h0a.92.92,0,0,0-.22.71,1.48,1.48,0,0,0,.27.68,8.16,8.16,0,0,0,.69.84l0,0,0,0,0,0,.05,0a7.2,7.2,0,0,1,.82,1.09,2.07,2.07,0,0,1,.27,1.1,2.19,2.19,0,0,1-.52,1.28h0a2.34,2.34,0,0,1-1.11.86,2.3,2.3,0,0,1-1.38,0,4.42,4.42,0,0,1-1.55-.8A6.12,6.12,0,0,1,46.53,122.3Z"></path><path d="M57,119.9l1,.6-3.9,6.91-1.06-.6Zm-1.78-1.82,5.31,3-.57,1-5.31-3Z"></path><path d="M62.87,122l1,.36-.08,9.21-1.22-.46.23-7.37-4.71,5.67-1.23-.46Zm-3.58,4.62,4.25,1.61-.41,1.08-4.25-1.61Z"></path><path d="M73.44,124.31l1.12.13-1,8.59-1.17-.14.72-6.43,0,.39-2.66,4.62-.84-.1-1.58-5,.12-.49-.73,6.43-1.18-.13,1-8.59,1.13.13,1.88,6Z"></path><path d="M75.79,124.24l1.2-.18,1.31,8.54-1.19.19Zm.59-.09,4.79-.73.17,1.14-4.78.73ZM77,128l4.14-.64.17,1.14-4.14.64Z"></path><path d="M86,130.5a2.7,2.7,0,0,1-1.41-.65,3.46,3.46,0,0,1-1-1.41l-.91-2.28a3.54,3.54,0,0,1-.26-1.69A2.69,2.69,0,0,1,83,123a3.14,3.14,0,0,1,1.33-1,3.25,3.25,0,0,1,1.63-.22,2.67,2.67,0,0,1,1.4.65,3.39,3.39,0,0,1,1,1.41l.9,2.28a3.57,3.57,0,0,1,.27,1.7,2.74,2.74,0,0,1-.58,1.43,3.17,3.17,0,0,1-1.34.95A3.1,3.1,0,0,1,86,130.5Zm2-1.9a1.65,1.65,0,0,0,.33-.87,2.13,2.13,0,0,0-.17-1l-.93-2.36a2.29,2.29,0,0,0-.58-.87,1.64,1.64,0,0,0-.84-.4,1.85,1.85,0,0,0-1,.12,1.77,1.77,0,0,0-.78.57,1.59,1.59,0,0,0-.34.87,2.26,2.26,0,0,0,.17,1l.94,2.36a2.18,2.18,0,0,0,.58.87,1.64,1.64,0,0,0,.84.4A2,2,0,0,0,88,128.6Z"></path><path d="M88.24,120.47l1-.66,4.68,7.28-1,.65Zm2.51,2.94,2.49-1.59a1.18,1.18,0,0,0,.42-.47,1.09,1.09,0,0,0,.09-.62,1.71,1.71,0,0,0-.25-.68,1.77,1.77,0,0,0-.51-.51,1.11,1.11,0,0,0-.6-.18,1.19,1.19,0,0,0-.61.2l-2.48,1.59-.62-1,2.44-1.57a2.71,2.71,0,0,1,1.28-.45,2.21,2.21,0,0,1,1.21.26,2.71,2.71,0,0,1,1,.94,2.52,2.52,0,0,1,.44,1.27,2.12,2.12,0,0,1-.27,1.21,2.53,2.53,0,0,1-.93,1l-2.44,1.57Zm2.46-.53.87-.88,4.13,2.34-1.21.78Z"></path><path d="M94.39,116.34l.91-.8L101,122l-.91.8Zm5.56,5.08,1.47-1.29a2.09,2.09,0,0,0,.79-1.35,1.89,1.89,0,0,0-.53-1.4L100,115.47a1.85,1.85,0,0,0-1.32-.7,2,2,0,0,0-1.44.61l-1.47,1.29L95,115.8l1.44-1.27a4.15,4.15,0,0,1,1.57-.9,2.6,2.6,0,0,1,1.54.05,3.44,3.44,0,0,1,1.4,1l1.62,1.84a3.35,3.35,0,0,1,.81,1.51,2.48,2.48,0,0,1-.14,1.54,4,4,0,0,1-1.1,1.45l-1.44,1.26Z"></path></svg>