<svg xmlns="http://www.w3.org/2000/svg" id="Layer_1" data-name="Layer 1" viewBox="0 0 650 402.71"><defs><style>.cls-1,.cls-11,.cls-2,.cls-3,.cls-5,.cls-6{fill:none;}.cls-1,.cls-2,.cls-3,.cls-5,.cls-6{stroke:#1a1a1a;}.cls-1,.cls-11{stroke-miterlimit:10;}.cls-1,.cls-6{stroke-width:1.15px;}.cls-2,.cls-3,.cls-5,.cls-6{stroke-linecap:round;stroke-linejoin:round;}.cls-2{stroke-width:0.57px;}.cls-3{stroke-width:1.09px;}.cls-4{fill:#1a1a1a;}.cls-5{stroke-width:1.08px;}.cls-7{font-size:18.26px;}.cls-10,.cls-7,.cls-8,.cls-9{fill:#fff;font-family:Poppins-Regular, Poppins;}.cls-8{font-size:19.03px;}.cls-9{font-size:19.3px;}.cls-10{font-size:18.61px;}.cls-11{stroke:#000;}</style></defs><title>My Avatar 4-01</title><path class="cls-1" d="M263.9,231.13s-4.46-6.45-9.76-3.32-3.61,14.68,0,20.46,9.44,8.63,12.67,4.19"></path><path class="cls-2" d="M254.72,235s6-2,10.21,6.8"></path><path class="cls-2" d="M262,237.53s-6.49,3.47-2.2,8.69"></path><path class="cls-1" d="M349.81,216.63s5.3,78.86-42.38,78.86-43.85-78.86-43.85-78.86-2.3-46.9,45.47-46.9C353.5,169.73,349.81,216.63,349.81,216.63Z"></path><path class="cls-3" d="M304.62,227v20.2a3.91,3.91,0,0,0,.28,1.46,3.85,3.85,0,0,0,4.6,2.14l4-1.06"></path><path class="cls-4" d="M314.45,208.88c.29.56,1.6,7.31,1.6,7.31l16.42.36,6.21,2.23-7.19-5.23a16.93,16.93,0,0,0-6-2.46Z"></path><path class="cls-4" d="M293.33,227.11a4,4,0,1,1-3.95-4A4,4,0,0,1,293.33,227.11Z"></path><path class="cls-4" d="M330.17,227.11a4,4,0,1,1-3.95-4A4,4,0,0,1,330.17,227.11Z"></path><line class="cls-2" x1="296.54" y1="231.06" x2="286.71" y2="237.55"></line><line class="cls-2" x1="319.99" y1="231.77" x2="328.69" y2="238.33"></line><path class="cls-5" d="M300.24,264.6a15.23,15.23,0,0,0,7.81,2.47,12.24,12.24,0,0,0,7.24-2.47"></path><path class="cls-1" d="M349.8,232.19s4.46-6.46,9.75-3.33,3.61,14.69,0,20.46-9.43,8.63-12.66,4.2"></path><path class="cls-2" d="M359,236.09s-6-2-10.2,6.79"></path><path class="cls-2" d="M351.67,238.58s6.49,3.48,2.2,8.69"></path><path class="cls-4" d="M316.4,149.1c-26.8.4-36.41,17.61-36.7,18.16l-.09,0c-1-.37-15.85-5.44-23.05,9.66-6.17,12.93,1,36.79,3.69,44.68.84,3.56,1.75,7.09,2.64,10.52l4-28.4a25,25,0,0,1,3.32-9.35c2.15-3.52,10.7-15.51,23.09-7.21,13.55,9.08,29.39,22.9,52.23,10.65l3.79,36.47a166,166,0,0,0,5.19-19.66h0C371.5,163.79,338.82,148.77,316.4,149.1Z"></path><line class="cls-6" x1="278.29" y1="281.85" x2="278.29" y2="315.01"></line><line class="cls-6" x1="337.23" y1="280.1" x2="337.23" y2="315.01"></line><path class="cls-6" d="M199.59,397.13c0-25.17,17.75-44,31.6-54.81a79.07,79.07,0,0,1,24.22-12.82c7.51-2.45,18.22-7.07,22.88-14.49,0,0,25.62,25.64,58.94,0,0,0,15.37,12,22.89,14.49a79.3,79.3,0,0,1,24.22,12.82c13.85,10.84,31.59,29.64,31.59,54.81"></path><path class="cls-6" d="M266.9,324.68s32.73,41.55,84.77.49"></path><line class="cls-6" x1="218.64" y1="354.69" x2="397.11" y2="354.69"></line><line class="cls-6" x1="200.85" y1="390.39" x2="414.9" y2="390.39"></line><line class="cls-6" x1="206.34" y1="372.54" x2="410.06" y2="372.54"></line><path d="M263.33,229.06s-3.1,67.2,37.66,68.44,44.53-17.83,48.81-65.19c-3.3,15.42-8,31.51-15.75,45.29a53.19,53.19,0,0,1-6.37,9.35c-1.59,1.78-3.86,3.22-6.24,2.94a9.41,9.41,0,0,1-3.59-1.45c-4.39-2.59-9.63-6.75-8.85-12.5-.38,2.85,0,5.76-1.08,8.51-1.44,3.64-4.54,6.6-8.59,6.84a13.12,13.12,0,0,1-7.27-2.05c-9-5.27-14.4-16.28-18.4-25.52A143.35,143.35,0,0,1,268,248q-1.35-4.49-2.46-9C264.8,236,263.19,232.09,263.33,229.06Z"></path><path d="M303.74,269s6,1.49,8.39,0c0,0-3,2.56-3.08,4.77C309.05,273.73,308,271.64,303.74,269Z"></path><path d="M283.77,281.85s3.65,1,4.54-.83-1.68,4.24,0,5.55-5.21,0-5.21,0Z"></path><path d="M333.49,280.62s-3.65,1-4.54-.82,1.67,4.23,0,5.54,5.21,0,5.21,0Z"></path><path d="M307.94,261.07s-8.37-2.53-11.4.6-7.16,16.67-7.16,16.67,1.61-20.69,4.74-21.59,11.26-2.23,13.82,0A2.68,2.68,0,0,1,307.94,261.07Z"></path><path d="M310.21,261.07s8.37-2.53,11.4.6,7.16,16.67,7.16,16.67-1.61-20.69-4.74-21.59-11.26-2.23-13.82,0A2.68,2.68,0,0,0,310.21,261.07Z"></path><path class="cls-4" d="M301.07,208.88c-.28.56-1.59,7.31-1.59,7.31l-16.43.36-6.2,2.23,7.18-5.23a17,17,0,0,1,6-2.46Z"></path><rect class="cls-4" x="388.51" y="27.37" width="175.59" height="66.51"></rect><text class="cls-7" transform="translate(405.29 67.07)">UI/UX Designing </text><rect class="cls-4" x="92.86" y="6.68" width="213.48" height="69.31"></rect><text class="cls-8" transform="translate(110.35 48.05)">Web Development</text><rect class="cls-4" x="14.93" y="117.15" width="216.59" height="70.32"></rect><text class="cls-9" transform="translate(32.67 159.12)">Graphic Designing</text><rect class="cls-4" x="429.16" y="171.81" width="208.84" height="67.8"></rect><text class="cls-10" transform="translate(446.26 212.28)">Page Management</text><path class="cls-11" d="M293.33,87.51c29.09,19.58,32.89,55,32.89,55"></path><path class="cls-11" d="M241.64,225c-36.09-9.77-40.79-27.44-40.79-27.44"></path><path class="cls-11" d="M402.55,328.93c57.81-43.46,53.18-83.56,53.18-83.56"></path><path class="cls-11" d="M368.12,176.53c63.49-25.26,71.77-71,71.77-71"></path></svg>