<svg xmlns="http://www.w3.org/2000/svg" id="Layer_1" data-name="Layer 1" viewBox="0 0 150 150"><title>Genex Infosys-04-04</title><path d="M36.48,122.09c0,3,0,6.06,0,9.1a7.47,7.47,0,0,1-6.95,7.71,66.51,66.51,0,0,1-11.89,0A7.59,7.59,0,0,1,11,133.15a6.54,6.54,0,0,1-.09-.89c0-.53.21-.74.72-.74.88,0,1.75,0,2.63,0a.61.61,0,0,1,.71.61c.21,2.07,2.46,3.45,4.49,3.37,2.76-.1,5.53-.09,8.29,0A4.34,4.34,0,0,0,32.3,131a15.14,15.14,0,0,1,0-2.13c.06-.73-.25-.94-.95-.93-3.86,0-7.72,0-11.58,0a8.73,8.73,0,0,1-6.71-2.52,6.08,6.08,0,0,1-1.94-4.13c0-3.19-.11-6.39,0-9.58a6.68,6.68,0,0,1,3.61-5.51,9.36,9.36,0,0,1,5-1.19c2.63,0,5.26,0,7.89,0a9.55,9.55,0,0,1,5.82,1.65,6.19,6.19,0,0,1,1.94,2.07A8.51,8.51,0,0,1,36.49,113C36.44,116,36.48,119.06,36.48,122.09Zm-11.15,2.36c2.05,0,4.11,0,6.16,0,.52,0,.81-.11.81-.72,0-3.71,0-7.43,0-11.14a4.16,4.16,0,0,0-3.93-4c-3.2,0-6.4-.06-9.6,0a3.88,3.88,0,0,0-3.83,4c.06,2.59,0,5.18,0,7.78a3.93,3.93,0,0,0,.13,1.13,4.23,4.23,0,0,0,4.28,2.92C21.33,124.47,23.33,124.45,25.33,124.45Z"></path><path d="M104.33,119.74c-2.11,0-4.22,0-6.33,0-.68,0-.91.23-.89.9a4.11,4.11,0,0,0,4.1,4c3.18.06,6.35.07,9.53,0a4,4,0,0,0,4-3.18c.1-.58.41-.76,1-.73q1.11,0,2.22,0c.53,0,.75.19.64.74a7.23,7.23,0,0,1-3.43,5,9.49,9.49,0,0,1-5.26,1.32c-2.76,0-5.53,0-8.29,0A8.57,8.57,0,0,1,94.79,125a6.23,6.23,0,0,1-1.71-3.81,63.69,63.69,0,0,1,0-9.57c.28-3,2.11-4.93,4.86-6a9.94,9.94,0,0,1,3.7-.63h8.54a8.43,8.43,0,0,1,6.67,2.8,6.56,6.56,0,0,1,1.13,7.3c-1.57,3.25-4.28,4.51-7.68,4.62C108.32,119.79,106.32,119.73,104.33,119.74Zm.25-3.81h6.24c1.86,0,3.76-1.18,3.49-3.5a5.93,5.93,0,0,1,0-.73,3,3,0,0,0-3-3.21q-5.46-.12-10.92,0a3,3,0,0,0-3,3.22c0,1.07,0,2.13,0,3.19,0,.77.19,1.07,1,1C100.47,115.89,102.53,115.93,104.58,115.93Z"></path><path d="M49.93,119.74c-2.55,0-4.66,0-6.77,0-.81,0-1,.33-.91,1a4.25,4.25,0,0,0,4.21,3.84c3.18.1,6.36.06,9.53,0a4.35,4.35,0,0,0,4-3.26c.09-.52.35-.67.84-.66q1.07,0,2.13,0c.59,0,.78.25.69.82a7,7,0,0,1-4.17,5.4,9.66,9.66,0,0,1-4.38.88c-2.74,0-5.48,0-8.22,0A9,9,0,0,1,41.08,126a6.2,6.2,0,0,1-2.69-4.84c0-3.16-.08-6.33,0-9.5.07-2.75,1.72-4.5,4-5.71a10.08,10.08,0,0,1,4.78-1c2.54,0,5.09,0,7.64,0a9.32,9.32,0,0,1,6.3,1.9,6.75,6.75,0,0,1,2.51,6.63A7.41,7.41,0,0,1,57,119.6C54.47,119.92,52,119.64,49.93,119.74Zm0-3.81c2.08,0,4.16,0,6.23,0a3.28,3.28,0,0,0,3.21-2,6,6,0,0,0,.28-2.24,3.2,3.2,0,0,0-3-3.23c-3.64,0-7.28,0-10.91,0a2.87,2.87,0,0,0-2.93,3c0,1.19,0,2.4,0,3.59,0,.64.2.87.85.86C45.67,115.91,47.77,115.93,49.88,115.93Z"></path><path d="M91.18,118.9c0,2.62,0,5.24,0,7.86,0,.79-.26,1.09-1,1s-1.37,0-2.05,0c-1,0-1.07,0-1.07-1.06,0-4.53,0-9.06,0-13.59a3.94,3.94,0,0,0-1.8-3.63,4.28,4.28,0,0,0-2.31-.72c-3,0-6,0-9,0A4.29,4.29,0,0,0,69.76,113c.14,4.52,0,9.06,0,13.59,0,1.2,0,1.23-1.25,1.23-.58,0-1.15,0-1.73,0-1.2,0-1.28-.09-1.28-1.32,0-3.09,0-6.17,0-9.26,0-1.42,0-2.84,0-4.25a13.36,13.36,0,0,1,.43-3.22c.53-2.55,3-4.32,5.66-4.61a65.86,65.86,0,0,1,7.3-.11,50,50,0,0,1,6.48.12,6.46,6.46,0,0,1,5.81,6.49C91.1,114,91.18,116.47,91.18,118.9Z"></path><path d="M140.41,127.79h-.09c-2.57,0-2.54,0-4.18-2.07s-3.4-4.13-5.08-6.2c-.38-.46-.63-.16-.85.11q-.78,1-1.62,2c-1.62,1.88-3.19,3.8-4.77,5.71a1.08,1.08,0,0,1-.9.48h-3.78c-.56,0-.72-.19-.32-.67,1.28-1.55,2.56-3.11,3.85-4.66.73-.88,1.48-1.74,2.22-2.61.88-1,1.72-2.12,2.65-3.11.57-.62.44-1-.06-1.59-1.24-1.41-2.45-2.85-3.66-4.29l-4.19-5c-.16-.19-.43-.36-.33-.62s.43-.2.67-.2c1.2,0,2.41,0,3.61,0a1.45,1.45,0,0,1,1.2.58c1.78,2.21,3.59,4.39,5.37,6.6.44.55.71.43,1.12-.08,1.83-2.24,3.7-4.43,5.55-6.65a1.29,1.29,0,0,1,1.08-.47h3.61c.21,0,.48-.06.6.17s-.09.36-.2.5l-3.72,4.45-1.9,2.25c-.9,1.09-1.79,2.2-2.71,3.28-.21.25-.19.38,0,.61,1.95,2.35,3.89,4.7,5.85,7,1.09,1.32,2.21,2.63,3.32,3.94.09.1.23.18.19.33s-.25.19-.41.2h-2.13Zm-9.26-9.65c.61-.65,1.52-1.12,1.72-2s-.89-1.36-1.33-2.08a.52.52,0,0,0-.46-.34A4.63,4.63,0,0,1,131.15,118.14Z"></path><path d="M78.3,134.47c1.78,0,2.1.42,1.53,2.11-.23.67-.51,1.32-.77,2-.08.23-.22.41-.48.31s-.13-.33-.1-.5a2.91,2.91,0,0,0,.12-.39c.05-.42.5-.9.16-1.21s-.83.05-1.25.15a3.39,3.39,0,0,0-1.43.55.58.58,0,0,0-.25.65.5.5,0,0,0,.54.29c.47,0,.93,0,1.39-.07.14,0,.29,0,.34.13s-.09.25-.2.33a3,3,0,0,1-2.44,0c-.52-.42-.44-1.15.19-1.69a5.67,5.67,0,0,1,2.22-.78,8.56,8.56,0,0,0,.87-.23c.29-.11.57-.29.49-.65s-.38-.34-.66-.37a5.34,5.34,0,0,0-1.54.2c-.17,0-.4.19-.48-.08s.14-.35.31-.42A3.34,3.34,0,0,1,78.3,134.47Z"></path><path d="M125.34,136.64h-1.06c-.43,0-.84,0-.87.61s.17,1,.8,1.13a4.49,4.49,0,0,0,1.71-.09c.15,0,.34-.09.41.14s-.08.3-.23.39a2.75,2.75,0,0,1-3.39-.86c-.37-.61.05-1,.22-1.52a2.9,2.9,0,0,1,2.75-2,1.85,1.85,0,0,1,1.61.63,1,1,0,0,1,.17,1.07c-.1.34-.42.41-.73.42-.46,0-.92,0-1.39,0ZM124,136a.74.74,0,0,0,.22.08h2c.24,0,.53,0,.6-.28s-.19-.54-.47-.67A2.14,2.14,0,0,0,124,136Z"></path><path d="M114.8,138.44l.92-.13c.15,0,.35-.12.41.1s-.11.35-.28.44a3.39,3.39,0,0,1-3-.35,2.51,2.51,0,0,1,.23-2.82,3.19,3.19,0,0,1,3.4-1.06,1.14,1.14,0,0,1,.8,1.41c-.08.68-.62.57-1.07.58l-2.13,0c-.42,0-.84,0-.89.58s.12,1,.71,1.12C114.22,138.4,114.53,138.41,114.8,138.44Zm-.89-2.41c.23,0,.44,0,.65,0,.55,0,1.09,0,1.64,0a.44.44,0,0,0,.47-.26c.09-.23-.12-.34-.26-.46A1.72,1.72,0,0,0,113.91,136Z"></path><path d="M72.31,138.44l1-.15c.16,0,.35-.09.42.13s-.07.29-.22.39a3.21,3.21,0,0,1-3.26-.56,1.11,1.11,0,0,1-.25-.84,3.2,3.2,0,0,1,3.89-2.84,1.2,1.2,0,0,1,1,1.3.77.77,0,0,1-.89.75c-.74,0-1.48,0-2.22,0-.49,0-1,0-1,.68a1,1,0,0,0,1,1.08h.49Zm.44-2.36c.21,0,.43,0,.65,0s.73.13.77-.35-.33-.65-.74-.68a2.34,2.34,0,0,0-.8.09c-.45.16-1.16.27-1.11.76s.74.12,1.14.19Z"></path><path d="M99.84,139a1.93,1.93,0,0,1-2-.9,2.06,2.06,0,0,1,.38-2.13,3.1,3.1,0,0,1,3-1.49,1.24,1.24,0,0,1,1.25.89c.23.76-.1,1.22-.89,1.24s-1.42,0-2.13,0c-.43,0-.85,0-.87.59s.1,1,.76,1.16a4.06,4.06,0,0,0,1.55-.06c.19,0,.47-.17.53.15s-.24.35-.45.39C100.6,138.92,100.22,139,99.84,139Zm.54-2.92c.24,0,.48,0,.73,0s.65.07.69-.36-.28-.61-.66-.67a2.76,2.76,0,0,0-1.7.42c-.17.08-.37.23-.33.43s.35.16.54.18A5.9,5.9,0,0,0,100.38,136.08Z"></path><path d="M141.1,139c-.78,0-1.64,0-2-1a2.66,2.66,0,0,1,.79-2.59,3.17,3.17,0,0,1,2.86-.88,1.12,1.12,0,0,1,1.05,1.07c0,.67-.17,1.05-.91,1s-1.42,0-2.13,0c-.5,0-1.06,0-1.07.7s.44,1,1,1.06a3.69,3.69,0,0,0,1.55-.09c.15,0,.35-.12.41.1s-.1.31-.24.39A2.78,2.78,0,0,1,141.1,139Zm-.8-2.89h2.25c.26,0,.6.06.63-.33s-.23-.53-.54-.63A2.13,2.13,0,0,0,140.3,136.08Z"></path><path d="M91.68,139c-.87,0-1.69,0-2.05-.79a2.51,2.51,0,0,1,.43-2.54,3.15,3.15,0,0,1,3.33-1,1.13,1.13,0,0,1,.86,1.37c-.07.7-.6.66-1.1.66H90.94c-.39,0-.72.06-.82.5a.9.9,0,0,0,.44,1,2.89,2.89,0,0,0,1.92.17c.19,0,.47-.22.54.12s-.2.38-.41.42S91.91,139,91.68,139Zm.43-2.89h.82c.27,0,.59.05.64-.34s-.23-.47-.48-.58a2,2,0,0,0-1.59.12c-.29.11-.7.29-.62.65s.48.12.74.15A4,4,0,0,0,92.11,136.08Z"></path><path d="M131.41,135.17c-1.35,0-2,.62-2.64,2.46-.11.33-.19.68-.3,1s-.2.41-.48.31-.18-.3-.12-.48c.3-1,.58-2,.93-3a.88.88,0,0,1,1.15-.68c.62.11,1.33-.19,2-.14,1,.06,1.39.54,1.15,1.51-.19.79-.45,1.57-.68,2.35-.09.28-.24.53-.58.44s-.19-.43-.16-.67a12.28,12.28,0,0,1,.7-1.73C132.7,135.43,132.52,135.16,131.41,135.17Z"></path><path d="M106.07,139c-.52,0-.56-.44-.69-.75-.48-1.12-.57-1.14-1.48-.29a4.82,4.82,0,0,1-1.09,1c-.2.09-.46.17-.6,0s.12-.35.27-.43c.71-.43,1.15-1.17,1.83-1.62.34-.22.3-.5.1-.77a2.46,2.46,0,0,1-.48-.85c-.05-.2-.19-.43.1-.56a.47.47,0,0,1,.63.23l0,.07c.66,1.06.66,1.06,1.58.2a4.22,4.22,0,0,1,.56-.47c.19-.11.46-.17.6,0s-.13.34-.28.47-.13.1-.19.15a6.93,6.93,0,0,0-1.29,1.24c-.38.64.51,1,.58,1.58C106.29,138.51,106.71,138.92,106.07,139Z"></path><path d="M86,138.41h.41c.39,0,.82-.06,1-.45s-.26-.65-.53-.89c-.84-.76-1-1.3-.66-1.88a2.44,2.44,0,0,1,2.48-.6c.2.09.34.18.27.42s-.24.2-.41.17a2,2,0,0,0-1.12-.07c-.28.1-.63.1-.69.48s.21.53.45.72a3.82,3.82,0,0,1,.64.63,1.16,1.16,0,0,1-.64,1.92,3.47,3.47,0,0,1-1.78.09c-.25,0-.55-.07-.5-.4s.37-.21.59-.19Z"></path><path d="M137.27,134.47h.16c.41.13,1.2-.06,1.15.45s-.71.14-1.09.12a2.58,2.58,0,0,0-2.7,2.13c-.21.78.22,1.2,1.16,1.27a8.18,8.18,0,0,0,1-.06c.17,0,.43-.14.47.14s-.18.36-.41.42a2.69,2.69,0,0,1-2.71-.62,2.75,2.75,0,0,1,.57-2.8A3.34,3.34,0,0,1,137.27,134.47Z"></path><path d="M110.26,138.45c.17.09.72-.37.77.11s-.57.34-.91.44a2.73,2.73,0,0,1-1.3-.07,1.29,1.29,0,0,1-1.1-1.33,3.2,3.2,0,0,1,4.23-3c.16.06.35.12.3.32s-.38.27-.6.21a2.59,2.59,0,0,0-2.73.87,2.26,2.26,0,0,0-.57,1.49.79.79,0,0,0,.72.86C109.42,138.41,109.77,138.41,110.26,138.45Z"></path><path d="M80.94,139c-.42,0-.38-.29-.32-.57a15.29,15.29,0,0,1,.71-1.89c.31-.9.54-1.83.81-2.74.1-.34.22-.77.69-.58s.18.59.06.83a29.94,29.94,0,0,0-1.4,4.33C81.4,138.7,81.33,139,80.94,139Z"></path><path d="M68,134.71c.52.15,1-.2,1.53-.1.18,0,.41,0,.41.27s-.18.27-.35.27c-1.35-.08-1.75.85-2.06,1.9-.18.56-.42,1.11-.63,1.67-.08.19-.21.33-.44.26s-.21-.29-.15-.47c.38-1.19.77-2.37,1.17-3.55A.37.37,0,0,1,68,134.71Z"></path><path d="M120.22,133.74a20.25,20.25,0,0,0-1.3,3.77q-.17.59-.36,1.17a.44.44,0,0,1-.57.33c-.35-.09-.28-.38-.18-.59a35.46,35.46,0,0,0,1.58-4.8.47.47,0,0,1,.63-.36C120.27,133.33,120.22,133.54,120.22,133.74Z"></path><path d="M120.44,139c-.35,0-.32-.26-.26-.49.41-1.69,1.11-3.29,1.62-5,.07-.23.22-.4.49-.29s.16.33.11.5c-.5,1.64-.94,3.29-1.59,4.88C120.73,138.85,120.63,139,120.44,139Z"></path><path d="M84.86,135c0,.1,0,.21-.07.31-.38,1.07-.75,2.15-1.13,3.22-.08.22-.19.42-.46.33s-.17-.31-.12-.48c.31-1.1.63-2.19,1-3.29a.51.51,0,0,1,.58-.44C84.81,134.7,84.89,134.83,84.86,135Z"></path></svg>