<svg width="40" height="40" viewBox="0 0 40 40" fill="none" xmlns="http://www.w3.org/2000/svg">
<circle cx="20" cy="20" r="17.5" fill="#105DFB"/>
<path fill-rule="evenodd" clip-rule="evenodd" d="M8.59473 27.4492V12.1792H15.6538C17.9212 12.1792 19.7593 14.0173 19.7593 16.2847C19.7593 17.7255 19.3162 18.618 17.6918 19.5336C19.6357 20.4193 20.1756 21.6469 20.1756 23.3592C20.1756 25.6756 18.1178 27.4492 15.8015 27.4492H8.59473ZM11.5818 14.7069V18.3788H15.0779C15.0779 18.3788 16.7771 18.3788 16.7771 16.5428C16.7771 14.7069 15.0779 14.7069 15.0779 14.7069H11.5818ZM11.5818 24.8631V20.8983H15.3318C15.9373 20.8983 17.2068 21.2108 17.2068 23.0858C17.2068 24.4764 15.9568 24.8501 15.3318 24.8631H11.5818Z" fill="white"/>
<path fill-rule="evenodd" clip-rule="evenodd" d="M26.5623 16.3866C24.4139 16.3866 21.2303 17.9296 21.2303 22.0311C21.2303 24.5286 22.5975 27.7342 26.699 27.7342C29.9803 27.7342 31.4907 25.3254 31.8357 24.121H28.7498C28.5935 24.6678 27.9881 25.2733 26.699 25.2733C24.824 25.2733 24.16 23.6717 24.0623 22.871H31.8357V22.0311C31.8357 17.9296 28.7107 16.3866 26.5623 16.3866ZM26.5623 18.7303C24.8123 18.7303 24.1665 20.1756 24.0623 20.8983H28.7498C28.7498 20.1756 28.3123 18.7303 26.5623 18.7303Z" fill="white"/>
<path d="M22.8318 13.0467V14.9413H30.1951V13.0467H22.8318Z" fill="white"/>
</svg>
