<svg width="40" height="40" viewBox="0 0 40 40" fill="none" xmlns="http://www.w3.org/2000/svg">
<path d="M4.06145 14.1216C4.24815 13.9335 4.59487 13.6827 4.84379 13.5574L5.28831 13.3425L12.9339 13.3335L13.4673 13.5932C13.7607 13.7365 14.143 14.0051 14.3119 14.1842C14.4808 14.3633 14.8898 15.0439 15.7966 16.8708L16.1077 16.2887C16.2766 15.9663 16.5789 15.4111 16.7656 15.0439C16.979 14.641 17.2724 14.238 17.5213 14.0141C17.7435 13.8081 18.1258 13.5753 18.3659 13.4947C18.6059 13.4051 19.006 13.3335 19.246 13.3335C19.5394 13.3335 19.8594 13.4141 20.1795 13.5663C20.4462 13.6917 20.7573 13.8798 20.8729 13.9872C20.9885 14.0947 21.2196 14.4081 21.3796 14.6768C21.5486 14.9454 21.8775 15.5544 22.5532 16.8708L22.731 16.5574C22.8288 16.3872 23.1221 15.841 23.3888 15.3484C23.6467 14.8559 24.0112 14.3096 24.1801 14.1395C24.3579 13.9693 24.7313 13.7186 25.5136 13.3335H34.6706L35.1417 13.5484C35.4262 13.6827 35.7641 13.9514 36.0308 14.2469C36.2619 14.5066 36.5108 14.9007 36.5909 15.1245C36.662 15.3484 36.7153 15.7783 36.7153 16.6469L37.3643 16.7007C37.711 16.7275 38.2 16.8439 38.44 16.9514C38.6978 17.0589 39.0446 17.3275 39.2846 17.5962C39.5246 17.8648 39.7647 18.241 39.8625 18.5365C39.9869 18.8857 40.0225 19.1633 39.9869 19.5574C39.9603 19.8708 39.8447 20.2827 39.7202 20.5425C39.5958 20.7842 39.3202 21.1514 39.1068 21.3395C38.8934 21.5365 38.5734 21.7514 38.4045 21.832C38.2356 21.9036 37.791 21.9842 36.7598 22.0648L36.7064 22.7365C36.6798 23.1036 36.5997 23.5514 36.5197 23.7216C36.4486 23.8917 36.253 24.1872 36.0841 24.3842C35.9152 24.5723 35.6574 24.7962 35.5151 24.8768C35.3729 24.9484 35.0706 25.0827 34.8484 25.1723C34.4839 25.3156 34.0838 25.3335 27.025 25.3335L26.4738 25.0827C26.1448 24.9395 25.7537 24.6708 25.5314 24.438C25.318 24.2141 25.1313 23.9633 25.1047 23.8738C25.0869 23.7932 25.0335 23.7216 24.9802 23.7216C24.9269 23.7216 24.8646 23.8111 24.8291 23.9186C24.7935 24.035 24.6246 24.2768 24.4557 24.4738C24.2779 24.6619 23.8956 24.9395 23.6022 25.0827C23.2021 25.2708 22.9443 25.3335 22.5621 25.3335C22.1887 25.3335 21.8953 25.2619 21.4952 25.0827C21.1574 24.9305 20.8018 24.6798 20.6062 24.4559C20.4195 24.2499 20.0283 23.5872 19.7261 22.9783C19.4149 22.3514 19.1571 21.9216 19.1215 21.9753C19.0771 22.0201 18.8637 22.4857 18.6326 23.0051C18.3392 23.6947 18.1169 24.0619 17.8058 24.3842C17.5657 24.626 17.139 24.9395 16.8456 25.0827C16.4456 25.2708 16.1877 25.3335 15.8055 25.3335C15.4321 25.3335 15.1387 25.2619 14.7386 25.0827C14.4008 24.9305 14.0452 24.6798 13.8496 24.4559C13.6629 24.2499 13.2451 23.5424 12.925 22.8887C12.5961 22.2439 12.3294 21.6977 12.3205 21.6887C12.3205 21.6798 12.0982 21.7425 11.8493 21.841C11.4492 21.9932 11.1559 22.0201 8.53325 22.0201V22.5305C8.53325 22.8171 8.46212 23.2648 8.38211 23.5335C8.29321 23.8111 8.07095 24.1872 7.86648 24.4201C7.67089 24.6439 7.27972 24.9395 7.00412 25.0738C6.58628 25.2798 6.37292 25.3335 5.89284 25.3335C5.46611 25.3335 5.17273 25.2798 4.91492 25.1544C4.70155 25.0559 4.34594 24.8051 4.11479 24.5992C3.89254 24.3842 3.62583 24.035 3.52804 23.8111C3.42136 23.5783 3.32356 23.1216 3.24355 22.0648L2.53233 22.0111C2.08782 21.9753 1.68776 21.8857 1.4655 21.7783C1.26992 21.6798 0.932087 21.3932 0.70983 21.1514C0.478684 20.8917 0.238648 20.5066 0.140855 20.2201C0.0252816 19.8798 -0.0191696 19.5753 0.00750114 19.1992C0.0341719 18.8768 0.140855 18.4827 0.265318 18.2141C0.389782 17.9723 0.629818 17.632 0.798733 17.4619C0.967648 17.2917 1.31437 17.0589 1.5544 16.9514C1.79444 16.8439 2.27451 16.7275 3.24355 16.638L3.29689 15.9036C3.33245 15.4201 3.41246 15.0529 3.52804 14.8111C3.63472 14.6141 3.87476 14.3007 4.06145 14.1216Z" fill="black"/>
<path d="M5.15513 15.5723C5.19958 15.4738 5.35072 15.3305 5.49296 15.2588H5.48407C5.68854 15.1514 6.32864 15.1335 9.12907 15.1245C11.9828 15.1245 12.5785 15.1424 12.8007 15.2588C13.023 15.3753 13.2808 15.8141 14.3654 17.9633C15.0855 19.3872 15.6901 20.5782 15.7256 20.6141C15.7523 20.6499 16.4102 19.5036 17.1747 18.0618C17.9393 16.62 18.615 15.3842 18.6861 15.3215C18.7483 15.2588 18.9439 15.2051 19.1128 15.1872C19.2817 15.1782 19.5307 15.2409 19.664 15.3305C19.8507 15.4469 20.233 16.1365 21.2109 18.0976C21.9399 19.5842 22.5356 20.6857 22.5711 20.632C22.6156 20.5782 23.229 19.432 23.9491 18.0797C24.6692 16.7275 25.3627 15.5185 25.6916 15.1693L29.9411 15.1424C33.2216 15.1245 34.244 15.1424 34.4396 15.232C34.5818 15.2947 34.7508 15.429 34.8219 15.5275C34.9108 15.6618 34.9374 16.0738 34.9374 18.5275H36.2888C37.6223 18.5185 37.6579 18.5275 37.889 18.7514C38.0313 18.8767 38.1646 19.0827 38.1913 19.217C38.2179 19.3603 38.1913 19.5842 38.1202 19.7275C38.0579 19.8708 37.8979 20.0409 37.7645 20.1036C37.5867 20.1932 37.1333 20.229 34.9374 20.229V21.5275C34.9374 22.3424 34.9019 22.8976 34.8308 23.023C34.7774 23.1394 34.6707 23.2738 34.5907 23.3364C34.484 23.417 33.5239 23.4439 27.114 23.4529L26.6251 23.023V20.9991V20.9991C26.6251 19.02 26.6251 18.9753 26.8295 18.7782C27.0251 18.5723 27.034 18.5723 33.2424 18.5275L33.2483 18.5275V16.826L26.5451 16.8708L24.8292 20.0947C23.4868 22.62 23.0601 23.3454 22.8734 23.4439C22.66 23.5514 22.5711 23.5514 22.2689 23.4439C21.9221 23.3185 21.8955 23.2827 20.7131 20.9454C20.0552 19.6379 19.4418 18.429 19.1839 17.9454L17.9037 20.4081C17.1925 21.7603 16.6235 22.8976 16.6235 22.9335C16.6235 22.9782 16.4813 23.1215 16.3124 23.2738C16.1435 23.426 15.9301 23.5424 15.8412 23.5424C15.7612 23.5424 15.5567 23.4708 15.3878 23.3812C15.1211 23.2469 14.9077 22.8708 11.8673 16.8708L6.75537 16.826V18.5275H11.2005L11.4672 18.7962C11.6628 18.9932 11.7339 19.1454 11.7339 19.3782C11.7339 19.6021 11.6628 19.7633 11.2183 20.229H6.75537V21.5275C6.75537 22.2439 6.71092 22.9245 6.66647 23.0499C6.62202 23.1753 6.44422 23.3364 6.29308 23.417C6.11528 23.5066 5.90191 23.5424 5.75967 23.5066C5.61742 23.4797 5.41295 23.3544 5.28848 23.229C5.06623 23.0051 5.06623 22.9782 5.06623 20.229H3.68824C2.3547 20.229 2.30136 20.22 2.07022 20.0141C1.86574 19.835 1.82129 19.7185 1.82129 19.3782C1.82129 19.0379 1.86574 18.9215 2.06133 18.7424C2.30136 18.5365 2.3547 18.5275 5.06623 18.5275V17.1394C5.06623 16.3782 5.11068 15.6708 5.15513 15.5723Z" fill="white"/>
<path d="M28.269 21.7509V20.9897V20.2285H33.2476V21.7509H28.269Z" fill="black"/>
</svg>
