<svg width="34" height="24" viewBox="0 0 34 24" fill="none" xmlns="http://www.w3.org/2000/svg">
<ellipse cx="30.7677" cy="20.7497" rx="2.89855" ry="2.91667" fill="#0060FF"/>
<path d="M21.5566 16.4753C21.9216 17.8199 21.9532 18.9379 21.986 18.9379H22.0532C22.0532 18.9379 22.1554 17.7851 22.4517 16.4753L26.3432 0.333008H30.7678L24.6787 23.6663H19.7252L16.1013 9.86538C15.7035 8.35402 15.4995 6.81034 15.4995 6.81034H15.4333C15.4333 6.81034 15.2363 8.35402 14.8345 9.86538L11.208 23.6653H6.25226L0.333008 0.33773H4.75719L8.48365 16.4786C8.78362 17.7916 8.88288 18.9397 8.88288 18.9397H8.94978C8.98544 18.9397 9.01264 17.8228 9.38246 16.4786L13.6397 0.33773H17.3589L21.5566 16.4753Z" fill="#0060FF"/>
</svg>
