<svg width="299" height="220" viewBox="0 0 299 220" fill="none" xmlns="http://www.w3.org/2000/svg">
<path d="M93.3494 187.629C97.8604 192.141 106.119 191.207 111.797 185.529C117.468 179.858 118.408 171.592 113.897 167.081L67.1814 124.188C62.6634 119.669 54.3969 120.61 48.7259 126.281C43.0549 131.952 42.1145 140.218 46.6329 144.736L93.3494 187.629Z" fill="#EBF0F4"/>
<path d="M4.70639 101.585C0.712392 97.5908 -0.980006 91.5683 2.16559 85.9972C2.94799 84.6107 5.43169 82.7151 6.67169 81.4751C12.7627 75.3841 20.3497 74.4599 26.7891 79.502C29.8065 81.3392 35.0869 84.922 35.0869 84.922L41.1628 89.9958L17.7808 114.659L4.70639 101.585Z" fill="#EBF0F4"/>
<path d="M4.61325 101.678C-0.40015 96.6637 -1.49695 89.6434 2.16065 85.9858C5.81355 82.3328 11.6972 83.112 17.857 88.4338C20.6382 90.5072 25.5788 94.4297 25.5788 94.4297L33.1699 99.7977L17.6877 114.752L4.61325 101.678Z" fill="#F2F4F7"/>
<path d="M78.7824 9.31826L7.36169 80.7393C7.36169 80.7393 40.6936 97.4058 41.9162 130.228C43.1388 163.05 96.6704 176.799 96.6704 176.799L167.989 99.4048C167.989 99.4048 116.342 80.0884 117.604 49.0202C118.5 26.9564 101.36 13.3917 91.3494 7.38206C87.2504 4.92146 82.1634 5.93766 78.7824 9.31826Z" fill="#EBF0F4"/>
<g opacity="0.5">
<path d="M88.8004 113.98L69.7183 133.734C67.4988 136.032 67.6576 139.774 70.0731 142.093L85.1177 156.533C87.5332 158.851 91.2906 158.868 93.5102 156.57L112.592 136.815C114.812 134.517 114.653 130.775 112.238 128.457L97.1929 114.017C94.7774 111.698 91.02 111.682 88.8004 113.98Z" fill="#CBD8E3"/>
<path d="M107.672 131.587C109.147 132.039 109.69 133.865 108.664 134.925L91.2695 152.902C90.2885 153.916 88.5245 153.537 87.9355 152.185L80.0925 134.204C79.3525 132.508 81.0355 130.899 82.7185 131.693L90.7825 135.494C92.0235 136.079 93.4185 135.344 93.5695 134.025L94.0575 129.76C94.1945 128.562 95.3735 127.818 96.5595 128.181L107.672 131.587Z" fill="#C5CED6"/>
<path d="M89.885 129.635C91.3751 128.086 91.2584 125.553 89.6244 123.978C87.9903 122.403 85.4577 122.382 83.9675 123.931C82.4774 125.48 82.5941 128.013 84.2281 129.588C85.8622 131.163 88.3949 131.184 89.885 129.635Z" fill="#545764"/>
</g>
<path d="M149.788 71.1392C149.788 71.1392 70.2964 110.619 89.9164 140.567C98.2674 153.314 97.3994 148.388 106.097 161.605C114.796 174.821 114.934 175.777 110.526 186.708L179.272 111.63L149.788 71.1392Z" fill="#E1E8EE"/>
<path d="M183.841 78.4837C188.854 83.4971 197.955 82.5142 204.17 76.2987C210.385 70.0832 211.361 60.9757 206.355 55.9694C206.355 55.9694 186.007 40.372 178.39 34.6071C170.773 28.8421 163.84 30.2895 157.625 36.5049C151.409 42.7204 150.434 51.8279 155.44 56.8343L183.841 78.4837Z" fill="#D6DFE5"/>
<path d="M179.368 35.708L102.364 112.712C102.364 112.712 146.009 138.655 154.065 167.3C160.878 191.53 208.162 217.997 208.162 217.997L280.138 136.478C280.138 136.478 240.136 114.092 229.753 86.0929C219.37 58.0935 179.368 35.708 179.368 35.708Z" fill="#D6DFE5"/>
<path d="M157.646 36.52L80.6425 113.524L93.0665 125.948L170.07 48.9438L157.646 36.52Z" fill="#D6DFE6"/>
<path d="M80.6134 131.678C75.5994 126.665 76.0874 118.059 81.7024 112.445C87.3094 106.838 94.5584 106.251 100.942 111.349C103.913 113.233 109.126 116.883 109.126 116.883L113.846 120.62L93.6874 144.753L80.6134 131.678Z" fill="#E1E8EE"/>
<path d="M277.367 127.119L206.239 198.247L223.45 215.458L294.578 144.33L277.367 127.119Z" fill="#CEDAE1"/>
<path d="M206.08 216.481C210.591 220.993 218.85 220.059 224.528 214.381C230.199 208.71 231.14 200.444 226.628 195.933L184.025 153.33C179.507 148.811 171.241 149.752 165.57 155.423C159.899 161.094 158.958 169.36 163.477 173.878L206.08 216.481Z" fill="#D6DFE5"/>
<path d="M294.653 144.237C290.134 148.755 282.808 148.755 278.297 144.244L269.26 135.207L285.616 118.852L294.653 127.889C299.178 132.4 299.171 139.719 294.653 144.237Z" fill="#CEDAE1"/>
<path d="M245.734 125.734L190.585 180.883C189.937 181.531 188.775 181.413 188.001 180.638C187.227 179.864 187.118 178.693 187.756 178.055L242.905 122.905C243.553 122.258 244.715 122.376 245.489 123.15C246.263 123.924 246.372 125.096 245.734 125.734Z" fill="#C7D3DD"/>
<path d="M243.946 145.187L200.256 188.876C199.236 189.897 197.773 190.08 196.999 189.305C196.225 188.531 196.422 187.053 197.428 186.048L241.117 142.358C242.138 141.338 243.601 141.155 244.375 141.929C245.149 142.703 244.967 144.166 243.946 145.187Z" fill="#C7D3DD"/>
<path d="M249.909 130.737L195.012 185.634C194.55 186.096 193.538 185.831 192.762 185.055C191.987 184.28 191.722 183.268 192.184 182.805L247.081 127.909C247.543 127.446 248.556 127.712 249.331 128.487C250.12 129.276 250.372 130.275 249.909 130.737Z" fill="#C7D3DD"/>
<path d="M193.313 124.475C191.732 122.168 192.049 119.083 194.004 117.084L211.779 98.916C214.404 96.234 218.823 96.587 221.085 99.582C222.864 101.938 224.919 104.555 226.662 106.5C228.601 108.663 230.964 111.263 232.905 113.392C235.021 115.712 235.001 119.27 232.852 121.561L215.249 140.322C212.992 142.727 209.217 142.859 206.862 140.55C204.496 138.231 201.649 135.341 199.662 133C197.525 130.481 195.105 127.09 193.313 124.475Z" fill="#C0CDD8"/>
<path d="M230.732 115.289C232.176 115.729 232.632 117.549 231.564 118.617L213.461 136.72C212.44 137.741 210.706 137.376 210.183 136.03L203.221 118.13C202.565 116.442 204.311 114.821 205.945 115.599L213.779 119.331C214.985 119.906 216.404 119.16 216.614 117.841L217.296 113.576C217.487 112.378 218.692 111.625 219.853 111.978L230.732 115.289Z" fill="#B3C1CD"/>
<path d="M212.707 113.439C214.269 111.877 214.269 109.345 212.707 107.782C211.145 106.22 208.612 106.22 207.05 107.782C205.488 109.345 205.488 111.877 207.05 113.439C208.612 115.001 211.145 115.001 212.707 113.439Z" fill="#B3C1CD"/>
<path d="M163.315 155.473C161.734 153.166 162.05 150.08 164.006 148.081L181.781 129.913C184.405 127.231 188.825 127.585 191.086 130.579C192.866 132.936 194.921 135.553 196.664 137.497C198.603 139.66 200.965 142.26 202.907 144.389C205.023 146.71 205.002 150.268 202.853 152.558L185.25 171.319C182.993 173.725 179.219 173.856 176.863 171.547C174.498 169.229 171.65 166.339 169.664 163.997C167.526 161.478 165.107 158.087 163.315 155.473Z" fill="#C0CDD8"/>
<path d="M200.626 146.387C202.071 146.827 202.526 148.647 201.458 149.715L183.355 167.818C182.334 168.839 180.6 168.474 180.077 167.129L173.115 149.228C172.459 147.54 174.205 145.919 175.84 146.698L183.673 150.429C184.879 151.004 186.298 150.258 186.508 148.939L187.19 144.674C187.381 143.476 188.586 142.723 189.747 143.076L200.626 146.387Z" fill="#B3C1CD"/>
<path d="M182.597 144.538C184.159 142.976 184.159 140.444 182.597 138.882C181.035 137.319 178.502 137.319 176.94 138.882C175.378 140.444 175.378 142.976 176.94 144.538C178.502 146.1 181.035 146.1 182.597 144.538Z" fill="#B3C1CD"/>
<path d="M206.82 75.6919L149.161 133.35C148.484 134.027 147.298 133.933 146.524 133.159C145.75 132.385 145.666 131.189 146.333 130.522L203.991 72.8635C204.668 72.1864 205.854 72.2807 206.628 73.0548C207.402 73.8289 207.487 75.0249 206.82 75.6919Z" fill="#C7D3DD"/>
<path d="M208.433 83.2583L153.536 138.155C153.074 138.618 152.061 138.352 151.286 137.577C150.511 136.802 150.245 135.789 150.707 135.327L205.604 80.4298C206.067 79.9676 207.079 80.2332 207.854 81.0082C208.643 81.7969 208.895 82.796 208.433 83.2583Z" fill="#C7D3DD"/>
<path d="M156.977 114.047L150.804 120.221C150.164 120.86 149.009 120.737 148.234 119.962C147.459 119.187 147.345 118.023 147.975 117.392L154.149 111.219C154.788 110.579 155.944 110.702 156.719 111.477C157.508 112.266 157.616 113.408 156.977 114.047Z" fill="#C7D3DD"/>
<path d="M146.114 127.739C147.676 126.177 147.676 123.644 146.114 122.082C144.552 120.52 142.019 120.52 140.457 122.082C138.895 123.644 138.895 126.177 140.457 127.739C142.019 129.301 144.552 129.301 146.114 127.739Z" fill="#C7D3DD"/>
<path d="M115.45 106.996C112.637 104.769 112.394 100.586 114.932 98.049L165.86 47.1202C167.982 44.9985 171.345 44.7704 173.733 46.5861L189.263 58.3903C192.134 60.5721 192.445 64.7748 189.928 67.3561L139.444 119.124C137.297 121.325 133.835 121.547 131.424 119.64L115.45 106.996Z" fill="#C0CDD8"/>
<path d="M166.687 81.0387C168.132 81.4783 168.587 83.2986 167.519 84.3662L149.416 102.47C148.395 103.491 146.661 103.126 146.138 101.78L139.176 83.8795C138.52 82.1917 140.266 80.5702 141.901 81.349L149.734 85.0809C150.94 85.6552 152.359 84.9094 152.569 83.5908L153.251 79.3255C153.442 78.1275 154.647 77.3744 155.808 77.7276L166.687 81.0387Z" fill="#B3C1CD"/>
<path d="M148.668 79.1849C150.23 77.6228 150.23 75.0901 148.668 73.528C147.106 71.9659 144.573 71.9659 143.011 73.528C141.449 75.0901 141.449 77.6228 143.011 79.1849C144.573 80.747 147.106 80.747 148.668 79.1849Z" fill="#B3C1CD"/>
<g opacity="0.5">
<path d="M112.777 67.6818L61.3834 119.076C60.7794 119.68 59.6531 119.526 58.879 118.752C58.1049 117.978 57.9603 116.843 58.5549 116.248L109.949 64.8534C110.553 64.2498 111.679 64.4034 112.453 65.1775C113.227 65.9516 113.372 67.0872 112.777 67.6818Z" fill="#DAE2E9"/>
<path d="M113.94 75.73L64.0874 125.583C63.6674 126.003 62.6894 125.703 61.9144 124.928C61.1394 124.153 60.8394 123.175 61.2594 122.755L111.111 72.9016C111.531 72.4818 112.51 72.7817 113.285 73.5568C114.073 74.3455 114.36 75.3102 113.94 75.73Z" fill="#DAE2E9"/>
</g>
<g opacity="0.5">
<path d="M72.5504 91.978L66.3764 98.1518C65.7374 98.7908 64.5814 98.6678 63.8064 97.8928C63.0314 97.1178 62.9184 95.9538 63.5484 95.3228L69.7224 89.1496C70.3614 88.5103 71.5174 88.6328 72.2924 89.4079C73.0804 90.1966 73.1894 91.3388 72.5504 91.978Z" fill="#DAE2E9"/>
<path d="M61.6865 105.67C63.2486 104.108 63.2486 101.575 61.6865 100.013C60.1244 98.4513 57.5917 98.4513 56.0296 100.013C54.4675 101.575 54.4675 104.108 56.0296 105.67C57.5917 107.232 60.1244 107.232 61.6865 105.67Z" fill="#DAE2E9"/>
</g>
<g opacity="0.5">
<path d="M74.7305 23.6636L33.5952 64.7989C31.252 67.142 31.252 70.941 33.5952 73.2841L50.627 90.316C52.9702 92.6592 56.7692 92.6592 59.1123 90.316L100.248 49.1807C102.591 46.8376 102.591 43.0386 100.248 40.6954L83.2158 23.6636C80.8726 21.3204 77.0736 21.3204 74.7305 23.6636Z" fill="#D2DCE4"/>
<path d="M65.8484 67.7892L57.2952 59.5214C55.7849 58.0614 56.204 55.5413 58.1055 54.6487L72.0754 48.0913C74.4994 46.9533 77.0864 49.321 76.1674 51.8366L70.7514 66.6618C70.0064 68.7008 67.4094 69.298 65.8484 67.7892Z" fill="#B6C3CE"/>
</g>
<path d="M294.007 0C294.007 0 290.097 5.80443 264.56 14.3908C238.52 23.1477 222.491 58.7709 222.491 58.7709C218.632 66.069 203.379 96.3908 203.379 96.3908C199.177 104.223 206.876 108.851 211.393 100.763C220.049 85.2385 225.638 71.0527 238.8 70.6503C258.002 70.0621 271.133 53.3999 267.001 54.1738C261.565 56.5265 249.579 54.3518 256.639 53.2684C273.586 51.9179 284.03 39.2604 280.626 38.4016C274.618 40.7 269.014 38.5177 267.916 37.8597C297.827 34.2455 294.007 0 294.007 0Z" fill="#B0BEC7"/>
</svg>
