<svg width="299" height="220" viewBox="0 0 299 220" fill="none" xmlns="http://www.w3.org/2000/svg">
<path d="M93.3479 187.631C97.8599 192.143 106.119 191.209 111.797 185.531C117.468 179.86 118.408 171.594 113.897 167.083L67.1809 124.19C62.6629 119.671 54.3964 120.612 48.7254 126.283C43.0544 131.954 42.1139 140.22 46.6324 144.738L93.3479 187.631Z" fill="#2C2C2C"/>
<path d="M4.7057 101.587C0.711704 97.5932 -0.980794 91.5711 2.16491 86C2.94731 84.6136 5.43091 82.718 6.67101 81.478C12.762 75.387 20.349 74.4628 26.7884 79.5049C29.8058 81.3421 35.0862 84.9249 35.0862 84.9249L41.162 89.9987L17.7801 114.662L4.7057 101.587Z" fill="#2C2C2C"/>
<path d="M4.61318 101.68C-0.400122 96.6656 -1.49692 89.6453 2.16058 85.9877C5.81358 82.3347 11.6972 83.1139 17.857 88.4357C20.6381 90.5091 25.5788 94.4316 25.5788 94.4316L31.4541 99.7056L17.6877 114.754L4.61318 101.68Z" fill="#242424"/>
<path d="M78.783 9.31868L7.36182 80.7397C7.36182 80.7397 40.6937 97.4057 41.9163 130.228C43.1389 163.05 90.985 176.41 90.985 176.41L167.989 99.4057C167.989 99.4057 116.342 80.0889 117.605 49.0206C118.501 26.9568 101.36 13.3921 91.349 7.38258C87.25 4.92198 82.163 5.93808 78.783 9.31868Z" fill="#2C2C2C"/>
<g opacity="0.5">
<path d="M88.7997 113.981L69.7176 133.736C67.498 136.034 67.6569 139.776 70.0724 142.094L85.117 156.534C87.5324 158.853 91.2899 158.869 93.5094 156.572L112.592 136.817C114.811 134.519 114.652 130.777 112.237 128.458L97.1922 114.018C94.7767 111.7 91.0193 111.683 88.7997 113.981Z" fill="#363636"/>
<path d="M107.673 131.587C109.148 132.039 109.691 133.866 108.665 134.926L91.2709 152.903C90.2889 153.917 88.5258 153.537 87.9368 152.185L80.0939 134.204C79.3539 132.509 81.0369 130.9 82.7199 131.693L90.7839 135.494C92.0249 136.079 93.4198 135.344 93.5708 134.026L94.0588 129.761C94.1958 128.563 95.3748 127.819 96.5608 128.182L107.673 131.587Z" fill="#484A52"/>
<path d="M89.8851 129.636C91.3752 128.087 91.2586 125.555 89.6245 123.98C87.9904 122.404 85.4578 122.383 83.9676 123.932C82.4775 125.482 82.5942 128.014 84.2283 129.589C85.8623 131.164 88.395 131.186 89.8851 129.636Z" fill="#545764"/>
</g>
<path d="M149.788 71.1406C149.788 71.1406 70.2958 110.62 89.9158 140.568C98.2678 153.315 97.3988 148.389 106.098 161.606C114.796 174.822 114.934 175.778 110.526 186.709L179.273 111.631L149.788 71.1406Z" fill="#2F2F31"/>
<path d="M202.726 104.12C207.739 109.134 216.839 108.151 223.055 101.935C229.27 95.7201 230.246 86.6124 225.24 81.6061C225.24 81.6061 186.008 40.3739 178.392 34.609C170.775 28.844 163.842 30.2914 157.626 36.5068C151.411 42.7223 150.435 51.8299 155.441 56.8362L202.726 104.12Z" fill="#333437"/>
<path d="M179.369 35.71L102.365 112.714C102.365 112.714 146.01 138.656 154.065 167.302C160.879 191.531 208.162 217.998 208.162 217.998L280.138 136.479C280.138 136.479 240.137 114.094 229.754 86.0949C219.37 58.0955 179.369 35.71 179.369 35.71Z" fill="#333437"/>
<path d="M157.647 36.5215L80.6431 113.526L93.0661 125.949L170.07 48.9454L157.647 36.5215Z" fill="#333437"/>
<path d="M80.6129 131.68C75.5999 126.666 76.0879 118.061 81.7019 112.447C87.3099 106.839 94.5589 106.253 100.943 111.351C103.913 113.235 109.126 116.885 109.126 116.885L113.847 120.622L93.6879 144.754L80.6129 131.68Z" fill="#2F2F31"/>
<path d="M277.366 127.121L206.238 198.249L223.449 215.46L294.577 144.332L277.366 127.121Z" fill="#373A42"/>
<path d="M206.077 216.482C210.589 220.993 218.848 220.06 224.526 214.382C230.197 208.711 231.137 200.445 226.626 195.933L184.023 153.33C179.504 148.812 171.238 149.752 165.567 155.423C159.896 161.094 158.956 169.36 163.474 173.879L206.077 216.482Z" fill="#333437"/>
<path d="M294.653 144.237C290.135 148.755 282.809 148.755 278.298 144.244L269.261 135.207L285.617 118.852L294.653 127.889C299.179 132.4 299.172 139.719 294.653 144.237Z" fill="#373A42"/>
<path d="M245.732 125.736L190.583 180.886C189.935 181.533 188.773 181.415 187.999 180.641C187.225 179.867 187.116 178.695 187.754 178.057L242.903 122.908C243.551 122.26 244.713 122.378 245.487 123.152C246.261 123.926 246.37 125.098 245.732 125.736Z" fill="#38393F"/>
<path d="M243.944 145.189L200.254 188.879C199.234 189.9 197.771 190.082 196.997 189.308C196.223 188.534 196.42 187.056 197.426 186.051L241.115 142.361C242.136 141.34 243.599 141.158 244.373 141.932C245.147 142.706 244.965 144.169 243.944 145.189Z" fill="#38393F"/>
<path d="M249.907 130.738L195.01 185.635C194.548 186.098 193.536 185.832 192.76 185.057C191.985 184.282 191.72 183.269 192.182 182.807L247.079 127.91C247.541 127.448 248.554 127.713 249.329 128.488C250.118 129.277 250.37 130.276 249.907 130.738Z" fill="#38393F"/>
<path d="M193.315 124.475C191.734 122.168 192.05 119.083 194.006 117.084L211.781 98.9155C214.405 96.2335 218.825 96.5865 221.086 99.5815C222.866 101.938 224.921 104.556 226.664 106.5C228.603 108.663 230.965 111.263 232.907 113.392C235.023 115.712 235.002 119.271 232.853 121.561L215.25 140.322C212.993 142.727 209.219 142.859 206.863 140.55C204.498 138.231 201.65 135.341 199.664 133C197.526 130.481 195.107 127.09 193.315 124.475Z" fill="#38393F"/>
<path d="M230.733 115.289C232.178 115.729 232.633 117.549 231.565 118.617L213.462 136.72C212.441 137.741 210.707 137.376 210.184 136.03L203.223 118.13C202.566 116.442 204.312 114.821 205.947 115.599L213.781 119.331C214.986 119.906 216.405 119.16 216.616 117.841L217.297 113.576C217.488 112.378 218.694 111.625 219.854 111.978L230.733 115.289Z" fill="#414248"/>
<path d="M212.708 113.439C214.271 111.877 214.271 109.344 212.708 107.782C211.146 106.22 208.614 106.22 207.052 107.782C205.489 109.344 205.489 111.877 207.052 113.439C208.614 115.001 211.146 115.001 212.708 113.439Z" fill="#414248"/>
<path d="M163.315 155.474C161.734 153.167 162.05 150.082 164.006 148.083L181.781 129.915C184.405 127.233 188.825 127.586 191.086 130.581C192.866 132.937 194.921 135.555 196.664 137.499C198.603 139.662 200.965 142.262 202.907 144.391C205.023 146.711 205.002 150.27 202.853 152.56L185.25 171.321C182.993 173.726 179.219 173.858 176.863 171.549C174.498 169.23 171.65 166.34 169.664 163.999C167.526 161.48 165.107 158.089 163.315 155.474Z" fill="#38393F"/>
<path d="M200.626 146.389C202.07 146.828 202.525 148.649 201.457 149.716L183.354 167.819C182.333 168.841 180.6 168.476 180.076 167.13L173.115 149.23C172.458 147.542 174.204 145.92 175.839 146.699L183.673 150.431C184.878 151.005 186.297 150.259 186.508 148.941L187.189 144.676C187.38 143.478 188.586 142.724 189.746 143.078L200.626 146.389Z" fill="#414248"/>
<path d="M182.597 144.539C184.159 142.977 184.159 140.445 182.597 138.883C181.035 137.32 178.502 137.32 176.94 138.883C175.378 140.445 175.378 142.977 176.94 144.539C178.502 146.101 181.035 146.101 182.597 144.539Z" fill="#414248"/>
<path d="M206.819 75.6934L149.161 133.352C148.484 134.029 147.298 133.935 146.524 133.161C145.75 132.386 145.665 131.19 146.332 130.523L203.991 72.8649C204.668 72.1878 205.854 72.2821 206.628 73.0562C207.402 73.8303 207.486 75.0263 206.819 75.6934Z" fill="#38393F"/>
<path d="M208.432 83.2603L153.535 138.157C153.073 138.619 152.06 138.354 151.285 137.578C150.51 136.803 150.245 135.791 150.707 135.328L205.604 80.4319C206.066 79.9696 207.079 80.2352 207.854 81.0103C208.643 81.7989 208.895 82.7981 208.432 83.2603Z" fill="#38393F"/>
<path d="M156.974 114.049L150.801 120.223C150.162 120.862 149.006 120.739 148.231 119.964C147.456 119.189 147.342 118.025 147.972 117.394L154.146 111.221C154.785 110.581 155.941 110.704 156.716 111.479C157.505 112.268 157.614 113.41 156.974 114.049Z" fill="#38393F"/>
<path d="M146.11 127.742C147.672 126.179 147.672 123.647 146.11 122.085C144.548 120.523 142.016 120.523 140.453 122.085C138.891 123.647 138.891 126.179 140.453 127.742C142.016 129.304 144.548 129.304 146.11 127.742Z" fill="#414248"/>
<path d="M115.448 106.996C112.634 104.769 112.391 100.586 114.929 98.0494L165.857 47.1207C167.979 44.999 171.342 44.7708 173.73 46.5865L189.26 58.3907C192.131 60.5725 192.442 64.7752 189.925 67.3565L139.441 119.124C137.295 121.325 133.832 121.547 131.422 119.64L115.448 106.996Z" fill="#38393F"/>
<path d="M166.684 81.0402C168.129 81.4798 168.584 83.3001 167.516 84.3678L149.413 102.471C148.392 103.492 146.658 103.127 146.135 101.781L139.173 83.881C138.517 82.1932 140.263 80.5717 141.898 81.3506L149.731 85.0824C150.937 85.6567 152.356 84.9109 152.566 83.5923L153.248 79.327C153.439 78.129 154.644 77.3759 155.805 77.7291L166.684 81.0402Z" fill="#414248"/>
<path d="M148.664 79.1858C150.227 77.6238 150.227 75.0911 148.664 73.529C147.102 71.9669 144.57 71.9669 143.008 73.529C141.446 75.0911 141.446 77.6238 143.008 79.1858C144.57 80.7479 147.102 80.7479 148.664 79.1858Z" fill="#414248"/>
<g opacity="0.5">
<path d="M112.777 67.6828L61.3832 119.077C60.7792 119.681 59.6529 119.527 58.8788 118.753C58.1047 117.979 57.9601 116.844 58.5547 116.249L109.949 64.8544C110.553 64.2508 111.679 64.4044 112.453 65.1785C113.227 65.9526 113.372 67.0882 112.777 67.6828Z" fill="#363636"/>
<path d="M113.94 75.7315L64.0872 125.584C63.6672 126.004 62.6892 125.704 61.9142 124.929C61.1392 124.154 60.8392 123.176 61.2592 122.756L111.111 72.9031C111.531 72.4833 112.51 72.7832 113.285 73.5583C114.073 74.347 114.36 75.3118 113.94 75.7315Z" fill="#363636"/>
</g>
<g opacity="0.5">
<path d="M72.5492 91.9785L66.3752 98.1517C65.7362 98.7907 64.5802 98.6687 63.8052 97.8937C63.0302 97.1187 62.9172 95.9537 63.5472 95.3237L69.7212 89.15C70.3602 88.5108 71.5162 88.6333 72.2912 89.4083C73.0792 90.197 73.1882 91.3392 72.5492 91.9785Z" fill="#363636"/>
<path d="M61.685 105.671C63.2471 104.109 63.2471 101.576 61.685 100.014C60.1229 98.4522 57.5902 98.4522 56.0281 100.014C54.466 101.576 54.466 104.109 56.0281 105.671C57.5902 107.233 60.1229 107.233 61.685 105.671Z" fill="#363636"/>
</g>
<g opacity="0.5">
<path d="M74.7271 23.665L33.5918 64.8003C31.2486 67.1435 31.2486 70.9425 33.5918 73.2856L50.6236 90.3175C52.9668 92.6606 56.7658 92.6606 59.1089 90.3175L100.244 49.1822C102.587 46.839 102.587 43.04 100.244 40.6969L83.2123 23.665C80.8692 21.3219 77.0702 21.3219 74.7271 23.665Z" fill="#363636"/>
<path d="M65.8452 67.7911L57.292 59.5233C55.7817 58.0633 56.2007 55.5432 58.1022 54.6506L72.0721 48.0932C74.4961 46.9552 77.0832 49.3229 76.1642 51.8385L70.7482 66.6637C70.0032 68.7027 67.4062 69.2999 65.8452 67.7911Z" fill="#484A52"/>
</g>
<path d="M294.006 0C294.006 0 290.096 5.80448 264.559 14.3908C238.519 23.1478 222.49 58.771 222.49 58.771C218.631 66.069 203.378 96.3908 203.378 96.3908C199.176 104.223 206.875 108.851 211.392 100.764C220.048 85.2385 225.637 71.0528 238.799 70.6504C258.001 70.0622 271.132 53.3999 267 54.1738C261.564 56.5265 249.578 54.3519 256.638 53.2684C273.585 51.918 284.029 39.2605 280.625 38.4016C274.617 40.7001 269.013 38.5178 267.915 37.8598C297.826 34.2455 294.006 0 294.006 0Z" fill="#4A5159"/>
</svg>
