<svg width="40" height="40" viewBox="0 0 40 40" fill="none" xmlns="http://www.w3.org/2000/svg">
<path d="M20 2.5C10.3477 2.5 2.5 10.3477 2.5 20C2.5 29.6523 10.3477 37.5 20 37.5C29.6523 37.5 37.5 29.6523 37.5 20C37.5 10.3477 29.6523 2.5 20 2.5Z" fill="#81B441"/>
<path d="M26.2974 9.95947C17.8127 10.5208 15.2508 18.4365 15.0338 22.4863C15.0338 23.1526 12.8942 21.8039 14.1669 15.9895C14.276 15.4911 14.1669 14.8958 14.1669 14.8958C9.74831 18.7823 10.1283 26.1306 15.5602 29.1181C19.7709 31.434 25.2448 29.9603 27.6659 25.6443C30.5081 20.6967 27.9817 10.9069 26.2974 9.95947Z" fill="white"/>
</svg>
