<svg width="40" height="40" viewBox="0 0 40 40" fill="none" xmlns="http://www.w3.org/2000/svg">
<circle cx="20" cy="20" r="17.5" fill="#00A82D"/>
<path d="M15.875 13.8055C15.875 14.0293 15.8568 14.4024 15.6386 14.6449C15.4021 14.8688 15.0383 14.8875 14.8201 14.8875C13.5922 14.8875 11.8889 14.5789 10.7276 15.0554C12.5 11.875 15.9336 9.76167 15.9114 9.94391C15.7478 11.2024 15.875 12.5397 15.875 13.8055ZM19.5492 28.2444C19.5492 26.696 20.786 25.4275 22.3139 25.4275C22.7686 25.4275 23.1324 25.8006 23.1324 26.2669C23.1324 26.5841 22.9687 26.8452 22.714 26.9945C22.4367 27.1651 22.0526 27.0855 21.8046 27.3116C21.6227 27.4609 21.4772 27.7034 21.4772 27.9645C21.4772 28.2444 21.5863 28.5055 21.7682 28.6921C22.0956 29.0279 22.5322 29.2144 23.0051 29.2144C24.2419 29.2144 25.2423 28.1884 25.2423 26.9199C25.2423 25.7819 24.4966 24.7745 23.5144 24.3268C22.0237 23.5624 19.7431 23.9974 19.5674 21.6032C19.294 22.8696 18.6909 25.129 17.0573 25.129C12.1225 25.4297 10.3438 21.4324 10 17.2007C10 16.2866 10.5457 15.671 11.2368 15.5777C12.4737 15.5777 13.7105 15.5777 14.9474 15.5777C15.584 15.5777 15.9478 15.4098 16.1842 15.1859C16.4934 14.8875 16.5662 14.4584 16.5662 13.9547C16.5662 12.6427 16.5662 10.625 16.5662 10.0185C16.5662 9.2265 17.2574 8.75 18.1486 8.75C18.6737 8.75 19.1664 8.76845 19.6765 8.89924C20.786 9.17906 21.0225 10.3357 21.0225 10.3357C21.0225 10.3357 23.1142 10.7088 24.1692 10.8953C25.1696 11.0819 27.6432 11.2498 28.1162 13.8055C29.2257 19.887 28.5527 25.7819 28.4981 25.7819C27.716 31.5276 23.0596 31.2478 23.0596 31.2478C21.367 31.2478 19.5492 30.0927 19.5492 28.2444ZM25.0059 18.3386C24.4056 18.2826 23.8963 18.5252 23.7144 18.9915C23.4567 19.6524 26.1154 20.202 26.1154 19.29C26.0426 18.7677 25.6061 18.4132 25.0059 18.3386Z" fill="white"/>
</svg>
