<svg width="40" height="40" viewBox="0 0 40 40" fill="none" xmlns="http://www.w3.org/2000/svg">
<path d="M37.5017 20.3888C37.5017 18.9499 37.3826 17.8999 37.1247 16.811H20.3589V23.3054H30.2001C30.0017 24.9193 28.9303 27.3499 26.5493 28.9832L26.5159 29.2006L31.817 33.2251L32.1843 33.261C35.5572 30.2082 37.5017 25.7165 37.5017 20.3888" fill="#4285F4"/>
<path d="M20.3576 37.5C25.179 37.5 29.2265 35.9443 32.183 33.261L26.548 28.9831C25.0401 30.0137 23.0163 30.7331 20.3576 30.7331C15.6355 30.7331 11.6276 27.6804 10.1989 23.4609L9.98946 23.4784L4.47736 27.659L4.40527 27.8554C7.34174 33.572 13.3735 37.5 20.3576 37.5Z" fill="#34A853"/>
<path d="M10.2003 23.461C9.8233 22.3721 9.60513 21.2053 9.60513 19.9998C9.60513 18.7942 9.8233 17.6276 10.1804 16.5387L10.1705 16.3068L4.58927 12.0591L4.40667 12.1442C3.1964 14.5165 2.50195 17.1804 2.50195 19.9998C2.50195 22.8193 3.1964 25.4831 4.40667 27.8553L10.2003 23.461" fill="#FBBC05"/>
<path d="M20.3577 9.26662C23.7109 9.26662 25.9727 10.6861 27.2625 11.8722L32.3021 7.05C29.207 4.23056 25.1791 2.5 20.3577 2.5C13.3735 2.5 7.34176 6.42775 4.40527 12.1444L10.1791 16.5389C11.6276 12.3194 15.6355 9.26662 20.3577 9.26662" fill="#EB4335"/>
</svg>
