<svg width="210" height="40" viewBox="0 0 210 40" fill="none" xmlns="http://www.w3.org/2000/svg">
<g clip-path="url(#clip0_8199_7059)">
<path d="M0 6C0 2.68629 2.68629 0 6 0H34C37.3137 0 40 2.68629 40 6V34C40 37.3137 37.3137 40 34 40H6C2.68629 40 0 37.3137 0 34V6Z" fill="url(#paint0_linear_8199_7059)"/>
<g filter="url(#filter0_d_8199_7059)">
<path d="M4 10C4 6.68629 6.68629 4 10 4H27C30.3137 4 33 6.68629 33 10V30C33 33.3137 30.3137 36 27 36H10C6.68629 36 4 33.3137 4 30V10Z" fill="url(#paint1_linear_8199_7059)"/>
</g>
<mask id="mask0_8199_7059" style="mask-type:alpha" maskUnits="userSpaceOnUse" x="4" y="24" width="29" height="12">
<path d="M4 27C4 25.3431 5.34315 24 7 24H30C31.6569 24 33 25.3431 33 27V30C33 33.3137 30.3137 36 27 36H10C6.68629 36 4 33.3137 4 30V27Z" fill="url(#paint2_linear_8199_7059)"/>
</mask>
<g mask="url(#mask0_8199_7059)">
<g filter="url(#filter1_d_8199_7059)">
<rect x="18" y="21" width="12" height="12" rx="3" fill="#7A8090"/>
</g>
<g filter="url(#filter2_d_8199_7059)">
<rect x="4" y="23" width="10" height="10" rx="3" fill="#7A8091"/>
</g>
</g>
<g filter="url(#filter3_dd_8199_7059)">
<path d="M4 10C4 6.68629 6.68629 4 10 4H30C33.3137 4 36 6.68629 36 10V20C36 22.2091 34.2091 24 32 24H4V10Z" fill="url(#paint3_linear_8199_7059)"/>
</g>
<path fill-rule="evenodd" clip-rule="evenodd" d="M10 4C6.68629 4 4 6.68629 4 10V27C4 25.3431 5.34315 24 7 24H16V10C16 6.68629 13.3137 4 10 4Z" fill="url(#paint4_linear_8199_7059)"/>
<rect x="20" y="8" width="12" height="12" rx="4" fill="#535964"/>
<path fill-rule="evenodd" clip-rule="evenodd" d="M4 12C4 9.79086 5.79086 8 8 8H13C15.2091 8 17 9.79086 17 12V16C17 18.2091 15.2091 20 13 20H12H8H7C5.50088 20 4.25858 21.0996 4.03563 22.5362C4.01213 22.3608 4 22.1818 4 22V16V12Z" fill="#535964"/>
</g>
<path d="M50.336 31V9.88H59.104C60.4053 9.88 61.568 9.99733 62.592 10.232C63.616 10.4453 64.4907 10.776 65.216 11.224C65.9627 11.672 66.528 12.2587 66.912 12.984C67.3173 13.688 67.52 14.5307 67.52 15.512C67.52 16.344 67.3387 17.0693 66.976 17.688C66.6347 18.3067 66.0907 18.808 65.344 19.192C64.6187 19.576 63.6587 19.8427 62.464 19.992V20.472C64.4907 20.6213 65.9733 21.1333 66.912 22.008C67.872 22.8613 68.352 24.0133 68.352 25.464C68.352 26.68 68.032 27.704 67.392 28.536C66.7733 29.3467 65.8347 29.9653 64.576 30.392C63.3173 30.7973 61.76 31 59.904 31H50.336ZM54.72 27.288H59.84C61.2053 27.288 62.2187 27.0853 62.88 26.68C63.5413 26.2533 63.872 25.6027 63.872 24.728C63.872 23.7253 63.456 22.9787 62.624 22.488C61.792 21.976 60.5333 21.72 58.848 21.72H54.72V27.288ZM54.72 18.84H58.176C59.84 18.84 61.056 18.616 61.824 18.168C62.6133 17.6987 63.008 17.016 63.008 16.12C63.008 15.224 62.656 14.5733 61.952 14.168C61.248 13.7413 60.1707 13.528 58.72 13.528H54.72V18.84ZM79.7638 31.448C78.3771 31.448 77.1398 31.256 76.0518 30.872C74.9851 30.488 74.0784 29.9333 73.3318 29.208C72.5851 28.4827 72.0091 27.5867 71.6038 26.52C71.2198 25.4533 71.0278 24.248 71.0278 22.904C71.0278 21.5813 71.2091 20.3653 71.5718 19.256C71.9558 18.1253 72.5104 17.1547 73.2358 16.344C73.9611 15.512 74.8464 14.872 75.8918 14.424C76.9371 13.976 78.1211 13.752 79.4438 13.752C80.7238 13.752 81.8651 13.9653 82.8678 14.392C83.8704 14.7973 84.7024 15.416 85.3638 16.248C86.0464 17.08 86.5371 18.104 86.8358 19.32C87.1558 20.5147 87.2731 21.8907 87.1878 23.448L74.0038 23.576V21.048L84.5318 20.952L82.8998 22.232C83.0491 21.1013 82.9744 20.1733 82.6758 19.448C82.3771 18.7227 81.9398 18.1893 81.3638 17.848C80.8091 17.5067 80.1904 17.336 79.5078 17.336C78.6971 17.336 77.9824 17.5493 77.3638 17.976C76.7451 18.4027 76.2651 19.032 75.9238 19.864C75.5824 20.6747 75.4118 21.656 75.4118 22.808C75.4118 24.6213 75.8064 25.9547 76.5958 26.808C77.4064 27.6613 78.4624 28.088 79.7638 28.088C80.3611 28.088 80.8624 28.0133 81.2678 27.864C81.6944 27.6933 82.0358 27.48 82.2918 27.224C82.5691 26.968 82.7824 26.68 82.9318 26.36C83.1024 26.04 83.2411 25.72 83.3478 25.4L87.3478 26.264C87.1558 27.0533 86.8678 27.768 86.4838 28.408C86.1211 29.0267 85.6304 29.5707 85.0118 30.04C84.3931 30.488 83.6464 30.8293 82.7718 31.064C81.9184 31.32 80.9158 31.448 79.7638 31.448ZM90.5495 31V20.824V14.2H94.3255L94.2935 19.224H94.9335C95.2108 18.008 95.6055 16.9947 96.1175 16.184C96.6295 15.3733 97.2695 14.7653 98.0375 14.36C98.8268 13.9547 99.7548 13.752 100.822 13.752C102.763 13.752 104.235 14.4347 105.238 15.8C106.262 17.1653 106.774 19.3093 106.774 22.232V31H102.134V22.744C102.134 20.952 101.867 19.6507 101.334 18.84C100.822 18.008 100.064 17.592 99.0615 17.592C98.2082 17.592 97.4935 17.8587 96.9175 18.392C96.3415 18.9253 95.9042 19.6293 95.6055 20.504C95.3282 21.3573 95.1788 22.3173 95.1575 23.384V31H90.5495ZM116.915 31.384C115.037 31.384 113.651 30.8933 112.755 29.912C111.88 28.9093 111.443 27.32 111.443 25.144V17.816H109.011L109.075 14.2H110.771C111.432 14.2 111.923 14.104 112.243 13.912C112.563 13.72 112.755 13.368 112.819 12.856L113.235 10.456H115.859V14.2H120.115V17.944H115.859V24.952C115.859 25.72 116.04 26.2747 116.403 26.616C116.765 26.9573 117.32 27.128 118.067 27.128C118.472 27.128 118.856 27.0853 119.219 27C119.603 26.9147 119.933 26.776 120.211 26.584V30.872C119.549 31.0853 118.941 31.224 118.387 31.288C117.832 31.352 117.341 31.384 116.915 31.384ZM130.884 31.448C129.199 31.448 127.716 31.1173 126.436 30.456C125.156 29.7733 124.154 28.7813 123.428 27.48C122.703 26.1573 122.34 24.5147 122.34 22.552C122.34 20.5893 122.703 18.9573 123.428 17.656C124.175 16.3547 125.188 15.384 126.468 14.744C127.77 14.0827 129.242 13.752 130.884 13.752C132.57 13.752 134.052 14.0827 135.332 14.744C136.634 15.4053 137.647 16.3973 138.372 17.72C139.119 19.0213 139.492 20.6533 139.492 22.616C139.492 24.6 139.108 26.2533 138.34 27.576C137.594 28.8773 136.57 29.848 135.268 30.488C133.988 31.128 132.527 31.448 130.884 31.448ZM131.044 28.024C131.876 28.024 132.57 27.832 133.124 27.448C133.7 27.064 134.127 26.488 134.404 25.72C134.703 24.9307 134.852 23.9813 134.852 22.872C134.852 21.6987 134.692 20.7067 134.372 19.896C134.074 19.064 133.626 18.4347 133.028 18.008C132.431 17.56 131.674 17.336 130.756 17.336C129.967 17.336 129.284 17.528 128.708 17.912C128.132 18.2747 127.695 18.8507 127.396 19.64C127.098 20.408 126.948 21.3573 126.948 22.488C126.948 24.3013 127.311 25.6773 128.036 26.616C128.762 27.5547 129.764 28.024 131.044 28.024ZM142.992 31V9.88H149.936L155.824 25.784H155.984L161.744 9.88H168.368V31H163.984L164.272 14.552H163.92L157.52 31H153.68L147.376 14.552H147.024L147.312 31H142.992ZM176.704 31.448C175.766 31.448 174.934 31.2667 174.208 30.904C173.483 30.52 172.918 29.976 172.512 29.272C172.107 28.568 171.904 27.6933 171.904 26.648C171.904 25.7307 172.075 24.9627 172.416 24.344C172.779 23.7253 173.302 23.224 173.984 22.84C174.667 22.456 175.51 22.136 176.512 21.88C177.515 21.624 178.656 21.4 179.936 21.208C180.619 21.1013 181.174 21.0053 181.6 20.92C182.048 20.8133 182.379 20.6533 182.592 20.44C182.806 20.2053 182.912 19.8747 182.912 19.448C182.912 18.8507 182.699 18.3387 182.272 17.912C181.846 17.4853 181.174 17.272 180.256 17.272C179.638 17.272 179.062 17.3787 178.528 17.592C178.016 17.8053 177.568 18.1253 177.184 18.552C176.822 18.9787 176.555 19.5227 176.384 20.184L172.32 18.936C172.576 18.0613 172.939 17.304 173.408 16.664C173.899 16.024 174.486 15.4907 175.168 15.064C175.851 14.616 176.63 14.2853 177.504 14.072C178.379 13.8587 179.328 13.752 180.352 13.752C181.995 13.752 183.328 14.0187 184.352 14.552C185.398 15.064 186.176 15.8747 186.688 16.984C187.2 18.072 187.456 19.48 187.456 21.208V24.088C187.456 24.8347 187.467 25.592 187.488 26.36C187.531 27.128 187.574 27.9067 187.616 28.696C187.68 29.464 187.744 30.232 187.808 31H183.744C183.659 30.4667 183.574 29.8587 183.488 29.176C183.424 28.472 183.371 27.768 183.328 27.064H182.752C182.454 27.8747 182.027 28.6107 181.472 29.272C180.918 29.9333 180.235 30.4667 179.424 30.872C178.635 31.256 177.728 31.448 176.704 31.448ZM178.656 28.12C179.062 28.12 179.467 28.0453 179.872 27.896C180.299 27.7467 180.704 27.544 181.088 27.288C181.494 27.0107 181.856 26.6693 182.176 26.264C182.518 25.8587 182.795 25.4 183.008 24.888L182.944 22.2L183.68 22.36C183.296 22.6373 182.848 22.8613 182.336 23.032C181.824 23.1813 181.291 23.2987 180.736 23.384C180.203 23.4693 179.67 23.5653 179.136 23.672C178.603 23.7787 178.123 23.9173 177.696 24.088C177.291 24.2587 176.96 24.4933 176.704 24.792C176.47 25.0693 176.352 25.464 176.352 25.976C176.352 26.6373 176.566 27.16 176.992 27.544C177.419 27.928 177.974 28.12 178.656 28.12ZM191.487 31V20.824V14.2H195.263L195.231 19.224H195.871C196.148 18.008 196.543 16.9947 197.055 16.184C197.567 15.3733 198.207 14.7653 198.975 14.36C199.764 13.9547 200.692 13.752 201.759 13.752C203.7 13.752 205.172 14.4347 206.175 15.8C207.199 17.1653 207.711 19.3093 207.711 22.232V31H203.071V22.744C203.071 20.952 202.804 19.6507 202.271 18.84C201.759 18.008 201.002 17.592 199.999 17.592C199.146 17.592 198.431 17.8587 197.855 18.392C197.279 18.9253 196.842 19.6293 196.543 20.504C196.266 21.3573 196.116 22.3173 196.095 23.384V31H191.487Z" fill="#2F3236"/>
<defs>
<filter id="filter0_d_8199_7059" x="1" y="2" width="35" height="38" filterUnits="userSpaceOnUse" color-interpolation-filters="sRGB">
<feFlood flood-opacity="0" result="BackgroundImageFix"/>
<feColorMatrix in="SourceAlpha" type="matrix" values="0 0 0 0 0 0 0 0 0 0 0 0 0 0 0 0 0 0 127 0" result="hardAlpha"/>
<feMorphology radius="1" operator="dilate" in="SourceAlpha" result="effect1_dropShadow_8199_7059"/>
<feOffset dy="1"/>
<feGaussianBlur stdDeviation="1"/>
<feComposite in2="hardAlpha" operator="out"/>
<feColorMatrix type="matrix" values="0 0 0 0 0 0 0 0 0 0 0 0 0 0 0 0 0 0 0.08 0"/>
<feBlend mode="normal" in2="BackgroundImageFix" result="effect1_dropShadow_8199_7059"/>
<feBlend mode="normal" in="SourceGraphic" in2="effect1_dropShadow_8199_7059" result="shape"/>
</filter>
<filter id="filter1_d_8199_7059" x="16" y="21" width="16" height="16" filterUnits="userSpaceOnUse" color-interpolation-filters="sRGB">
<feFlood flood-opacity="0" result="BackgroundImageFix"/>
<feColorMatrix in="SourceAlpha" type="matrix" values="0 0 0 0 0 0 0 0 0 0 0 0 0 0 0 0 0 0 127 0" result="hardAlpha"/>
<feOffset dy="2"/>
<feGaussianBlur stdDeviation="1"/>
<feComposite in2="hardAlpha" operator="out"/>
<feColorMatrix type="matrix" values="0 0 0 0 0 0 0 0 0 0 0 0 0 0 0 0 0 0 0.16 0"/>
<feBlend mode="normal" in2="BackgroundImageFix" result="effect1_dropShadow_8199_7059"/>
<feBlend mode="normal" in="SourceGraphic" in2="effect1_dropShadow_8199_7059" result="shape"/>
</filter>
<filter id="filter2_d_8199_7059" x="2" y="23" width="14" height="14" filterUnits="userSpaceOnUse" color-interpolation-filters="sRGB">
<feFlood flood-opacity="0" result="BackgroundImageFix"/>
<feColorMatrix in="SourceAlpha" type="matrix" values="0 0 0 0 0 0 0 0 0 0 0 0 0 0 0 0 0 0 127 0" result="hardAlpha"/>
<feOffset dy="2"/>
<feGaussianBlur stdDeviation="1"/>
<feComposite in2="hardAlpha" operator="out"/>
<feColorMatrix type="matrix" values="0 0 0 0 0 0 0 0 0 0 0 0 0 0 0 0 0 0 0.16 0"/>
<feBlend mode="normal" in2="BackgroundImageFix" result="effect1_dropShadow_8199_7059"/>
<feBlend mode="normal" in="SourceGraphic" in2="effect1_dropShadow_8199_7059" result="shape"/>
</filter>
<filter id="filter3_dd_8199_7059" x="-1" y="-1" width="44" height="32" filterUnits="userSpaceOnUse" color-interpolation-filters="sRGB">
<feFlood flood-opacity="0" result="BackgroundImageFix"/>
<feColorMatrix in="SourceAlpha" type="matrix" values="0 0 0 0 0 0 0 0 0 0 0 0 0 0 0 0 0 0 127 0" result="hardAlpha"/>
<feMorphology radius="2" operator="dilate" in="SourceAlpha" result="effect1_dropShadow_8199_7059"/>
<feOffset dx="1" dy="1"/>
<feGaussianBlur stdDeviation="2"/>
<feComposite in2="hardAlpha" operator="out"/>
<feColorMatrix type="matrix" values="0 0 0 0 0 0 0 0 0 0 0 0 0 0 0 0 0 0 0.16 0"/>
<feBlend mode="normal" in2="BackgroundImageFix" result="effect1_dropShadow_8199_7059"/>
<feColorMatrix in="SourceAlpha" type="matrix" values="0 0 0 0 0 0 0 0 0 0 0 0 0 0 0 0 0 0 127 0" result="hardAlpha"/>
<feOffset dy="2"/>
<feGaussianBlur stdDeviation="1"/>
<feComposite in2="hardAlpha" operator="out"/>
<feColorMatrix type="matrix" values="0 0 0 0 0 0 0 0 0 0 0 0 0 0 0 0 0 0 0.04 0"/>
<feBlend mode="normal" in2="effect1_dropShadow_8199_7059" result="effect2_dropShadow_8199_7059"/>
<feBlend mode="normal" in="SourceGraphic" in2="effect2_dropShadow_8199_7059" result="shape"/>
</filter>
<linearGradient id="paint0_linear_8199_7059" x1="20" y1="0" x2="20" y2="40" gradientUnits="userSpaceOnUse">
<stop stop-color="#E8EAEE"/>
<stop offset="1" stop-color="#DAE0EB"/>
</linearGradient>
<linearGradient id="paint1_linear_8199_7059" x1="18.5" y1="4" x2="18.5" y2="36" gradientUnits="userSpaceOnUse">
<stop stop-color="#FAFBFF"/>
<stop offset="1" stop-color="#F4F7FF"/>
</linearGradient>
<linearGradient id="paint2_linear_8199_7059" x1="18.5" y1="24" x2="18.5" y2="36" gradientUnits="userSpaceOnUse">
<stop stop-color="#334155"/>
<stop offset="1" stop-color="#595961"/>
</linearGradient>
<linearGradient id="paint3_linear_8199_7059" x1="20" y1="4" x2="20" y2="24" gradientUnits="userSpaceOnUse">
<stop stop-color="#F4F7FD"/>
<stop offset="1" stop-color="#DBE0EB"/>
</linearGradient>
<linearGradient id="paint4_linear_8199_7059" x1="10" y1="4" x2="10" y2="24" gradientUnits="userSpaceOnUse">
<stop stop-color="#F4F7FD"/>
<stop offset="1" stop-color="#DBE0EB"/>
</linearGradient>
<clipPath id="clip0_8199_7059">
<path d="M0 6C0 2.68629 2.68629 0 6 0H34C37.3137 0 40 2.68629 40 6V34C40 37.3137 37.3137 40 34 40H6C2.68629 40 0 37.3137 0 34V6Z" fill="white"/>
</clipPath>
</defs>
</svg>
