<svg width="312" height="224" viewBox="0 0 312 224" fill="none" xmlns="http://www.w3.org/2000/svg">
<path d="M133.573 79.3227L121.472 215.666C121.472 215.666 120.204 223.931 126.692 223.946C137.358 223.97 179.781 223.946 179.781 223.946C179.781 223.946 171.754 222.225 171.851 218.354C171.966 213.791 185.994 78.0327 185.994 78.0327L133.573 79.3227Z" fill="#A9B5BD"/>
<path d="M183.223 221.474C181.125 221.48 140.605 221.6 130.218 221.474C125.691 221.421 124.897 217.66 124.859 215.226C124.841 214.059 124.997 213.196 124.997 213.196L125.312 209.652L126.114 200.62L126.822 192.64L127.732 182.386L128.499 173.731L137.096 76.8496L189.518 75.5605C189.518 75.5605 183.61 132.375 179.431 173.731C178.964 178.339 178.52 182.757 178.11 186.881C177.976 188.198 177.849 189.485 177.724 190.739C177.337 194.652 176.983 198.245 176.674 201.417C176.512 203.09 176.362 204.643 176.226 206.067C175.693 211.644 175.381 215.206 175.377 215.883C175.374 216.278 175.41 216.645 175.479 216.986C176.339 221.332 182.435 221.474 183.223 221.474Z" fill="#B3C1CD"/>
<path d="M11.9965 4.64111C9.38425 4.64111 7.473 7.10434 8.12192 9.63475L35.7394 117.327L39.7749 132.692L53.5024 184.949H308.538L259.129 13.3213C257.649 8.18123 252.946 4.64111 247.598 4.64111H11.9965Z" fill="#BCCAD2"/>
<path d="M11.65 4.6499L4.12107 6.33188C1.88207 6.83208 0.52169 9.10909 1.14232 11.3177L2.01797 14.4339L12.6962 11.1697L11.65 4.6499Z" fill="#A9B5BD"/>
<path d="M7.68678 7.90332L4.5816 8.67422C2.41415 9.21231 1.10712 11.421 1.67856 13.5799L48.0702 188.85L53.5012 184.947L7.68678 7.90332Z" fill="#A9B5BD"/>
<path d="M48.0752 188.851H301.541L308.541 184.949H53.5062L48.0752 188.851Z" fill="#B3C1CD"/>
<path d="M137.083 224H191.962V221.529H137.083V224Z" fill="#B0BEC7"/>
<path d="M178.009 188.852L177.726 190.741L125.19 211.422L126.823 192.643L127.161 188.852H178.009Z" fill="#ACBDC9"/>
<path d="M165.535 148.547L53.5019 184.949L39.7739 132.692L165.535 148.547Z" fill="#B5C5CE"/>
<path d="M8.13016 9.64041C7.4774 7.10877 9.38902 4.64174 12.0035 4.64174L247.598 4.64114C252.947 4.64112 257.65 8.18071 259.13 13.3203L298.359 149.541L44.2297 149.649L8.13016 9.64041Z" fill="#D6DFE5"/>
<path d="M186.517 172.67C188.797 170.288 188.173 166.23 185.121 163.605C182.069 160.981 177.747 160.784 175.466 163.166C173.185 165.548 173.81 169.606 176.861 172.23C179.913 174.855 184.236 175.051 186.517 172.67Z" fill="#A3B2BF"/>
<path d="M286.905 143.387H51.2604L24.574 42.6421L22.5287 34.9163L20.9724 28.4366L16.8389 12.7681H249.004L253.137 28.4366L255.35 34.9163L257.597 42.6421L286.905 143.387Z" fill="#C0CDD8"/>
<path d="M253.137 28.4366H20.9724L16.8389 12.7681H249.004L253.137 28.4366Z" fill="#DFE6EC"/>
<path d="M26.2962 19.8588C26.0157 18.7919 26.7005 17.9272 27.8263 17.9272C28.9521 17.9272 30.092 18.7922 30.3728 19.8588C30.6535 20.9257 29.9685 21.7904 28.8427 21.7904C27.7169 21.7904 26.577 20.9257 26.2962 19.8588Z" fill="#E72113"/>
<path d="M33.0703 19.8588C32.7895 18.7919 33.4745 17.9272 34.6003 17.9272C35.7261 17.9272 36.866 18.7922 37.1468 19.8588C37.4276 20.9257 36.7425 21.7904 35.6167 21.7904C34.4909 21.7904 33.351 20.9257 33.0703 19.8588Z" fill="#CC9200"/>
<path d="M40.3627 19.8588C40.082 18.7919 40.767 17.9272 41.8928 17.9272C43.0186 17.9272 44.1588 18.7922 44.4393 19.8588C44.72 20.9257 44.035 21.7904 42.9094 21.7904C41.7834 21.7904 40.6432 20.9257 40.3627 19.8588Z" fill="#3D8542"/>
<path d="M234.238 140.681H53.7419L24.4629 31.001H203.926L234.238 140.681Z" fill="#D0DAE1"/>
<path d="M140.202 140.681H118.157L85.0889 31.001H107.134L140.202 140.681Z" fill="#D3DAE0"/>
<path d="M259.04 58.6465H217.016L209.438 31.9785H251.117L259.04 58.6465Z" fill="#D3DAE0"/>
<path d="M144.338 134.803H63.0454L62.3564 132.191H143.649L144.338 134.803Z" fill="#4A5159"/>
<path d="M73.3791 134.803H63.0454L62.3564 132.191H72.6902L73.3791 134.803Z" fill="#1C468A"/>
<path d="M58.2198 40.7916H38.2412L37.5522 38.1802H57.5308L58.2198 40.7916Z" fill="#1C468A"/>
<path d="M48.5749 40.7916H38.2412L37.5522 38.1802H47.886L48.5749 40.7916Z" fill="#AB4727"/>
<path d="M104.378 40.7916H62.3544L61.6655 38.1802H103.689L104.378 40.7916Z" fill="#78ACEA"/>
<path d="M139.515 48.6251H69.934L69.2451 46.0137H138.826L139.515 48.6251Z" fill="#78ACEA"/>
<path d="M65.7989 48.6251H45.8203L45.1313 46.0137H65.1099L65.7989 48.6251Z" fill="#D07717"/>
<path d="M56.154 48.6251H45.8203L45.1313 46.0137H55.4651L56.154 48.6251Z" fill="#AB4727"/>
<path d="M73.378 56.4605H53.4119L52.7104 53.8491H72.689L73.378 56.4605Z" fill="#699DEE"/>
<path d="M63.7331 56.4605H53.4119L52.7104 53.8491H63.0442L63.7331 56.4605Z" fill="#AB4727"/>
<path d="M164.315 64.2935H85.0898L84.4009 61.6821H163.626L164.315 64.2935Z" fill="#78ACEA"/>
<path d="M141.534 80.0128H76.0864L75.3975 77.4014H140.845L141.534 80.0128Z" fill="#6B8191"/>
<path d="M86.4201 80.0128H76.0864L75.3975 77.4014H85.7312L86.4201 80.0128Z" fill="#AB4727"/>
<path d="M80.9566 64.2935H60.9684L60.2891 61.6821H80.2677L80.9566 64.2935Z" fill="#6E737B"/>
<path d="M71.3117 64.2935H60.9684L60.2891 61.6821H70.6228L71.3117 64.2935Z" fill="#AB4727"/>
<path d="M162.813 72.1305H68.6687L67.8662 69.519H161.69L162.813 72.1305Z" fill="#1C468A"/>
<path d="M78.8889 72.1305H68.6687L67.8662 69.519H78.2L78.8889 72.1305Z" fill="#AB4727"/>
<path d="M172.582 72.1305H112.646L111.958 69.519H171.893L172.582 72.1305Z" fill="#78ACEA"/>
<path d="M104.378 87.8009H83.7104L83.0215 85.1895H103.689L104.378 87.8009Z" fill="#699DEE"/>
<path d="M94.0442 87.8009H83.3771L83.0215 85.1895H93.6886L94.0442 87.8009Z" fill="#AB4727"/>
<path d="M145.713 87.8009H108.512L107.823 85.1895H145.024L145.713 87.8009Z" fill="#78ACEA"/>
<path d="M100.933 95.6305H80.2656L79.5767 93.019H100.244L100.933 95.6305Z" fill="#6E737B"/>
<path d="M90.5993 95.6305H79.9322L79.5767 93.019H90.2438L90.5993 95.6305Z" fill="#1C468A"/>
<path d="M186.359 111.3H84.3989L83.71 108.689H185.67L186.359 111.3Z" fill="#4A5159"/>
<path d="M94.0442 111.3H83.6878L83.0215 108.689H93.3589L94.0442 111.3Z" fill="#1C468A"/>
<path d="M174.648 111.3H134.001L133.312 108.689H173.959L174.648 111.3Z" fill="#D07717"/>
<path d="M120.225 56.4605H77.5117L76.8228 53.8491H119.536L120.225 56.4605Z" fill="#D07717"/>
<path d="M133.312 103.468H87.8432L87.1543 100.856H132.623L133.312 103.468Z" fill="#D07717"/>
<path d="M98.177 103.468H87.8432L87.1543 100.856H97.4881L98.177 103.468Z" fill="#AB4727"/>
<path d="M142.27 95.6305H105.068L104.379 93.019H141.581L142.27 95.6305Z" fill="#78ACEA"/>
<path d="M175.337 103.468H137.447L136.758 100.856H174.648L175.337 103.468Z" fill="#78ACEA"/>
<path d="M151.867 80.0128H125.688L124.999 77.4014H151.178L151.867 80.0128Z" fill="#78ACEA"/>
<path d="M160.181 119.136H80.956L80.2671 116.524H159.493L160.181 119.136Z" fill="#1C468A"/>
<path d="M129.869 111.3H109.202L108.513 108.689H129.18L129.869 111.3Z" fill="#699DEE"/>
<path d="M112.646 119.136H91.9785L91.2896 116.524H111.957L112.646 119.136Z" fill="#699DEE"/>
<path d="M166.381 126.969H125.735L125.046 124.358H165.692L166.381 126.969Z" fill="#D07717"/>
<path d="M139.513 126.969H102.312L101.623 124.358H138.825L139.513 126.969Z" fill="#532D84"/>
<path d="M98.1792 126.969H77.5117L76.8228 124.358H97.4903L98.1792 126.969Z" fill="#78ACEA"/>
<path d="M87.8454 126.969H77.1783L76.8228 124.358H87.4899L87.8454 126.969Z" fill="#1C468A"/>
<path d="M127.8 134.803H87.8432L87.1543 132.191H127.111L127.8 134.803Z" fill="#D07717"/>
<path d="M246.603 81.2728H228.538L228.385 80.6729H246.45L246.603 81.2728Z" fill="#4A5159"/>
<path d="M230.835 81.2728H228.538L228.385 80.6729H230.682L230.835 81.2728Z" fill="#1C468A"/>
<path d="M227.464 59.6707H223.025L222.872 59.0708H227.311L227.464 59.6707Z" fill="#1C468A"/>
<path d="M225.321 59.6707H223.025L222.872 59.0708H225.168L225.321 59.6707Z" fill="#AB4727"/>
<path d="M237.72 59.6707H228.382L228.229 59.0708H237.567L237.72 59.6707Z" fill="#78ACEA"/>
<path d="M245.53 61.4735H230.068L229.915 60.8735H245.377L245.53 61.4735Z" fill="#78ACEA"/>
<path d="M229.148 61.4735H224.709L224.556 60.8735H228.995L229.148 61.4735Z" fill="#F1A34F"/>
<path d="M227.005 61.4735H224.709L224.556 60.8735H226.852L227.005 61.4735Z" fill="#AB4727"/>
<path d="M230.833 63.2733H226.396L226.24 62.6733H230.68L230.833 63.2733Z" fill="#699DEE"/>
<path d="M228.69 63.2733H226.396L226.24 62.6733H228.537L228.69 63.2733Z" fill="#AB4727"/>
<path d="M251.04 65.0706H233.435L233.282 64.4707H250.887L251.04 65.0706Z" fill="#78ACEA"/>
<path d="M246.033 68.6693H231.458L231.291 68.0693H245.708L246.033 68.6693Z" fill="#6E737B"/>
<path d="M233.74 68.6693H231.319L231.291 68.0693H233.587L233.74 68.6693Z" fill="#AB4727"/>
<path d="M232.516 65.0706H228.074L227.923 64.4707H232.363L232.516 65.0706Z" fill="#6E737B"/>
<path d="M230.373 65.0706H228.074L227.923 64.4707H230.22L230.373 65.0706Z" fill="#AB4727"/>
<path d="M250.708 66.8714H229.787L229.609 66.2715H250.458L250.708 66.8714Z" fill="#1C468A"/>
<path d="M232.058 66.8714H229.787L229.609 66.2715H231.905L232.058 66.8714Z" fill="#AB4727"/>
<path d="M252.877 66.8714H239.558L239.405 66.2715H252.723L252.877 66.8714Z" fill="#78ACEA"/>
<path d="M237.723 70.47H233.13L232.977 69.8701H237.57L237.723 70.47Z" fill="#699DEE"/>
<path d="M235.426 70.47H233.056L232.977 69.8701H235.347L235.426 70.47Z" fill="#AB4727"/>
<path d="M246.907 70.47H238.64L238.487 69.8701H246.754L246.907 70.47Z" fill="#78ACEA"/>
<path d="M236.955 72.2728H232.363L232.209 71.6729H236.802L236.955 72.2728Z" fill="#6E737B"/>
<path d="M234.659 72.2728H232.288L232.209 71.6729H234.58L234.659 72.2728Z" fill="#1C468A"/>
<path d="M255.94 75.8685H233.283L233.13 75.2686H255.787L255.94 75.8685Z" fill="#4A5159"/>
<path d="M235.426 75.8685H233.125L232.977 75.2686H235.274L235.426 75.8685Z" fill="#1C468A"/>
<path d="M253.336 75.8685H244.303L244.15 75.2686H253.183L253.336 75.8685Z" fill="#F1A34F"/>
<path d="M241.242 63.2733H231.751L231.598 62.6733H241.089L241.242 63.2733Z" fill="#F1A34F"/>
<path d="M244.152 74.0721H234.049L233.896 73.4722H243.999L244.152 74.0721Z" fill="#F1A34F"/>
<path d="M236.345 74.0721H234.049L233.896 73.4722H236.192L236.345 74.0721Z" fill="#AB4727"/>
<path d="M246.143 72.2728H237.876L237.723 71.6729H245.989L246.143 72.2728Z" fill="#78ACEA"/>
<path d="M253.493 74.0721H245.073L244.92 73.4722H253.34L253.493 74.0721Z" fill="#78ACEA"/>
<path d="M248.283 68.6693H242.466L242.313 68.0693H248.13L248.283 68.6693Z" fill="#78ACEA"/>
<path d="M250.122 77.6712H232.517L232.364 77.0713H249.969L250.122 77.6712Z" fill="#1C468A"/>
<path d="M243.385 75.8685H238.792L238.639 75.2686H243.232L243.385 75.8685Z" fill="#699DEE"/>
<path d="M239.557 77.6712H234.965L234.812 77.0713H239.404L239.557 77.6712Z" fill="#699DEE"/>
<path d="M251.498 79.47H242.466L242.313 78.8701H251.345L251.498 79.47Z" fill="#F1A34F"/>
<path d="M245.532 79.47H237.265L237.112 78.8701H245.379L245.532 79.47Z" fill="#78ACEA"/>
<path d="M236.343 79.47H231.751L231.598 78.8701H236.19L236.343 79.47Z" fill="#78ACEA"/>
<path d="M234.047 79.47H231.677L231.598 78.8701H233.968L234.047 79.47Z" fill="#1C468A"/>
<path d="M242.928 81.2728H234.049L233.896 80.6729H242.775L242.928 81.2728Z" fill="#F1A34F"/>
<path d="M252.801 104.771H234.737L234.584 104.171H252.648L252.801 104.771Z" fill="#4A5159"/>
<path d="M237.033 104.771H234.737L234.584 104.171H236.88L237.033 104.771Z" fill="#1C468A"/>
<path d="M233.664 83.1751H229.225L229.072 82.5752H233.511L233.664 83.1751Z" fill="#1C468A"/>
<path d="M231.521 83.1751H229.225L229.072 82.5752H231.368L231.521 83.1751Z" fill="#AB4727"/>
<path d="M243.923 83.1751H234.584L234.431 82.5752H243.77L243.923 83.1751Z" fill="#78ACEA"/>
<path d="M251.73 84.9764H236.268L236.115 84.3765H251.577L251.73 84.9764Z" fill="#78ACEA"/>
<path d="M235.349 84.9764H230.909L230.756 84.3765H235.195L235.349 84.9764Z" fill="#F1A34F"/>
<path d="M233.205 84.9764H230.909L230.756 84.3765H233.052L233.205 84.9764Z" fill="#AB4727"/>
<path d="M237.033 86.7738H232.596L232.44 86.1738H236.88L237.033 86.7738Z" fill="#699DEE"/>
<path d="M234.89 86.7738H232.596L232.44 86.1738H234.737L234.89 86.7738Z" fill="#AB4727"/>
<path d="M257.24 88.5716H239.635L239.481 87.9717H257.087L257.24 88.5716Z" fill="#78ACEA"/>
<path d="M252.235 92.1756H237.66L237.493 91.5757H251.91L252.235 92.1756Z" fill="#6E737B"/>
<path d="M239.943 92.1756H237.521L237.493 91.5757H239.789L239.943 92.1756Z" fill="#AB4727"/>
<path d="M238.719 88.5716H234.277L234.126 87.9717H238.566L238.719 88.5716Z" fill="#6E737B"/>
<path d="M236.575 88.5716H234.277L234.126 87.9717H236.422L236.575 88.5716Z" fill="#AB4727"/>
<path d="M256.906 90.3758H235.986L235.808 89.7759H256.657L256.906 90.3758Z" fill="#1C468A"/>
<path d="M238.257 90.3758H235.986L235.808 89.7759H238.104L238.257 90.3758Z" fill="#AB4727"/>
<path d="M259.079 90.3758H245.761L245.607 89.7759H258.926L259.079 90.3758Z" fill="#78ACEA"/>
<path d="M243.922 93.9725H239.329L239.176 93.3726H243.769L243.922 93.9725Z" fill="#699DEE"/>
<path d="M241.626 93.9725H239.255L239.176 93.3726H241.547L241.626 93.9725Z" fill="#AB4727"/>
<path d="M253.107 93.9725H244.841L244.688 93.3726H252.954L253.107 93.9725Z" fill="#78ACEA"/>
<path d="M243.155 95.7728H238.563L238.41 95.1729H243.002L243.155 95.7728Z" fill="#6E737B"/>
<path d="M240.859 95.7728H238.489L238.41 95.1729H240.78L240.859 95.7728Z" fill="#1C468A"/>
<path d="M262.141 99.3724H239.484L239.331 98.7725H261.988L262.141 99.3724Z" fill="#4A5159"/>
<path d="M241.626 99.3724H239.324L239.176 98.7725H241.473L241.626 99.3724Z" fill="#1C468A"/>
<path d="M259.538 99.3724H250.506L250.353 98.7725H259.385L259.538 99.3724Z" fill="#F1A34F"/>
<path d="M247.444 86.7738H237.953L237.8 86.1738H247.291L247.444 86.7738Z" fill="#F1A34F"/>
<path d="M250.351 97.574H240.247L240.094 96.9741H250.198L250.351 97.574Z" fill="#F1A34F"/>
<path d="M242.544 97.574H240.247L240.094 96.9741H242.391L242.544 97.574Z" fill="#AB4727"/>
<path d="M252.342 95.7728H244.075L243.922 95.1729H252.189L252.342 95.7728Z" fill="#78ACEA"/>
<path d="M259.69 97.574H251.27L251.117 96.9741H259.537L259.69 97.574Z" fill="#78ACEA"/>
<path d="M254.485 92.1756H248.667L248.514 91.5757H254.332L254.485 92.1756Z" fill="#78ACEA"/>
<path d="M256.322 101.173H238.717L238.564 100.573H256.169L256.322 101.173Z" fill="#1C468A"/>
<path d="M249.588 99.3724H244.995L244.842 98.7725H249.435L249.588 99.3724Z" fill="#699DEE"/>
<path d="M245.758 101.173H241.165L241.012 100.573H245.605L245.758 101.173Z" fill="#699DEE"/>
<path d="M257.699 102.971H248.667L248.514 102.371H257.546L257.699 102.971Z" fill="#F1A34F"/>
<path d="M251.729 102.971H243.462L243.309 102.371H251.576L251.729 102.971Z" fill="#78ACEA"/>
<path d="M242.546 102.971H237.953L237.8 102.371H242.392L242.546 102.971Z" fill="#78ACEA"/>
<path d="M240.249 102.971H237.879L237.8 102.371H240.17L240.249 102.971Z" fill="#1C468A"/>
<path d="M249.126 104.771H240.247L240.094 104.171H248.973L249.126 104.771Z" fill="#F1A34F"/>
<path d="M259.005 128.275H240.94L240.787 127.675H258.852L259.005 128.275Z" fill="#4A5159"/>
<path d="M243.237 128.275H240.94L240.787 127.675H243.083L243.237 128.275Z" fill="#1C468A"/>
<path d="M239.866 106.677H235.426L235.273 106.077H239.713L239.866 106.677Z" fill="#1C468A"/>
<path d="M237.722 106.677H235.426L235.273 106.077H237.569L237.722 106.677Z" fill="#AB4727"/>
<path d="M250.122 106.677H240.784L240.631 106.077H249.969L250.122 106.677Z" fill="#78ACEA"/>
<path d="M257.93 108.477H242.469L242.315 107.877H257.777L257.93 108.477Z" fill="#78ACEA"/>
<path d="M241.548 108.477H237.109L236.956 107.877H241.395L241.548 108.477Z" fill="#F1A34F"/>
<path d="M239.405 108.477H237.109L236.956 107.877H239.252L239.405 108.477Z" fill="#AB4727"/>
<path d="M243.233 110.281H238.796L238.64 109.681H243.08L243.233 110.281Z" fill="#699DEE"/>
<path d="M241.09 110.281H238.796L238.64 109.681H240.936L241.09 110.281Z" fill="#AB4727"/>
<path d="M263.442 112.078H245.837L245.684 111.478H263.289L263.442 112.078Z" fill="#78ACEA"/>
<path d="M258.436 115.677H243.86L243.693 115.077H258.11L258.436 115.677Z" fill="#6E737B"/>
<path d="M246.143 115.677H243.721L243.693 115.077H245.99L246.143 115.677Z" fill="#AB4727"/>
<path d="M244.917 112.078H240.476L240.325 111.478H244.764L244.917 112.078Z" fill="#6E737B"/>
<path d="M242.774 112.078H240.476L240.325 111.478H242.621L242.774 112.078Z" fill="#AB4727"/>
<path d="M263.107 113.877H242.186L242.008 113.277H262.857L263.107 113.877Z" fill="#1C468A"/>
<path d="M244.457 113.877H242.186L242.008 113.277H244.304L244.457 113.877Z" fill="#AB4727"/>
<path d="M265.279 113.877H251.96L251.807 113.277H265.126L265.279 113.877Z" fill="#78ACEA"/>
<path d="M250.125 117.477H245.532L245.379 116.877H249.972L250.125 117.477Z" fill="#699DEE"/>
<path d="M247.828 117.477H245.458L245.379 116.877H247.749L247.828 117.477Z" fill="#AB4727"/>
<path d="M259.306 117.477H251.039L250.886 116.877H259.153L259.306 117.477Z" fill="#78ACEA"/>
<path d="M249.357 119.279H244.764L244.611 118.679H249.203L249.357 119.279Z" fill="#6E737B"/>
<path d="M247.06 119.279H244.69L244.611 118.679H246.981L247.06 119.279Z" fill="#1C468A"/>
<path d="M268.341 122.875H245.684L245.531 122.275H268.188L268.341 122.875Z" fill="#4A5159"/>
<path d="M247.828 122.875H245.527L245.379 122.275H247.676L247.828 122.875Z" fill="#1C468A"/>
<path d="M265.738 122.875H256.705L256.552 122.275H265.584L265.738 122.875Z" fill="#F1A34F"/>
<path d="M253.645 110.281H244.153L244 109.681H253.491L253.645 110.281Z" fill="#F1A34F"/>
<path d="M256.552 121.076H246.448L246.295 120.476H256.399L256.552 121.076Z" fill="#F1A34F"/>
<path d="M248.745 121.076H246.448L246.295 120.476H248.592L248.745 121.076Z" fill="#AB4727"/>
<path d="M258.543 119.279H250.276L250.123 118.679H258.39L258.543 119.279Z" fill="#78ACEA"/>
<path d="M265.891 121.076H257.471L257.318 120.476H265.738L265.891 121.076Z" fill="#78ACEA"/>
<path d="M260.685 115.677H254.867L254.714 115.077H260.532L260.685 115.677Z" fill="#78ACEA"/>
<path d="M262.522 124.676H244.917L244.764 124.076H262.369L262.522 124.676Z" fill="#1C468A"/>
<path d="M255.786 122.875H251.193L251.04 122.275H255.633L255.786 122.875Z" fill="#699DEE"/>
<path d="M251.958 124.676H247.365L247.212 124.076H251.805L251.958 124.676Z" fill="#699DEE"/>
<path d="M263.9 126.479H254.867L254.714 125.879H263.747L263.9 126.479Z" fill="#F1A34F"/>
<path d="M257.931 126.479H249.664L249.511 125.879H257.778L257.931 126.479Z" fill="#78ACEA"/>
<path d="M248.746 126.479H244.153L244 125.879H248.593L248.746 126.479Z" fill="#78ACEA"/>
<path d="M246.449 126.479H244.079L244 125.879H246.37L246.449 126.479Z" fill="#1C468A"/>
<path d="M255.328 128.275H246.448L246.295 127.675H255.175L255.328 128.275Z" fill="#F1A34F"/>
<path d="M246.067 130.183H241.628L241.475 129.583H245.914L246.067 130.183Z" fill="#1C468A"/>
<path d="M243.924 130.183H241.628L241.475 129.583H243.771L243.924 130.183Z" fill="#AB4727"/>
<path d="M256.322 130.183H246.983L246.83 129.583H256.168L256.322 130.183Z" fill="#78ACEA"/>
<path d="M264.131 131.978H248.669L248.516 131.378H263.978L264.131 131.978Z" fill="#78ACEA"/>
<path d="M247.749 131.978H243.31L243.157 131.378H247.596L247.749 131.978Z" fill="#F1A34F"/>
<path d="M245.606 131.978H243.31L243.157 131.378H245.453L245.606 131.978Z" fill="#AB4727"/>
<path d="M249.436 133.781H245L244.844 133.181H249.283L249.436 133.781Z" fill="#699DEE"/>
<path d="M247.293 133.781H245L244.844 133.181H247.14L247.293 133.781Z" fill="#AB4727"/>
<path d="M269.642 135.579H252.036L251.883 134.979H269.488L269.642 135.579Z" fill="#78ACEA"/>
<path d="M264.636 139.179H250.061L249.894 138.579H264.31L264.636 139.179Z" fill="#2F3236"/>
<path d="M252.343 139.179H249.921L249.894 138.579H252.19L252.343 139.179Z" fill="#AB4727"/>
<path d="M251.118 135.579H246.676L246.525 134.979H250.964L251.118 135.579Z" fill="#2F3236"/>
<path d="M248.974 135.579H246.676L246.525 134.979H248.821L248.974 135.579Z" fill="#AB4727"/>
<path d="M269.307 137.381H248.386L248.208 136.781H269.057L269.307 137.381Z" fill="#1C468A"/>
<path d="M250.657 137.381H248.386L248.208 136.781H250.504L250.657 137.381Z" fill="#AB4727"/>
<path d="M271.478 137.381H258.159L258.006 136.781H271.325L271.478 137.381Z" fill="#78ACEA"/>
<path d="M256.324 140.976H251.731L251.578 140.376H256.171L256.324 140.976Z" fill="#699DEE"/>
<path d="M254.028 140.976H251.657L251.578 140.376H253.949L254.028 140.976Z" fill="#AB4727"/>
<path d="M265.51 140.976H257.243L257.09 140.376H265.357L265.51 140.976Z" fill="#78ACEA"/>
<path d="M259.844 133.781H250.353L250.2 133.181H259.691L259.844 133.781Z" fill="#F1A34F"/>
<path d="M266.887 139.179H261.07L260.917 138.579H266.734L266.887 139.179Z" fill="#78ACEA"/>
<path d="M238.334 57.7684H220.27L220.117 57.1685H238.181L238.334 57.7684Z" fill="#4A5159"/>
<path d="M222.566 57.7684H220.27L220.117 57.1685H222.413L222.566 57.7684Z" fill="#1C468A"/>
<path d="M219.198 36.1683H214.758L214.605 35.5684H219.045L219.198 36.1683Z" fill="#1C468A"/>
<path d="M217.054 36.1683H214.758L214.605 35.5684H216.901L217.054 36.1683Z" fill="#AB4727"/>
<path d="M229.454 36.1683H220.116L219.963 35.5684H229.301L229.454 36.1683Z" fill="#78ACEA"/>
<path d="M237.264 37.972H221.802L221.649 37.3721H237.111L237.264 37.972Z" fill="#78ACEA"/>
<path d="M220.881 37.972H216.441L216.288 37.3721H220.728L220.881 37.972Z" fill="#F1A34F"/>
<path d="M218.737 37.972H216.441L216.288 37.3721H218.584L218.737 37.972Z" fill="#AB4727"/>
<path d="M222.567 39.7674H218.13L217.975 39.1675H222.414L222.567 39.7674Z" fill="#699DEE"/>
<path d="M220.424 39.7674H218.13L217.975 39.1675H220.271L220.424 39.7674Z" fill="#AB4727"/>
<path d="M242.772 41.5677H225.167L225.014 40.9678H242.619L242.772 41.5677Z" fill="#78ACEA"/>
<path d="M237.767 45.1683H223.191L223.024 44.5684H237.441L237.767 45.1683Z" fill="#6E737B"/>
<path d="M225.474 45.1683H223.052L223.024 44.5684H225.321L225.474 45.1683Z" fill="#AB4727"/>
<path d="M224.249 41.5677H219.808L219.657 40.9678H224.096L224.249 41.5677Z" fill="#6E737B"/>
<path d="M222.106 41.5677H219.808L219.657 40.9678H221.953L222.106 41.5677Z" fill="#AB4727"/>
<path d="M242.44 43.3699H221.519L221.341 42.77H242.19L242.44 43.3699Z" fill="#1C468A"/>
<path d="M223.79 43.3699H221.519L221.341 42.77H223.637L223.79 43.3699Z" fill="#AB4727"/>
<path d="M244.609 43.3699H231.291L231.138 42.77H244.456L244.609 43.3699Z" fill="#78ACEA"/>
<path d="M229.454 46.9681H224.862L224.708 46.3682H229.301L229.454 46.9681Z" fill="#699DEE"/>
<path d="M227.158 46.9681H224.788L224.708 46.3682H227.079L227.158 46.9681Z" fill="#AB4727"/>
<path d="M238.64 46.9681H230.373L230.22 46.3682H238.487L238.64 46.9681Z" fill="#78ACEA"/>
<path d="M228.689 48.7674H224.096L223.943 48.1675H228.536L228.689 48.7674Z" fill="#6E737B"/>
<path d="M226.393 48.7674H224.022L223.943 48.1675H226.314L226.393 48.7674Z" fill="#1C468A"/>
<path d="M247.674 52.369H225.017L224.864 51.769H247.521L247.674 52.369Z" fill="#4A5159"/>
<path d="M227.158 52.369H224.857L224.708 51.769H227.006L227.158 52.369Z" fill="#1C468A"/>
<path d="M245.07 52.369H236.038L235.885 51.769H244.917L245.07 52.369Z" fill="#F1A34F"/>
<path d="M232.975 39.7674H223.484L223.331 39.1675H232.822L232.975 39.7674Z" fill="#F1A34F"/>
<path d="M235.882 50.5677H225.779L225.625 49.9678H235.729L235.882 50.5677Z" fill="#F1A34F"/>
<path d="M228.075 50.5677H225.779L225.625 49.9678H227.922L228.075 50.5677Z" fill="#AB4727"/>
<path d="M237.877 48.7674H229.61L229.457 48.1675H237.724L237.877 48.7674Z" fill="#78ACEA"/>
<path d="M245.223 50.5677H236.803L236.65 49.9678H245.07L245.223 50.5677Z" fill="#78ACEA"/>
<path d="M240.017 45.1683H234.2L234.047 44.5684H239.864L240.017 45.1683Z" fill="#78ACEA"/>
<path d="M241.854 54.1712H224.249L224.096 53.5713H241.701L241.854 54.1712Z" fill="#1C468A"/>
<path d="M235.119 52.369H230.526L230.373 51.769H234.966L235.119 52.369Z" fill="#699DEE"/>
<path d="M231.291 54.1712H226.698L226.545 53.5713H231.138L231.291 54.1712Z" fill="#699DEE"/>
<path d="M243.232 55.9666H234.2L234.047 55.3667H243.079L243.232 55.9666Z" fill="#F1A34F"/>
<path d="M237.262 55.9666H228.995L228.842 55.3667H237.109L237.262 55.9666Z" fill="#78ACEA"/>
<path d="M228.076 55.9666H223.484L223.331 55.3667H227.923L228.076 55.9666Z" fill="#78ACEA"/>
<path d="M225.78 55.9666H223.41L223.331 55.3667H225.701L225.78 55.9666Z" fill="#1C468A"/>
<path d="M234.658 57.7684H225.779L225.625 57.1685H234.505L234.658 57.7684Z" fill="#F1A34F"/>
<path d="M33.7077 81.3161H18.7038C16.7028 81.3161 14.7219 79.7787 14.2787 77.8824L2.9895 28.7648C2.54631 26.8685 3.80872 25.3311 5.80977 25.3311H20.8137C22.8147 25.3311 24.7956 26.8685 25.2388 28.7648L36.528 77.8837C36.9712 79.7787 35.7074 81.3161 33.7077 81.3161Z" fill="#B0BEC7"/>
<path d="M35.0012 80.0877H19.9973C17.9962 80.0877 16.0153 78.5503 15.5721 76.654L4.28295 28.3541C3.83977 26.4578 5.10218 24.9204 7.10323 24.9204H22.1071C24.1082 24.9204 26.0891 26.4578 26.5323 28.3541L37.8214 76.6553C38.2646 78.5503 37.0009 80.0877 35.0012 80.0877Z" fill="#E1E8EE"/>
<path d="M28.282 35.7822H6.03271V35.8732H28.282V35.7822Z" fill="#A9B5BD"/>
<path d="M30.9383 47.165H8.68896V47.256H30.9383V47.165Z" fill="#A9B5BD"/>
<path d="M33.6028 58.5435H11.3535V58.6344H33.6028V58.5435Z" fill="#A9B5BD"/>
<path d="M19.6419 32.4242C19.6701 32.1798 18.5205 27.9927 18.5205 27.9927L22.5992 31.1235L20.5954 31.056L19.6419 32.4242Z" fill="#5D6770"/>
<path d="M29.7628 67.6757L23.9614 74.7378L24.4637 75.1084L30.2651 68.0463L29.7628 67.6757Z" fill="#AB4727"/>
<path d="M31.9339 75.1419H24.0318L22.2832 67.6636H30.1854L31.9339 75.1419ZM24.385 74.7245H31.3873L29.8348 68.0785H22.8325L24.385 74.7245Z" fill="#545764"/>
<path d="M26.2556 70.8893H18.8034L17.1528 63.8271H24.6051L26.2556 70.8893Z" fill="#1C468A"/>
<path d="M9.60821 32.4237C9.63641 32.1793 8.48682 27.9922 8.48682 27.9922L12.5655 31.123L10.5617 31.0556L9.60821 32.4237Z" fill="#5D6770"/>
<path d="M11.1906 40.7166H10.5902L10.3525 39.6997H14.4285L14.6568 40.6759H14.0565L13.9612 40.2686H11.0858L11.1906 40.7166Z" fill="#5D6770"/>
<path d="M13.5086 43.2015H12.907L12.1562 39.9893H12.7579L13.5086 43.2015Z" fill="#5D6770"/>
<path d="M14.047 43.4058H12.4596L12.3267 42.8369H13.9141L14.047 43.4058Z" fill="#5D6770"/>
<path d="M22.1749 43.7586L21.6323 43.3882L24.4956 39.1196L25.0382 39.49L22.1749 43.7586Z" fill="#5D6770"/>
<path d="M15.2992 53.7103C14.1522 53.7103 13.0134 52.827 12.7596 51.7401C12.5057 50.6533 13.2323 49.77 14.3779 49.77C15.5248 49.77 16.6636 50.6533 16.9175 51.7401C17.1713 52.8257 16.4447 53.7103 15.2992 53.7103ZM14.4987 50.2893C13.6553 50.2893 13.1208 50.9396 13.3075 51.7389C13.4942 52.5381 14.3322 53.1885 15.1756 53.1885C16.019 53.1885 16.5535 52.5381 16.3668 51.7389C16.1815 50.9396 15.3435 50.2893 14.4987 50.2893Z" fill="#5D6770"/>
<path d="M19.2525 55.4203C19.1813 55.4203 19.1021 55.3936 19.0363 55.3414L16.2724 53.1359C16.1435 53.0328 16.1072 52.8673 16.1932 52.7681C16.2791 52.6688 16.4537 52.6713 16.5827 52.7744L19.3465 54.98C19.4755 55.0831 19.5117 55.2485 19.4258 55.3478C19.3855 55.3962 19.3224 55.4203 19.2525 55.4203Z" fill="#5D6770"/>
<path d="M25.2406 49.584L26.2693 51.3683H28.2502L26.9059 52.4717L27.9346 54.2573L26.0746 53.1539L24.7303 54.2573L24.925 52.4717L23.0649 51.3683H25.0459L25.2406 49.584Z" fill="#5D6770"/>
<path d="M248.26 2.92517L250.662 14.3744C251.044 15.9898 249.754 17.2991 247.778 17.2991H188.739C186.764 17.2991 184.853 15.9898 184.471 14.3744L182.069 2.92517C182.054 2.86246 182.041 2.80227 182.034 2.73956C181.787 1.2095 183.053 0.000488281 184.952 0.000488281H243.992C245.891 0.000488281 247.73 1.21075 248.207 2.73956C248.228 2.80227 248.244 2.86372 248.26 2.92517Z" fill="#B0BEC7"/>
<path d="M248.259 2.92517L250.661 13.0687C251.043 14.6841 249.753 15.9934 247.777 15.9934H190.116C188.141 15.9934 186.23 14.6841 185.848 13.0687L183.446 2.92517C183.431 2.86246 183.418 2.80226 183.411 2.73956C183.164 1.2095 184.43 0.000488281 186.329 0.000488281H243.991C245.89 0.000488281 247.73 1.21075 248.206 2.73956C248.227 2.80226 248.243 2.86372 248.259 2.92517Z" fill="#EBF0F4"/>
<path d="M190.243 11.4197H189.678L188.184 5.10889H188.749L190.243 11.4197Z" fill="#5D6770"/>
<path d="M194.14 7.71266H190.088L189.666 5.92676H193.718L194.14 7.71266Z" fill="#5D6770"/>
<path d="M196.029 10.2745H190.694L190.272 8.4873H195.607L196.029 10.2745Z" fill="#5D6770"/>
<path d="M203.206 11.4197H202.639L201.145 5.10889H201.711L203.206 11.4197Z" fill="#5D6770"/>
<path d="M204.072 7.71266H200.019L199.596 5.92676H203.648L204.072 7.71266Z" fill="#5D6770"/>
<path d="M205.318 10.2745H199.983L199.561 8.4873H204.896L205.318 10.2745Z" fill="#5D6770"/>
<path d="M216.169 11.4197H215.603L214.109 5.10889H214.675L216.169 11.4197Z" fill="#5D6770"/>
<path d="M214.002 7.71266H209.95L209.526 5.92676H213.579L214.002 7.71266Z" fill="#5D6770"/>
<path d="M214.608 10.2745H209.273L208.85 8.4873H214.184L214.608 10.2745Z" fill="#5D6770"/>
<path d="M224.462 5.61755H217.803L217.676 5.08203H224.335L224.462 5.61755Z" fill="#5D6770"/>
<path d="M220.671 6.12061L221.58 9.9608H219.695L218.786 6.12061H220.671Z" fill="#5D6770"/>
<path d="M223.373 6.12061L224.571 11.1761H222.685L221.488 6.12061H223.373Z" fill="#5D6770"/>
<path d="M234.944 8.53308H228.284L228.157 7.99756H234.817L234.944 8.53308Z" fill="#5D6770"/>
<path d="M230.515 6.34277L231.426 10.1842H229.54L228.631 6.34277H230.515Z" fill="#5D6770"/>
<path d="M233.074 5.73779L234.272 10.7933H232.386L231.19 5.73779H233.074Z" fill="#5D6770"/>
<path d="M245.431 11.4706H238.771L238.644 10.9351H245.304L245.431 11.4706Z" fill="#5D6770"/>
<path d="M240.402 6.54443L241.311 10.3846H239.426L238.517 6.54443H240.402Z" fill="#5D6770"/>
<path d="M242.817 5.32861L244.013 10.3841H242.128L240.931 5.32861H242.817Z" fill="#5D6770"/>
<path d="M309.372 165.532H241.008C239.138 165.532 238.134 164.978 237.851 163.423L231.258 129.387C231.392 128.227 233.032 127.278 234.903 127.278H301.784C303.655 127.278 304.739 127.995 304.942 129.387L311.986 163.037C312.125 164.315 311.242 165.532 309.372 165.532Z" fill="#B0BEC7"/>
<path d="M309.163 163.121H242.867C240.996 163.121 239.993 162.566 239.709 161.011L233.953 129.628C234.087 128.468 234.202 127.478 236.072 127.478H301.576C303.447 127.478 304.53 128.196 304.734 129.587L311.777 160.626C311.916 161.904 311.034 163.121 309.163 163.121Z" fill="#DFE6EC"/>
<path d="M307.158 150.796L309.371 159.072C309.295 160.088 308.486 160.913 307.567 160.913H243.693C242.774 160.913 241.645 160.07 241.573 159.072L238.135 138.795C238.26 137.14 240.548 136.444 241.474 137.783C243.866 141.241 246.961 145.707 251.193 147.917C252.815 148.761 253.929 149.274 255.671 149.274C261.728 149.274 266.294 142.466 272.445 137.292C276.217 134.12 277.44 131.56 282.401 131.56C292.757 131.56 289.604 147.505 298.057 149.685C299.687 150.107 299.817 150.016 302.075 149.198C303.284 148.761 306.702 149.685 307.158 150.796Z" fill="black" fill-opacity="0.04"/>
<path d="M307.157 150.796L309.37 159.073C309.293 160.089 308.484 160.914 307.565 160.914H243.692C242.773 160.914 241.644 160.07 241.571 159.073L239.889 149.26C241.059 150.923 242.814 151.786 244.277 151.478C245.739 151.17 247.014 150.603 250.419 147.597C253.824 144.591 254.221 143.162 258.316 140.113C262.411 137.064 266.506 137.896 271.186 140.113C275.866 142.331 278.791 146.833 282.301 149.199C285.811 151.564 290.783 150.03 291.953 149.199C293.123 148.367 302.983 142.053 304.738 140.945L307.157 150.796Z" fill="black" fill-opacity="0.16"/>
<path d="M244.004 152.58C243.934 152.58 243.878 152.517 243.878 152.437C243.878 152.361 243.934 152.297 244.004 152.297V152.293C244.074 152.293 244.129 152.361 244.129 152.437C244.129 152.517 244.074 152.585 244.004 152.585C244.004 152.585 244.004 152.585 244.004 152.58ZM242.741 152.5C242.741 152.5 242.741 152.5 242.745 152.5C242.675 152.496 242.623 152.424 242.631 152.344C242.638 152.264 242.7 152.209 242.771 152.217C242.84 152.226 242.888 152.298 242.881 152.374C242.873 152.45 242.818 152.505 242.756 152.505C242.752 152.505 242.748 152.505 242.741 152.5ZM245.122 152.374C245.115 152.294 245.163 152.222 245.233 152.213C245.303 152.204 245.365 152.259 245.373 152.34C245.38 152.42 245.332 152.492 245.262 152.5C245.258 152.5 245.251 152.5 245.247 152.5C245.185 152.5 245.13 152.446 245.122 152.374ZM241.497 152.28C241.431 152.264 241.387 152.187 241.398 152.108C241.412 152.031 241.479 151.981 241.548 151.993C241.615 152.01 241.659 152.086 241.648 152.166C241.633 152.234 241.582 152.28 241.523 152.28C241.516 152.28 241.505 152.28 241.497 152.28ZM246.352 152.137C246.333 152.057 246.374 151.981 246.444 151.96C246.51 151.943 246.576 151.989 246.594 152.065C246.613 152.141 246.569 152.222 246.502 152.243C246.502 152.243 246.502 152.243 246.502 152.239C246.491 152.243 246.48 152.243 246.473 152.243C246.414 152.243 246.363 152.201 246.352 152.137ZM286.603 152.196C286.533 152.196 286.478 152.133 286.478 152.052C286.478 151.972 286.537 151.909 286.603 151.909C286.673 151.909 286.728 151.972 286.728 152.052C286.728 152.133 286.673 152.196 286.603 152.196ZM287.725 151.994C287.718 151.913 287.769 151.842 287.836 151.837C287.906 151.825 287.968 151.884 287.976 151.964C287.983 152.044 287.932 152.116 287.862 152.125C287.858 152.125 287.854 152.125 287.851 152.125C287.787 152.124 287.733 152.069 287.725 151.994ZM285.344 152.108C285.278 152.099 285.226 152.027 285.237 151.947C285.245 151.866 285.307 151.812 285.377 151.82C285.447 151.833 285.495 151.905 285.488 151.981C285.477 152.057 285.425 152.111 285.362 152.111C285.355 152.112 285.351 152.112 285.344 152.108ZM240.275 151.934C240.209 151.913 240.169 151.833 240.187 151.757C240.21 151.681 240.275 151.635 240.346 151.656C240.412 151.681 240.448 151.757 240.43 151.837C240.416 151.901 240.364 151.939 240.309 151.939C240.297 151.939 240.286 151.939 240.275 151.934ZM288.962 151.795C288.947 151.715 288.991 151.639 289.061 151.626C289.128 151.609 289.194 151.66 289.208 151.74C289.223 151.816 289.179 151.892 289.109 151.909C289.101 151.909 289.094 151.913 289.087 151.913C289.028 151.913 288.973 151.863 288.962 151.795ZM284.107 151.846C284.037 151.829 283.997 151.752 284.015 151.673C284.03 151.596 284.096 151.55 284.166 151.567C284.233 151.584 284.273 151.664 284.258 151.74C284.243 151.807 284.192 151.85 284.137 151.85C284.126 151.85 284.115 151.85 284.107 151.846ZM247.544 151.728C247.518 151.652 247.552 151.567 247.618 151.542C247.68 151.513 247.754 151.55 247.779 151.622C247.802 151.698 247.772 151.782 247.706 151.807C247.691 151.816 247.676 151.82 247.662 151.82C247.61 151.82 247.562 151.782 247.544 151.728ZM290.18 151.478C290.161 151.398 290.198 151.318 290.268 151.296C290.335 151.275 290.404 151.322 290.423 151.398C290.441 151.474 290.4 151.554 290.335 151.575C290.324 151.58 290.312 151.584 290.301 151.584C290.246 151.584 290.194 151.541 290.18 151.478ZM282.9 151.428C282.834 151.402 282.801 151.318 282.823 151.246C282.848 151.17 282.919 151.132 282.985 151.157C283.052 151.186 283.085 151.267 283.062 151.343C283.044 151.402 282.993 151.436 282.941 151.436C282.926 151.436 282.911 151.436 282.9 151.428ZM248.689 151.157C248.655 151.09 248.681 151.001 248.743 150.963C248.806 150.929 248.88 150.958 248.913 151.03C248.942 151.098 248.92 151.186 248.858 151.22C248.839 151.233 248.821 151.237 248.799 151.237C248.755 151.238 248.711 151.208 248.689 151.157ZM291.376 151.056C291.35 150.98 291.387 150.9 291.449 150.874L291.453 150.87C291.516 150.844 291.589 150.887 291.612 150.958C291.634 151.035 291.601 151.119 291.534 151.144C291.52 151.148 291.509 151.153 291.494 151.153C291.442 151.153 291.394 151.115 291.376 151.056ZM281.737 150.879C281.675 150.849 281.645 150.76 281.675 150.689C281.704 150.617 281.778 150.587 281.84 150.617C281.907 150.65 281.932 150.735 281.903 150.811C281.881 150.862 281.836 150.895 281.789 150.895C281.771 150.895 281.752 150.891 281.737 150.879ZM292.543 150.549C292.517 150.477 292.546 150.393 292.612 150.363C292.675 150.329 292.748 150.363 292.774 150.44C292.804 150.512 292.774 150.596 292.708 150.63C292.693 150.638 292.674 150.638 292.66 150.638C292.609 150.638 292.565 150.604 292.543 150.549ZM249.778 150.465C249.741 150.397 249.759 150.304 249.818 150.262C249.877 150.219 249.954 150.24 249.991 150.308C250.028 150.376 250.01 150.464 249.951 150.507C249.932 150.524 249.907 150.532 249.885 150.532C249.844 150.532 249.803 150.507 249.778 150.465ZM280.615 150.232C280.552 150.194 280.53 150.106 280.563 150.034C280.596 149.966 280.674 149.94 280.736 149.979C280.795 150.017 280.817 150.101 280.784 150.173C280.762 150.219 280.718 150.249 280.674 150.249C280.655 150.249 280.633 150.24 280.615 150.232ZM293.687 149.97C293.658 149.899 293.684 149.814 293.746 149.78C293.809 149.747 293.886 149.776 293.915 149.848C293.945 149.92 293.915 150.004 293.853 150.038C293.853 150.038 293.853 150.038 293.857 150.042C293.838 150.051 293.82 150.055 293.802 150.055C293.753 150.055 293.709 150.025 293.687 149.97ZM250.815 149.671C250.775 149.603 250.79 149.514 250.845 149.468C250.9 149.422 250.981 149.434 251.021 149.497C251.062 149.561 251.047 149.654 250.992 149.7C250.97 149.717 250.944 149.729 250.918 149.729C250.878 149.729 250.841 149.709 250.815 149.671ZM279.529 149.51C279.529 149.51 279.529 149.51 279.529 149.506C279.47 149.468 279.452 149.379 279.489 149.312C279.522 149.24 279.599 149.218 279.658 149.261C279.721 149.303 279.739 149.392 279.702 149.459C279.676 149.506 279.636 149.531 279.596 149.531C279.573 149.531 279.548 149.523 279.529 149.51ZM294.806 149.328C294.773 149.261 294.795 149.172 294.858 149.134C294.917 149.096 294.994 149.125 295.027 149.193C295.06 149.265 295.038 149.35 294.975 149.392C294.957 149.401 294.935 149.409 294.917 149.409C294.872 149.409 294.828 149.379 294.806 149.328ZM251.817 148.805C251.773 148.741 251.78 148.653 251.835 148.602C251.89 148.551 251.968 148.564 252.012 148.624C252.056 148.686 252.045 148.779 251.993 148.83C251.968 148.851 251.942 148.86 251.912 148.86C251.876 148.86 251.839 148.843 251.817 148.805ZM278.469 148.741C278.469 148.741 278.469 148.741 278.469 148.737C278.41 148.695 278.396 148.606 278.433 148.539C278.473 148.471 278.55 148.454 278.609 148.496C278.664 148.539 278.683 148.632 278.646 148.695C278.621 148.741 278.58 148.763 278.539 148.763C278.514 148.762 278.491 148.754 278.469 148.741ZM295.899 148.636C295.862 148.564 295.884 148.48 295.943 148.437C296.002 148.399 296.079 148.42 296.116 148.488C296.149 148.556 296.131 148.644 296.072 148.686C296.05 148.699 296.028 148.708 296.005 148.708C295.965 148.708 295.921 148.682 295.899 148.636ZM277.428 147.943C277.373 147.897 277.354 147.808 277.395 147.74C277.435 147.677 277.512 147.661 277.571 147.702C277.627 147.749 277.641 147.838 277.604 147.905C277.579 147.947 277.538 147.968 277.498 147.968C277.476 147.968 277.45 147.96 277.428 147.943ZM296.966 147.892C296.93 147.825 296.948 147.736 297.007 147.69C297.065 147.647 297.143 147.669 297.18 147.736C297.217 147.804 297.198 147.892 297.139 147.935C297.121 147.952 297.099 147.96 297.073 147.96C297.032 147.96 296.992 147.934 296.966 147.892ZM252.785 147.9C252.74 147.841 252.747 147.749 252.799 147.698C252.855 147.647 252.936 147.656 252.98 147.715C253.024 147.778 253.017 147.867 252.961 147.917C252.939 147.943 252.909 147.951 252.88 147.951C252.847 147.951 252.81 147.934 252.785 147.9ZM298.015 147.106C297.975 147.039 297.99 146.95 298.044 146.904C298.103 146.857 298.181 146.874 298.221 146.942C298.258 147.005 298.247 147.098 298.188 147.14C298.166 147.157 298.14 147.166 298.118 147.166C298.077 147.166 298.037 147.145 298.015 147.106ZM276.393 147.14C276.335 147.094 276.32 147.005 276.36 146.942C276.397 146.874 276.474 146.857 276.534 146.899C276.592 146.945 276.607 147.034 276.567 147.102C276.545 147.144 276.504 147.165 276.464 147.165C276.441 147.166 276.416 147.158 276.393 147.14ZM253.745 146.98C253.697 146.921 253.705 146.828 253.76 146.777C253.811 146.727 253.892 146.735 253.936 146.794C253.98 146.857 253.973 146.946 253.921 146.997C253.896 147.022 253.87 147.03 253.841 147.03C253.804 147.031 253.767 147.014 253.745 146.98ZM275.356 146.347C275.297 146.301 275.279 146.211 275.319 146.148C275.356 146.08 275.436 146.059 275.492 146.105C275.551 146.148 275.565 146.237 275.529 146.304C275.507 146.347 275.466 146.367 275.426 146.367C275.4 146.367 275.378 146.363 275.356 146.347ZM299.038 146.279C298.994 146.216 299.009 146.127 299.064 146.08C299.119 146.034 299.2 146.047 299.24 146.11C299.281 146.173 299.266 146.266 299.211 146.312C299.189 146.329 299.163 146.338 299.138 146.338C299.101 146.338 299.06 146.321 299.038 146.279ZM254.706 146.064C254.662 146.004 254.669 145.912 254.724 145.861C254.779 145.811 254.857 145.823 254.901 145.882C254.945 145.945 254.938 146.039 254.882 146.085C254.86 146.11 254.831 146.118 254.801 146.118C254.768 146.118 254.732 146.102 254.706 146.064ZM274.307 145.574C274.248 145.531 274.229 145.443 274.266 145.375C274.303 145.308 274.381 145.286 274.439 145.329C274.498 145.371 274.517 145.46 274.48 145.528C274.454 145.574 274.413 145.599 274.373 145.599C274.351 145.599 274.325 145.591 274.307 145.574ZM300.039 145.422C299.995 145.358 300.006 145.265 300.062 145.219C300.116 145.168 300.194 145.181 300.238 145.245C300.279 145.308 300.268 145.396 300.216 145.447C300.216 145.447 300.216 145.447 300.212 145.447C300.19 145.468 300.165 145.476 300.139 145.476C300.098 145.476 300.062 145.455 300.039 145.422ZM255.685 145.177C255.644 145.113 255.655 145.02 255.71 144.974C255.765 144.928 255.843 144.94 255.887 145.003C255.927 145.066 255.916 145.155 255.861 145.206C255.839 145.223 255.813 145.236 255.788 145.236C255.747 145.236 255.71 145.215 255.685 145.177ZM273.236 144.843C273.177 144.805 273.155 144.716 273.192 144.644C273.225 144.577 273.302 144.551 273.361 144.594C273.424 144.632 273.445 144.72 273.409 144.788C273.387 144.834 273.342 144.864 273.299 144.864C273.28 144.864 273.258 144.855 273.236 144.843ZM301.015 144.526C300.971 144.467 300.978 144.374 301.033 144.323C301.088 144.273 301.166 144.281 301.21 144.345C301.254 144.404 301.247 144.497 301.195 144.547C301.169 144.568 301.14 144.581 301.114 144.581C301.077 144.581 301.04 144.564 301.015 144.526ZM256.7 144.34C256.66 144.273 256.675 144.184 256.734 144.138C256.792 144.095 256.87 144.112 256.91 144.18C256.947 144.243 256.932 144.336 256.873 144.378C256.851 144.395 256.829 144.404 256.803 144.404C256.763 144.404 256.723 144.378 256.7 144.34ZM272.143 144.163C272.084 144.129 272.058 144.04 272.091 143.969C272.121 143.897 272.198 143.872 272.261 143.905C272.32 143.944 272.345 144.032 272.316 144.104C272.293 144.15 272.246 144.18 272.201 144.18C272.183 144.18 272.161 144.176 272.143 144.163ZM301.971 143.601C301.927 143.542 301.931 143.45 301.982 143.398H301.986C302.038 143.348 302.115 143.352 302.163 143.411C302.207 143.47 302.199 143.563 302.148 143.613C302.125 143.639 302.096 143.651 302.067 143.651C302.03 143.652 301.997 143.635 301.971 143.601ZM257.757 143.576C257.72 143.508 257.742 143.42 257.805 143.377C257.863 143.339 257.941 143.365 257.974 143.432C258.007 143.504 257.989 143.588 257.926 143.631C257.926 143.631 257.926 143.631 257.93 143.631C257.908 143.643 257.886 143.648 257.867 143.648C257.823 143.648 257.778 143.622 257.757 143.576ZM271.024 143.55C270.962 143.516 270.932 143.432 270.962 143.36C270.987 143.288 271.065 143.254 271.127 143.288C271.19 143.318 271.219 143.403 271.19 143.478C271.171 143.529 271.123 143.563 271.076 143.563C271.057 143.563 271.042 143.559 271.024 143.55ZM269.876 143.014C269.81 142.988 269.777 142.904 269.803 142.828C269.825 142.756 269.898 142.718 269.964 142.744C270.027 142.773 270.06 142.854 270.038 142.93C270.019 142.989 269.972 143.023 269.92 143.023C269.905 143.022 269.89 143.022 269.876 143.014ZM258.861 142.913C258.835 142.841 258.861 142.752 258.923 142.723C258.986 142.689 259.063 142.718 259.093 142.794C259.118 142.866 259.093 142.951 259.026 142.985C259.012 142.993 258.993 142.997 258.975 142.997C258.927 142.997 258.883 142.968 258.861 142.913ZM268.698 142.571C268.632 142.545 268.595 142.469 268.614 142.389C268.632 142.313 268.706 142.271 268.772 142.292C268.838 142.313 268.875 142.393 268.856 142.473C268.838 142.533 268.79 142.575 268.735 142.575C268.724 142.575 268.713 142.575 268.698 142.571ZM260.016 142.372C259.994 142.296 260.031 142.216 260.097 142.19C260.164 142.165 260.234 142.207 260.256 142.283C260.278 142.36 260.241 142.44 260.175 142.465C260.164 142.47 260.149 142.474 260.134 142.474C260.083 142.473 260.035 142.435 260.016 142.372ZM267.498 142.22C267.432 142.203 267.388 142.127 267.402 142.051C267.417 141.971 267.483 141.92 267.553 141.941C267.619 141.954 267.664 142.03 267.649 142.11C267.638 142.177 267.583 142.224 267.524 142.224C267.517 142.224 267.509 142.224 267.498 142.22ZM261.212 141.979C261.197 141.899 261.242 141.823 261.312 141.806C261.378 141.789 261.444 141.84 261.458 141.916C261.473 141.996 261.433 142.072 261.363 142.089C261.355 142.089 261.344 142.093 261.337 142.093C261.279 142.093 261.227 142.047 261.212 141.979ZM266.28 141.975C266.214 141.962 266.162 141.891 266.174 141.81C266.181 141.73 266.247 141.675 266.313 141.687H266.317C266.384 141.696 266.432 141.772 266.424 141.853C266.413 141.92 266.361 141.975 266.299 141.975C266.291 141.975 266.288 141.975 266.28 141.975ZM262.442 141.734C262.434 141.654 262.486 141.586 262.552 141.578C262.622 141.565 262.684 141.624 262.692 141.705C262.699 141.785 262.648 141.853 262.578 141.866C262.574 141.866 262.571 141.866 262.567 141.866C262.504 141.865 262.449 141.81 262.442 141.734ZM265.047 141.827C265.047 141.827 265.047 141.827 265.051 141.827C264.981 141.823 264.926 141.755 264.933 141.675C264.937 141.595 264.996 141.536 265.066 141.54C265.136 141.544 265.187 141.616 265.183 141.696C265.179 141.772 265.125 141.831 265.058 141.831C265.055 141.831 265.051 141.827 265.047 141.827ZM263.686 141.641C263.682 141.561 263.74 141.498 263.811 141.498C263.877 141.493 263.936 141.561 263.936 141.641C263.936 141.721 263.881 141.785 263.811 141.785C263.741 141.785 263.686 141.721 263.686 141.641Z" fill="#2F3236"/>
</svg>
