<svg xmlns="http://www.w3.org/2000/svg" id="Layer_1" data-name="Layer 1" viewBox="0 0 150 150"><defs><style>.cls-1{fill:none;stroke:#000;stroke-miterlimit:10;}</style></defs><title>Imperial College Logo</title><path class="cls-1" d="M76,19.89a3.32,3.32,0,0,0,.44-2.72,1.73,1.73,0,0,0-1.24-1.54c-.73-.16-.63.63-.91,1s-.79.91-1.43.6a1.3,1.3,0,0,1-.75-1.58,2.17,2.17,0,0,1,2.67-1.81c.73.12,1.44.36,2.21.55.29-.92-1.61-1.48-.27-2.44.5-.35.93-.63,1.54-.27,1,.59.89,1.47.37,2.53a16.32,16.32,0,0,1,2.07-.44,2.15,2.15,0,0,1,2.47,1.85,1.26,1.26,0,0,1-.71,1.59c-.65.26-1.09-.12-1.34-.7-.72-1.71-1.48-.6-2,.06a3,3,0,0,0-.35,2.73c.16.65.61,1.24,1.31.37.47-.57,1.15-.87,1.63-.35,1,1.07,2.07.93,3.28.81a2,2,0,0,1,1.44.3c1.46,1.38,3.67,1.19,5,2.23,1.93,1.44,3.77.72,5.66.84.92.06,1.56-.1,1.6-1.29s1-1.44,2.07-1.32,1.45.8,1.46,1.84a7.39,7.39,0,0,1-.65,2.75c-1.38,3.6-2.78,7.19-4.16,10.79-.74,1.92-.68,2,1.35,2.05,4.94,0,9.88,0,14.82,0,1.42,0,2,.33,2,1.91-.4,14-.72,28.09-1.08,42.14-.16,6.33,0,12.66-.45,19a51.12,51.12,0,0,1-2,11.16c-1.35,4.37-4.34,7.52-7.68,10.39a88.16,88.16,0,0,1-11.61,7.89c-4.79,3-9.53,6-14.27,9.06a2,2,0,0,1-2.54.12c-7-4.41-14-8.72-20.93-13.1-1.49-.94-2.86-2.08-4.31-3.11-6.11-4.32-8.81-10.5-9.84-17.68-1.11-7.74-.82-15.53-1.11-23.3-.49-13.41-.83-26.82-1.15-40.24-.12-5-.65-4.13,4-4.19q6.56-.07,13.11,0c1.53,0,2-.32,1.42-2-1.61-4.25-3.06-8.56-4.56-12.86-.76-2.16-.11-3.19,1.8-2.93a1.57,1.57,0,0,1,1.53,1.63c0,1.06.56,1.26,1.43,1.27,1.27,0,2.54.06,3.8.13,1.49.07,2.53-.78,3.76-1.44a19.1,19.1,0,0,1,5.94-1.79c.76-.12,1.37.29,2-.66S74.09,18.83,76,19.89Zm36.64,45.24h.09c0-1.78,0-3.55,0-5.32,0-1.11-.44-1.6-1.53-1.71-4.08-.45-8.16-1-12.29-.5a6.39,6.39,0,0,0-4.12,2.08c-2.49,2.69-5,5.39-7.62,7.95-6.35,6.2-14.86,6.11-21.09-.16-1.52-1.53-2.9-3.18-4.36-4.76a12.23,12.23,0,0,0-8-4.36c-3.76-.37-7.43.3-11.13.8-.9.13-1,.63-1,1.47.18,13,.64,26.07.61,39.11a34.15,34.15,0,0,0,1.93,12.13c2.24,6,6.89,9.68,12.09,12.91,6.24,3.87,12.45,7.78,18.57,11.83a3.29,3.29,0,0,0,4.19.13c6.28-3.92,12.48-8,18.86-11.74,8-4.73,13.1-11.64,13.55-21.15C112.06,90.94,112.27,78,112.66,65.13ZM77.8,20.77c-2,2.42-2.86,2.6-5.72,1.27-.6-.27-1.35-.55-1.82-.14-1.66,1.47-4.15.54-5.78,2.15-1.16,1.15-2.78,1-4.29,1-.95,0-1.9-.1-2.85-.06-1.5.06-2.92.14-2.5-2.1a.65.65,0,0,0-.75-.83c-.49.05-.56.5-.51.87A7.83,7.83,0,0,0,54,24.55c.9,2.57,1.89,5.1,2.71,7.69.44,1.39,1,1.73,2.45,1.23a52.08,52.08,0,0,1,16.8-2.57,63.8,63.8,0,0,1,18.72,2.55c1.64.49,2.49.33,3-1.46.77-2.47,1.85-4.84,2.77-7.26a7.19,7.19,0,0,0,.42-1.64c.06-.42.09-1-.53-1a.66.66,0,0,0-.61.95c.35,1-.09,1.83-.95,1.89-2.19.15-4.69.67-6.55-.15-2-.9-4.56-.65-6.2-2.6-.49-.6-1.54-.31-2.34,0C80.91,23.26,79.86,23,77.8,20.77ZM87.71,60c.12-1.2-.68-1.38-1.26-1.66a22.05,22.05,0,0,0-17-.86c-4.08,1.33-4.39,2.56-1.55,5.84.25.29.53.54.8.81a1.58,1.58,0,0,0,2.32.16c4.1-2.75,6.38-2.64,10.48.31.52.37,1,.77,1.71.55C84.67,64.71,87.63,61.2,87.71,60ZM46.61,45.94c-.76-1.17-.3-2.32-.44-3.39-.06-.43,0-1-.59-1s-.74.53-.75,1c0,3.16,0,6.33,0,9.49,0,.44,0,1,.58,1,.75.07.7-.54.76-1,.15-1.19-.32-2.46.44-3.81.81,1.19.38,2.33.48,3.4.08.75-.09,1.55,1.1,1.58.9,0,1.4-.19,1.58-1.16.08-.47-.08-1.34.73-1.31s.74.8.75,1.33c0,1.13.71,1,1.54,1.09,1.19.06.94-.71,1-1.37.1-.84-.28-1.76.36-2.59a8.19,8.19,0,0,1,.69,2.74c.19.81.53,1.39,1.53,1.3s1.11-.65,1.19-1.41c0-.46-.13-1.11.65-1.13s.62.63.69,1.09.09,1.36.81,1.27c.94-.11.55-1,.49-1.56-.33-2.82-.73-5.63-1.12-8.44-.09-.65,0-1.61-1-1.54-.79.06-.69.92-.77,1.53-.34,2.52-.67,5-1.06,7.88-1.1-3-1.47-5.61-.19-8.26.21-.43.51-1-.27-1.22-.62-.16-.91.29-1.09.8-.26.73-.51,1.46-.76,2.19a3.31,3.31,0,0,1-.21-1c-.16-.66.45-1.87-.61-1.83-.86,0-.58,1.24-.59,1.95,0,2.2,0,4.41,0,6.61-.59-2.41-.88-4.84-1.26-7.25-.09-.55,0-1.46-.89-1.43s-.64.81-.72,1.34c-.4,2.67-.78,5.35-1.16,8-.1-2.71-.09-5.42-.11-8.13,0-.48.1-1.15-.59-1.2-.87-.06-.66.71-.75,1.24C46.94,43.75,47.47,44.86,46.61,45.94Zm49.9-1.79c-.53-1-.34-2.65-1.86-2.8-1.77-.17-1.48,1.8-2.26,2.79-.21-.68-.36-1.22-.54-1.74s-.51-1-1.18-1.09a1.31,1.31,0,0,0-1.38,1.07,15.15,15.15,0,0,0,0,9.84,1.26,1.26,0,0,0,2.47,0c.26-.65.44-1.33.71-2.19.53,1.37.4,3.08,2,3.14s1.48-1.73,2.06-2.74c.54.88-.59,2.56,1.24,2.74,1.43.14,2.89,0,4.34,0,.68,0,1.09-.33,1.07-1s.19-1.4-.8-1.39c-1.19,0-1.09-.77-1.09-1.54,0-2.09,0-4.18,0-6.27,0-.51.24-1.32-.61-1.33S100,42.46,100,43c0,2.15,0,4.3,0,6.45,0,.62.1,1.32-.89,1.33s-1-.63-1-1.28c0-1.84,0-3.68,0-5.51,0-.8.48-2.19-.62-2.27-1.28-.08-.55,1.36-.81,2.1A3.11,3.11,0,0,1,96.51,44.15ZM80.15,49.8H80c0-2.27,0-4.54,0-6.82,0-.58.18-1.47-.75-1.44s-.54.87-.55,1.38c0,2.88,0,5.75,0,8.63-.58-1.67-1.24-3.27-.43-5.09A5.32,5.32,0,0,0,78,42.37c-.39-1-1.3-1-2.23-1-.75,0-1,.47-1,1.13,0,3.23,0,6.46,0,9.68,0,.37,0,.85.48.89s.66-.51.68-.93c0-.93,0-1.86,0-3a3.25,3.25,0,0,1,.88,2.31c.19,1.41.84,1.9,2.27,1.83,1.22,0,2.14-.13,2-1.69a.78.78,0,0,1,.61-.85.5.5,0,0,1,.63.52c.12,2.82,2.26,1.83,3.77,2a.81.81,0,0,0,1-.9c0-.53.27-1.4-.49-1.42-1.8,0-1.35-1.29-1.37-2.27,0-1.84,0-3.68,0-5.51,0-.54.34-1.48-.69-1.42-.79.05-.58.87-.59,1.39,0,2.72,0,5.44,0,8.16-.53-2.8-.94-5.6-1.33-8.4-.08-.55,0-1.3-.72-1.35s-.87.79-1,1.37C80.7,45.17,80.44,47.49,80.15,49.8ZM59.47,38.09H95.64C83.58,34.72,71.52,33.74,59.47,38.09Zm11.61,5.38c-.34-1.43-1-2.38-2.51-2.08s-.86,1.63-.9,2.5c-.1,2.21-.1,4.43,0,6.64,0,.86-.54,2.4.57,2.43s.52-1.5.7-2.34c.13-.58-.22-1.41.54-1.67,1.07-.37,1.27-1.29,1.65-2.16.1,1.62.08,3.21.11,4.79,0,.6-.12,1.38.7,1.58a3.35,3.35,0,0,0,2.23-.09c.55-.26.47-.84.46-1.35s-.19-.89-.75-.9c-.79,0-1.5,0-1.47-1.17,0-.91.23-1.42,1.21-1.52.8-.07.7-.75.72-1.32s-.17-1-.85-1c-.85.07-1.07-.37-1.06-1.15s.48-.93,1.11-.91c1,0,1.12-.6,1.09-1.39s-.57-1-1.27-1.06C71.73,41.09,71,41.77,71.08,43.47Zm-5.84,2.44c-.14-1.12-.29-2.18-.41-3.25-.07-.57,0-1.21-.84-1.23s-.91.7-.91,1.34q0,4.54,0,9.11a1.53,1.53,0,0,0,.07.75c.59.92.84.51,1.27-.21.16-.27.13.77.72.71a.75.75,0,0,0,.74-.71c.07-.5.08-1,.12-1.51a4.82,4.82,0,0,1,.12,1.25c0,.46.06,1,.67.93.44,0,.6-.44.6-.84q0-4.94,0-9.87a.85.85,0,0,0-.92-1c-.57,0-.75.41-.81.87C65.51,43.47,65.38,44.66,65.24,45.91ZM44.65,47.36a12.73,12.73,0,0,0-.51-4.67,1.84,1.84,0,0,0-2.21-1.31c-1.16.14-.89,1.06-.9,1.76,0,2.71,0,5.42,0,8.13,0,.73-.4,1.79.88,1.93a2,2,0,0,0,2.29-1.53A12.79,12.79,0,0,0,44.65,47.36Zm62.15,0a10.38,10.38,0,0,0,.47,4.16c.28.84.66,1.8,1.76,1.68a2,2,0,0,0,1.72-2,33.23,33.23,0,0,0,0-3.6c0-.87-.51-1-1.24-1s-.78.63-.86,1.22c-.1.74.57,1.08.73,1.66.13.42.12,1-.43,1.1s-.65-.4-.7-.72a17,17,0,0,1,0-5.28c0-.27.17-.67.56-.68s.52.3.6.61c.16.68.55.92,1,.34.67-.84,0-1.7-.2-2.51a1.37,1.37,0,0,0-1.38-1.09c-.86,0-1.2.65-1.46,1.3A11,11,0,0,0,106.8,47.4Zm4.24-.12h0c0,1.33,0,2.66,0,4,0,1.84.86,2.42,2.66,2,.72-.19.87-.64.87-1.26s-.09-1.17-.89-1.17-1.37,0-1.35-1.08c0-.84.1-1.49,1.14-1.57.78,0,.79-.65.8-1.25s-.19-1.11-1-1-1-.36-1-1.05.28-1,1-1c1.44-.05,1.27-1.12.91-1.9-.43-.93-1.46-.47-2.23-.49s-1,.5-1,1.15C111,44.12,111,45.7,111,47.28Zm-7.69,0h0v4.93c0,1.18.89,1,1.62,1s1.61.2,1.66-1c0-.8.06-1.56-1.1-1.48-.69.06-.86-.41-.84-1s-.22-1.36.68-1.54,1.22-.5,1.2-1.39-.51-1-1.23-1-.64-.49-.65-1,0-1.09.75-1c1.27.06,1.3-.76,1.16-1.62-.2-1.27-1.25-.75-2-.83-1-.12-1.32.43-1.3,1.37C103.38,44.25,103.35,45.77,103.35,47.28Zm-7.44-11.8c-8.17-4.12-32.53-4-37.84.22A65.73,65.73,0,0,1,95.91,35.48Zm-33,11.76c0-1.59,0-3.17,0-4.75,0-.45,0-1-.64-1-.44,0-.62.41-.62.81,0,3.3,0,6.59,0,9.88,0,.46.14.93.75.85s.5-.51.5-.89C62.9,50.53,62.89,48.88,62.89,47.24Z"></path><path class="cls-1" d="M72.91,78.79c-.44.42-.25,1-.21,1.44.87,10.21,1.77,20.43,2.6,30.64.14,1.74,1.34,1.07,2.21,1.24,1.11.22,1.21-.44,1.27-1.31.62-9.6,1.28-19.2,1.92-28.8,0-.56,0-1.14.14-1.7s0-1.42,1-1.28.53.85.49,1.36q-.73,9.28-1.5,18.55a51.31,51.31,0,0,0-.22,6.45q1.76-10.48,3.52-21c.21-1.24.42-2.49.72-3.72a2.16,2.16,0,0,1,2.45-1.91,35.8,35.8,0,0,1,9,2.3c1.59.72,2,1.66,1.33,3.45-2.24,5.58-4.26,11.24-6.43,16.84-.22.57-.06,2.07-1.4,1.36-1-.53-2.75-.56-2.09-2.68C89,95.71,90.18,91.3,91.4,86.91c.16-.55.72-1.34-.24-1.56-.74-.17-.75.7-.9,1.21-1.71,6-3.34,12.07-5.13,18.06-.56,1.88-.27,3.11,1.62,3.73,1.2.4,1.29,1,.91,2.15s-1,1.49-2.11,1.12c-1.83-.61-3.9-.38-5.57-1.7-.42,2,.91,3.78.56,5.76-.24,1.36-2.49,4.06-3.68,4-1.41-.07-3.46-2.47-3.43-4,0-1.08-.27-2.32.17-3.18.55-1.06.23-1.91.17-2.89-2.52,1.35-5.33,1.58-7.94,2.45-.48.16-1,.07-1-.47-.14-.94-1.28-1.84-.4-2.8s.7-1.91.36-3c-2.26-7-4.48-14.11-6.72-21.16a5.62,5.62,0,0,0-.22-.73c-1.13-2.46-1.14-2.47,1.6-3.27a41.33,41.33,0,0,1,7-1.63c2.15-.24,2.91.31,3.24,2.44,1,6.74,2.07,13.48,3.52,20.19-.23-3-.45-6-.69-9-.32-4.11-.61-8.21-1-12.31-.12-1.26.23-1.74,1.48-1.47Zm12.6,31.88c.65.12,1.34.06,1.51-.85s-.75-.94-1.24-1.08c-1.84-.51-2.49-1.68-2-3.43q2.66-10,5.39-20a1.5,1.5,0,0,1,2-1.24,1.59,1.59,0,0,1,1.27,2.15c-.26,1.11-.56,2.21-.88,3.3-1,3.34-1.9,6.69-2.94,10a1.14,1.14,0,0,0,.68,1.64c.6.29.78,0,.95-.49,2-5.72,4.08-11.43,6.1-17.15a1.33,1.33,0,0,0-1.11-2c-2.47-.56-4.92-1.18-7.39-1.75a1.59,1.59,0,0,0-2.13,1.53c-1.14,8.21-3,16.3-4.3,24.47-.69,4.1-.35,4.53,3.84,4.79Zm-12.61-3s0-.16,0-.29q-2.12-13-4.23-26a1.57,1.57,0,0,0-2.2-1.4c-1.84.43-3.7.84-5.55,1.26a6.07,6.07,0,0,0-2.35.61c-1.06.84.34,1.49.54,2.22,2,7.11,4.18,14.18,6.32,21.26a4.1,4.1,0,0,1-.23,3.78c-.5.76-.41,2.09,1.13,1.83a52.45,52.45,0,0,0,5.34-1.28A1.71,1.71,0,0,0,72.9,107.68Zm2.73,5.47a5.46,5.46,0,0,0,0,4.67Zm2.9.69-.24,0v3.47h.24Z"></path><path class="cls-1" d="M99.07,116.82c-.16,1.07.57,1.42,1,2s.48.82,0,1.29-.85.33-1.27-.08c-.94-.94-1.88-1.88-2.88-2.76-.34-.3-.58-1.16-1.32-.52s0,1.11.31,1.55c.73,1,1.49,1.89,2.25,2.83.37.46.73.87.07,1.42s-1,.21-1.41-.28c-.68-.83-1.33-1.69-2.05-2.49-.49-.55-.72-1.59-1.89-1-.36.18-.63-.33-.83-.64s.09-.69.37-.93c1-.85,2.06-1.67,3-2.57.58-.53,1-.35,1.45.1s.78,1.12,1.56,1.1c.45-1.39-2.52-1.48-1-3.26,1-1.11,1.78-1.87,3.31-1.1a5.06,5.06,0,0,0-.53-.73c-.61-.58-.76-1.19-.08-1.78.89-.77,1,.3,1.34.68,1.16,1.4,2.07,3,3.78,3.93a.74.74,0,0,1,.32,1.22c-.47.71-.92.48-1.41.09a10.75,10.75,0,0,0-5-1.87l-.38.44,3.92,3.49c.4.36.74.67.24,1.24s-.94.48-1.43,0S99.57,117.27,99.07,116.82Z"></path><path class="cls-1" d="M82.55,71.9c1-.64,1.77-1,1.55.79-.1.81-.11,1.64-.18,2.46-.27,2.92-1.32,3.79-4.27,3.7-.84,0-.88-.46-.87-1.1a29.73,29.73,0,0,0-.15-4.11,7.17,7.17,0,0,0-.3,3.69c.13,1.45-.52,1.66-1.72,1.64s-2.45-.61-3.7-.18l.06,0a4.13,4.13,0,0,0-1.17-.51c-1.27-.1-1.68-.81-1.75-2-.08-1.62-.28-3.23-.46-5l4.1,1.5c-.91,1.75-.46,3.51-.14,5.26a14.37,14.37,0,0,0,.11-5.31,15.73,15.73,0,0,0,8.9-.83c-1.16,1.91-.49,3.89-.51,5.84h.5ZM81,73.13a10.32,10.32,0,0,0,0,5A9.85,9.85,0,0,0,81,73.13Zm-9,4.51A6.4,6.4,0,0,0,72,73Zm3.86-3.88v4.59C76.27,76.8,76.6,75.26,75.9,73.76Zm1.33.1a8,8,0,0,0,0,4.51A7.87,7.87,0,0,0,77.23,73.86Z"></path><path class="cls-1" d="M46.69,84.37c1.64,0,3.28,0,4.91,0,.92,0,1.7.07,1.59,1.28s.32,2.68-1.38,2.88a39.75,39.75,0,0,1-5.12,0,1.2,1.2,0,0,1-1-.7c-.71-1.23-.32-4.53.7-5.62.47-.49.28-.78-.26-.94a1,1,0,0,1-.66-1.5c.26-.62.87-.29,1.34-.22,1.57.25,3.13.5,4.69.77.86.15,1.78.15,1.76,1.48s-1.08,1.2-1.87,1.37c-1.54.33-3.09.58-4.63.86Zm4.58,2.13a8.49,8.49,0,0,0-4.54,0A6.67,6.67,0,0,0,51.27,86.5Z"></path><path class="cls-1" d="M55.32,109.38c-1.93.44-3.59,1.53-5.4,2.26-.51.21-1.11.8-1.6-.12s.33-1.12.89-1.46,1.13-.27,1.35-1c-.84-.45-1.38.29-2,.5s-.94.38-1.27-.25-.13-1.06.51-1.34c1.1-.49,2.22-1,3.26-1.53.5-.27,1.6-.19,1.19-1.28s-1.07-.32-1.61-.22c-1.18.22-2.34.52-3.52.77-.53.11-1,.09-1.13-.62s.14-.93.73-1.06c1.23-.28,2.46-.57,3.68-.89.41-.11,1,0,1.17-.48.19-.67.38-1.29,1.2-1.07s.55,1.06.75,1.62a11.2,11.2,0,0,1,.86,3.07c.06,1.28-1.82.86-2.24,2,1.18.58,2-1.28,3.07-.35a1.11,1.11,0,0,1,0,1.54Z"></path><path class="cls-1" d="M68.62,124.39c.71-.22.94-.85,1.25-1.34.65-1,1.3-.84,2.2-.34,1.06.6.55,1.2.19,1.86-.79,1.43-1.56,2.88-2.39,4.29-.27.46-.36,1.34-1.32.84s-.4-1-.15-1.56c.12-.25.45-.46.25-.83-.94.09-.91,2-2.33,1.19-1.14-.67,0-1.47-.19-2.2-.6-.12-.57.46-.77.74s-.58.6-1.09.32-.58-.72-.29-1.24c1-1.71,1.91-3.41,2.83-5.14.35-.66.77-.77,1.37-.39s1.5.55,1.08,1.64A4.54,4.54,0,0,0,68.62,124.39Z"></path><path class="cls-1" d="M49.36,97.59h2.8c.52,0,1.05,0,1.09.71s-.37.88-1,.88H46.43c-.59,0-1-.25-1-.87s-.1-1.25.7-1.56a6.93,6.93,0,0,0,2.71-1.08H46.51c-.54,0-1-.11-1-.8s.4-.7.87-.76a43.5,43.5,0,0,1,6-.11c.62,0,.9.34.9,1s0,1.29-.78,1.51l-3.19.9Z"></path><path class="cls-1" d="M59.76,119l1.88-2.1c.36-.39.7-.48,1.12-.06s.51.7.12,1.13l-4.19,4.66a.68.68,0,0,1-1.13,0c-.48-.48-1.19-.83-.72-1.71a9.87,9.87,0,0,0,1-2.71c-.6.65-1.22,1.3-1.81,2a.7.7,0,0,1-1.14.08.71.71,0,0,1-.09-1.14c1.4-1.56,2.81-3.1,4.2-4.66.41-.45.73-.33,1.11,0s1.09.78.73,1.56-.89,1.81-1.34,2.71Z"></path><path class="cls-1" d="M106.7,73.59c.82.66,1.6.4,2.32.47.48,0,.88.12.88.73s-.26.86-.79.86c-2.08,0-4.17,0-6.25-.08-1.15-.06-.78-1.12-.78-1.8,0-1.07.28-2.28,1.56-2.14,1.75.2,3.45-.28,5.17-.1.48,0,1.06-.11,1.1.67s-.36,1-1,1A4,4,0,0,0,106.7,73.59Z"></path><path class="cls-1" d="M106.54,95.43c.63.89,1.38.79,2.08.84s.95.27.91.93-.43.75-.9.74c-2,0-4,0-6-.19-1.18-.09-.69-1.15-.73-1.8-.08-1,.07-2,1.35-2.08,1.85-.09,3.7,0,5.56-.06.53,0,.84.1.8.72s-.15.88-.73.89C108.08,95.44,107.31,95.43,106.54,95.43Z"></path><path class="cls-1" d="M48.58,72.91a3.4,3.4,0,0,0-2.37-.58c-.46-.06-.9-.08-.93-.7s.26-.93.89-.93c2,0,3.92,0,5.88-.06.94,0,1,.56,1,1.24-.05,1.1.29,2.54-1.3,2.74-1.89.23-3.82.17-5.73.24a.6.6,0,0,1-.72-.64c0-.59.12-1,.75-1.1S47.4,73,48.58,72.91Z"></path><path class="cls-1" d="M105.87,76.34h2.07c1.43,0,2,.73,2,2.11a1.88,1.88,0,0,1-2.1,2.1c-1.26,0-2.51,0-3.77-.08s-2.25-.53-2.22-2.13.83-2.11,2.28-2C104.74,76.37,105.31,76.34,105.87,76.34Zm2.18,2c-1.44-.15-2.88-.72-4.32,0A7.16,7.16,0,0,0,108.05,78.35Z"></path><path class="cls-1" d="M82.91,122.74c1.1-.07,1.6.74,1.88,1.55.61,1.7,2.62,3,1.7,5.11a2.08,2.08,0,0,1-3.75-.07c-.66-1.14-1.28-2.31-1.83-3.5A2.09,2.09,0,0,1,82.91,122.74Zm1.78,5.88a8.32,8.32,0,0,0-2-4A7.25,7.25,0,0,0,84.69,128.62Z"></path><path class="cls-1" d="M108.45,89.08c-1.74-.31-3.6-.67-5.47-1-.84-.15-1.11-.61-1.08-1.45s.36-1.1,1.12-1.2c1.81-.24,3.61-.55,5.42-.82.4-.06.93-.39,1.13.24s.27,1.12-.47,1.41c-.94.38-.89.79,0,1.16.76.31.52.94.4,1.45S108.92,89.13,108.45,89.08Z"></path><path class="cls-1" d="M66.16,119.7c-.25.55-.5,1.13-.77,1.7-.64,1.37-1.28,2.75-2,4.12-.18.36-.33.92-.94.65-.45-.2-1-.43-.79-1.1.34-1.12.06-1.41-.93-.72-.68.48-1.09,0-1.46-.39s.12-.78.38-1c1.37-1.41,2.77-2.79,4.16-4.18.33-.33.66-.61,1.14-.25S66,119,66.16,119.7Z"></path><path class="cls-1" d="M107.69,101.44c-.29-.82-1.65-.64-1.19-1.77.32-.81.91-.52,1.42-.47a1.56,1.56,0,0,1,1.54,1.6c.15,1.84-.74,2.72-2.59,2.48-1.32-.17-2.62-.38-3.93-.55-1.49-.2-1.55-1.22-1.45-2.38s.67-1.74,1.84-1.64c.51,0,1.22-.21,1.28.69,0,.74-.36,1-1,1-.16,0-.37.09-.27.49A15.35,15.35,0,0,0,107.69,101.44Z"></path><path class="cls-1" d="M75.08,125.9c-.4-.11-.73-.1-.93.36s.14.69.47.85.67.5.43,1-.46.74-1,.49a.79.79,0,0,0-1.21.46c-.23.55.06.82.5,1s.65.69.33,1.23-.85.25-1.31.12c-1.64-.45-2.29-1.23-1.25-2.91a25.94,25.94,0,0,0,1.5-3.25c.82-1.81,2-2,3.49-.72a.66.66,0,0,1,.18,1C76.11,125.9,76.08,125.91,75.08,125.9Z"></path><path class="cls-1" d="M106.19,93c-.38,0-1.32-.11-2.27-.15-2.1-.09-2.46-.57-2-2.62.09-.39.14-.75.64-.77s.8.08.87.53c.27,1.54.6,1.84,1.36.19.48-1,1.22-.85,1.59.09.63,1.56,1.18,1.23,1.67,0a.84.84,0,0,1,1-.66c.65,0,.56.55.61,1C109.88,93,109.78,93,106.19,93Z"></path><path class="cls-1" d="M55.25,109.44c1.58,0,1.71,1.43,2.38,2.32.22.3-.17.55-.41.73-.46.36-.81.17-1.11-.24s-.48-.61-.93-.36-.41.69-.14,1.1a.72.72,0,0,1-.23,1.12.69.69,0,0,1-1.11-.2c-.29-.39-.56-.62-1.08-.28s-.64.72-.26,1.24.24.91-.3,1.24-.87-.16-1.18-.52c-1.46-1.76-1.42-1.82.39-3.15a25.63,25.63,0,0,0,4-3.06Z"></path><path class="cls-1" d="M49.09,75.58a10.83,10.83,0,0,0,1.89,0c2-.33,2.25.74,2.05,2.28-.06.48.1,1.08-.65,1.16-.56,0-.8-.27-.88-.77s-.1-.94-.74-.88-.48.51-.52.87a.72.72,0,0,1-.76.68c-.42,0-.78-.09-.84-.56-.07-.64-.27-1.08-1-1s-.7.57-.76,1.07c-.08.73-.66.85-1.09.54-.87-.62-.33-1.62-.43-2.45s.51-.87,1.1-.87Z"></path><path class="cls-1" d="M87.87,121.18c0,.51-.33.64-.58.81s-.57.48-.32.92.55.44.93.2.91-.36,1.25.27.15.79-.3,1.09c-1.09.71,0,1.28.17,1.89s1.06,1.12.07,1.75-1.25-.35-1.6-.91c-.92-1.44-1.77-2.92-2.64-4.39-.25-.43-.63-.94.07-1.27s1.42-1.37,2.49-1C87.64,120.59,87.76,121,87.87,121.18Z"></path><path class="cls-1" d="M106.48,83.65c-1.07.25-2.54-.65-3.34,1-.11.24-1,.2-1.11-.52a19.38,19.38,0,0,1,0-2.64c0-.73.85-.9,1.07-.61,1.28,1.71,3.12.74,4.67,1.12.67.16,1.89-.55,1.86.85s-1.21.68-1.91.8A5.81,5.81,0,0,1,106.48,83.65Z"></path><path class="cls-1" d="M49.15,93.23H46.5c-.55,0-1-.1-1-.8a.79.79,0,0,1,.89-.94h5.87a.84.84,0,0,1,1,.91c0,.77-.48.76-1,.77-1,0-2,0-3,0Z"></path><path class="cls-1" d="M73.78,27.19c.21-1.16-.72-2.82,1.62-2.62,1.74.16,2.41.75,2.43,2.63s-.74,2.7-2.57,2.75C72.7,30,74.31,28,73.78,27.19Zm1.09-.05c.32.54-.51,1.66.83,1.67.93,0,1-.77,1.07-1.48s-.14-1.65-1.08-1.73C74.46,25.49,75.12,26.57,74.87,27.14Z"></path><path class="cls-1" d="M63.63,30c.44.06,1.15-.38,1.18.44,0,.58-.66.45-1,.55-2.35.57-2.51.45-2.85-1.92-.05-.31-.06-.63-.11-.94-.29-1.88.82-2.91,2.72-2.54.28.06.47.18.51.46a.43.43,0,0,1-.39.53,10.91,10.91,0,0,0-1.29.26c-.2.07-.48.31-.49.48,0,.4.33.47.66.46s.5-.06.75-.05.84-.17.93.35-.46.45-.75.64c-.45.28-1.53-.2-1.28.89C62.35,30.37,63.12,29.9,63.63,30Z"></path><path class="cls-1" d="M66.22,26.58c.55.6,1.24.51,1.81.73a1.55,1.55,0,0,1,1,1.82c-.1,1-.85,1.34-1.73,1.42a1.64,1.64,0,0,1-1.88-.94c-.09-.21-.32-.49,0-.65a.8.8,0,0,1,.69,0c.57.43,1.3,1.09,1.66.11s-.78-.72-1.3-.87c-1.11-.32-1.73-1-1.27-2.09s1.53-1.22,2.59-.85c.42.15.85.51.72,1-.17.68-.66.36-1,.15A.86.86,0,0,0,66.22,26.58Z"></path><path class="cls-1" d="M89.7,29.81c.15-.92-.65-.73-1-1.07a2,2,0,0,1-.26-2.3,1.41,1.41,0,0,1,1.71-.87,1.59,1.59,0,0,1,1.18,1.73A5.21,5.21,0,0,1,91,29.71c-.22.48-.49.93-1,1s-1.28.21-1.7-.45c-.16-.26-.41-.59-.09-.85C88.76,28.93,89,30,89.7,29.81Z"></path><path class="cls-1" d="M87.54,26.76A4.65,4.65,0,0,1,87,29.58a1.5,1.5,0,0,1-2.13.57.81.81,0,0,1-.46-.95c.17-.48.54-.38.88-.11s.6.24.79-.1c.31-.52-.18-.44-.44-.5-1.39-.3-1.37-1.33-1.13-2.36A1.38,1.38,0,0,1,86.23,25,1.58,1.58,0,0,1,87.54,26.76Z"></path><path class="cls-1" d="M93.8,27.92c1.21.75,1.72,1.81.78,3.1a1.51,1.51,0,0,1-2.44.28c-.35-.28-.64-.73-.31-1.15s.66-.08.9.2.58.54.91.14a1.42,1.42,0,0,0,.27-.86c0-.43-.36-.6-.81-.53s-1.06,0-.84-.59c.28-.77.3-1.91,1.33-2.06.59-.09,1.69,0,1.78.7C95.51,28.39,94.24,27.28,93.8,27.92Z"></path><path class="cls-1" d="M71.34,24.68c.61.08,1.35-.31,1.6.31s-.74.54-.91.93c-.42,1,0,2-.09,3,0,.39.24,1-.41,1.05s-.6-.54-.66-.94c-.07-.62-.05-1.26-.11-1.88A3.32,3.32,0,0,0,70.52,26c-.23-.46-1.45.1-1.13-.79S70.74,24.9,71.34,24.68Z"></path><path class="cls-1" d="M82.94,26.78a5.31,5.31,0,0,1,0,1c-.2.72.38,2.07-.64,2s-.26-1.33-.44-2c-.09-.38.29-1-.34-1.11-1.2-.19-.74-.63-.18-1s.8-1.16,1.31-.85C83.47,25.31,82.76,26.3,82.94,26.78Z"></path><path class="cls-1" d="M90.51,50.6A10.21,10.21,0,0,1,90.37,44c.65,1.15,2.13,1.45,2.14,3.27S90.41,49,90.51,50.6Z"></path><path class="cls-1" d="M94.49,44c1.18,1.92,1,3.94.54,6-.07.32-.18.66-.56.59-.17,0-.37-.33-.43-.54A8.16,8.16,0,0,1,94.49,44Z"></path><path class="cls-1" d="M43,44a8.7,8.7,0,0,1-.46,6.48V44.1Z"></path><path class="cls-1" d="M61.17,81.81c2.14,0,3.38.9,3.88,2.89q2.58,10.17,5.13,20.37c.5,2-.37,3.44-2.15,3.65-.65.07-1.26.07-.86-.85a3.64,3.64,0,0,0-.16-2.58q-2.78-9.84-5.56-19.67a6.71,6.71,0,0,0-1-2.25c-.29-.41-1.27-.45-.89-1.19C59.87,81.63,60.61,81.83,61.17,81.81Zm-.12,1.06a29.55,29.55,0,0,1,2.09,5.51q2.46,9.14,4.93,18.28c.1.35,0,.82.59.75a.84.84,0,0,0,.78-.72,3,3,0,0,0-.14-1.1c-1.89-7-3.81-14-5.66-21C63.3,83.25,62.55,82.83,61.05,82.87Z"></path></svg>